<?xml version="1.0" encoding="UTF-8" standalone="no"?>
<svg
   width="1636.432"
   height="1618.0992"
   viewBox="0 0 1636.432 1618.0992"
   id="character"
   version="1.1"
   sodipodi:docname="close.svg"
   inkscape:version="1.2.2 (b0a8486541, 2022-12-01)"
   xmlns:inkscape="http://www.inkscape.org/namespaces/inkscape"
   xmlns:sodipodi="http://sodipodi.sourceforge.net/DTD/sodipodi-0.dtd"
   xmlns:xlink="http://www.w3.org/1999/xlink"
   xmlns="http://www.w3.org/2000/svg"
   xmlns:svg="http://www.w3.org/2000/svg">
  <sodipodi:namedview
     id="namedview1863"
     pagecolor="#ffffff"
     bordercolor="#666666"
     borderopacity="1.0"
     inkscape:showpageshadow="2"
     inkscape:pageopacity="0.0"
     inkscape:pagecheckerboard="0"
     inkscape:deskcolor="#d1d1d1"
     showgrid="false"
     inkscape:zoom="0.17913372"
     inkscape:cx="418.68164"
     inkscape:cy="1549.1221"
     inkscape:window-width="1080"
     inkscape:window-height="1853"
     inkscape:window-x="0"
     inkscape:window-y="0"
     inkscape:window-maximized="1"
     inkscape:current-layer="gee_me_011" />
  <defs
     id="defs1713">
    <path
       id="path-1"
       d="M 50,0 0,388 c 4.6894,7.5 36.032,16.72 61.45,19.86 0.61,12.69 1.862,20.58 3.887,22.14 13,10 115.087,20.67 121.754,10 v -8.05 c 23.979,4.15 56.598,2.47 115.909,-3.32 0,0 -0.974,-7.35 -2.516,-20.31 26.029,-2.57 60.671,-12.4 65.621,-20.32 l -50,-388 h -56 c -0.112,0.871 -0.223,1.749 -0.333,2.635 L 164,15.231 c 0.22,3.29 0.438,6.546 0.654,9.769 H 108.666 C 107.888,16.129 107.001,7.761 106,0 Z" />
    <path
       id="path-3"
       d="m 190.165,65 c 0,-30.7 -19.726,-34.45 -51.876,-44.97 C 122.542,14.88 106.471,10.39 90.165,7.69 79.918,5.99 77.165,15 59.165,15 43.113,15 23.087,7.05 18.941,5.33 18.42,5.11 17.804,4.92 17.39,5.3 17.29,5.39 17.205,5.51 17.143,5.63 15.226,9.57 5.165,31.05 5.165,48.24 c 0,13.15 -1.126,26.08 2.5,32.76 1.636,3.01 11.851,4.66 15.282,4.66 h 161.656 c 3.072,0 5.562,-17.59 5.562,-20.66 z" />
    <path
       id="path-5"
       d="m 190.165,65 c 0,-30.7 -19.726,-34.45 -51.876,-44.97 C 122.542,14.88 106.471,10.39 90.165,7.69 79.918,5.99 77.165,15 59.165,15 43.113,15 23.087,7.05 18.941,5.33 18.42,5.11 17.804,4.92 17.39,5.3 17.29,5.39 17.205,5.51 17.143,5.63 15.226,9.57 5.165,31.05 5.165,48.24 c 0,13.15 -1.126,26.08 2.5,32.76 1.636,3.01 11.851,4.66 15.282,4.66 h 161.656 c 3.072,0 5.562,-17.59 5.562,-20.66 z" />
    <path
       id="path-7"
       d="M 0.503,0 C 0.172,2.021 0,4.095 0,6.209 v 14.009 c 0,21.038 17.055,38.093 38.093,38.093 21.039,0 38.094,-17.055 38.094,-38.093 V 6.209 C 76.187,4.095 76.014,2.021 75.683,0 Z" />
  </defs>
  <g
     id="gee_me_011"
     fill="none"
     fill-rule="evenodd"
     stroke="none"
     stroke-width="1"
     transform="matrix(1.9197083,0,0,1.9197083,-106.26563,-24.864848)">
    <g
       id="lower-limb"
       transform="translate(324,863)">
      <path
         id="Path"
         fill="#f6ddd6"
         fill-rule="nonzero"
         d="m 263.31751,141.42987 c 4.84226,23.41749 5.42845,93.71483 1.99417,182.63537 -3.06565,79.37597 -8.89724,161.42284 -13.81908,195.89417 -2.34191,16.4022 9.0562,31.5973 25.4584,33.93921 16.40219,2.34192 31.59729,-9.05619 33.93921,-25.45839 5.28301,-37.0009 11.23747,-120.77647 14.37677,-202.0594 3.65448,-94.62194 3.05174,-166.90321 -3.19249,-197.10071 -3.35506,-16.22529 -19.22807,-26.65868 -35.45337,-23.30361 -16.22529,3.35506 -26.65868,19.22807 -23.30361,35.45336 z M 138.15253,123.20803 c -6.41406,31.01828 -11.20602,109.967 -12.38979,195.59242 -1.27898,92.51252 1.84044,170.42758 9.65218,206.64424 3.4934,16.19608 19.45487,26.49362 35.65094,23.00022 16.19608,-3.4934 26.49362,-19.45487 23.00022,-35.65095 -6.51834,-30.22024 -9.52391,-105.29149 -8.30907,-193.16408 1.13084,-81.79694 5.77121,-158.24826 11.15246,-184.27191 3.35512,-16.22528 -7.07821,-32.09833 -23.3035,-35.453443 -16.22528,-3.355116 -32.09833,7.078213 -35.45344,23.303503 z" />
      <g
         id="Group-2"
         transform="translate(51)">
        <path
           id="path1716"
           fill="#bf7e68"
           fill-rule="nonzero"
           d="M 0,388 50,0 h 56 c 16,124 2.8,403.2 -18,408 -20.8,4.8 -81.3333,-9.329 -88,-20 z m 366.105,0 -50,-388 h -56 c -16,124 -2.8,403.2 18,408 20.8,4.8 81.334,-9.33 88,-20 z" />
        <path
           id="path1718"
           fill="#c99584"
           fill-rule="nonzero"
           d="m 65.337,430 c 13,10 115.087,20.67 121.754,10 V 232 L 170.337,25 H 87.196 c -16,124 -34.859,395 -21.859,405 z" />
        <path
           id="path1720"
           fill="#d79d8a"
           fill-rule="nonzero"
           d="m 173.198,428.63 c 25.552,7.99 58.258,6.99 129.802,0 0,0 -13.38,-100.86 -19.419,-214.689 C 277.541,100.107 270.294,1.251 270.294,1.251 L 164,15.231 c 9.198,137.799 15.331,214.687 9.198,413.399 z" />
        <g
           id="Clipped"
           transform="translate(1)">
          <mask
             id="mask-2"
             fill="#ffffff">
            <use
               xlink:href="#path-1"
               id="use1722" />
          </mask>
          <g
             id="Group"
             mask="url(#mask-2)">
            <g
               transform="translate(15,-48)"
               id="g1731">
              <path
                 id="Shape"
                 fill="#c57b5c"
                 fill-rule="evenodd"
                 d="M 73.91,0.631 52.057,501.15 65.624,501.75 87.477,1.223 Z M 98.33,1.393 76.477,501.92 97.151,502.82 119.004,2.295 Z" />
              <rect
                 id="Rectangle"
                 width="501"
                 height="13.853"
                 x="-216.668"
                 y="245.84"
                 fill="#ac6c57"
                 fill-rule="nonzero"
                 transform="rotate(-84,33.832,252.766)" />
              <path
                 id="path1727"
                 fill="#c57b5c"
                 fill-rule="evenodd"
                 d="m 128.718,7.041 4.372,500.979 7.113,-0.06 -4.372,-500.981 z m 24.857,500.889 -4.372,-500.979 13.58,-0.119 4.372,500.978 z m 26.952,-0.15 -4.372,-500.983 20.692,-0.18 4.372,500.983 z M 210.771,4.689 245.719,504.47 252.815,503.97 217.867,4.193 Z m 21.312,-0.91 34.948,499.781 13.547,-0.95 L 245.63,2.832 Z" />
              <rect
                 id="rect1729"
                 width="501"
                 height="13.58"
                 x="43.748001"
                 y="245.573"
                 fill="#ac6c57"
                 fill-rule="nonzero"
                 transform="rotate(-96,294.248,252.363)" />
            </g>
          </g>
        </g>
      </g>
      <g
         id="g1753"
         transform="translate(233,492)">
        <g
           id="g1745"
           transform="translate(0,21)">
          <mask
             id="mask-4"
             fill="#ffffff">
            <use
               xlink:href="#path-3"
               id="use1736" />
          </mask>
          <use
             xlink:href="#path-3"
             id="use1739"
             fill="#d0d4db"
             fill-rule="nonzero" />
          <path
             id="path1741"
             fill="#e4e9f1"
             fill-rule="nonzero"
             d="m 90.534,27.04 c -0.186,-2.46 -3.081,-3.65 -4.946,-2.05 l -10.593,9.09 c -0.743,0.64 -1.752,0.88 -2.702,0.63 L 58.627,31.2 c -2.429,-0.63 -4.508,1.83 -3.489,4.12 l 5.608,12.62 c 0.408,0.92 0.329,1.99 -0.211,2.83 l -7.367,11.58 c -1.331,2.09 0.304,4.8 2.774,4.6 L 70.098,65.8 c 0.963,-0.08 1.904,0.31 2.529,1.05 l 9.198,10.82 c 1.604,1.89 4.677,1.13 5.214,-1.29 l 2.976,-13.4 C 90.233,62 90.928,61.2 91.866,60.83 l 12.893,-4.96 c 2.341,-0.9 2.608,-4.1 0.448,-5.38 l -12.15,-7.18 c -0.844,-0.49 -1.392,-1.37 -1.466,-2.35 z"
             mask="url(#mask-4)" />
          <path
             id="path1743"
             fill="#aeb5c0"
             fill-rule="nonzero"
             d="m 42.665,11 c -12,-0.8 -22,-7.33 -26,-11 -4,4 -13.9,15 -11.5,19 3,5 26,9 36,9 10,0 16.5,-16 1.5,-17 z m 127.356,20.02 c 12.948,-7.32 7.87,7.18 19.505,13.34 l 24.639,47.23 H 18.081 C 13.29,84.74 -9.458,66.5 5.165,66.5 c 32,0 77,5 96.5,6 18.483,0.95 74.607,2.42 71.5,-14 -3.593,-18.99 -14.951,-20.81 -3.144,-27.48 z"
             mask="url(#mask-4)" />
        </g>
        <path
           id="path1747"
           fill="#aeb5c0"
           fill-rule="nonzero"
           d="m 96.422878,45.40734 c -1.80286,2.353984 0.435698,5.646151 3.287649,4.835028 l 21.800463,-6.200271 -4.8092,4.771585 c -1.20747,1.198024 -1.21513,3.148062 -0.0171,4.355532 1.19803,1.20747 3.14806,1.215128 4.35553,0.0171 l 13.294,-13.19 c 2.25917,-2.241492 0.0493,-6.019286 -3.01174,-5.148686 l -24.35953,6.928095 5.97618,-7.803067 c 1.75497,-2.291454 -0.3231,-5.521387 -3.13587,-4.87405 l -21.84244,5.02688 c 0.315563,-0.204585 0.647065,-0.412665 0.994534,-0.624105 0.959722,-0.584004 4.330033,-2.4977 4.942271,-2.870129 1.453203,-0.883996 1.914636,-2.778669 1.030641,-4.231871 -0.883996,-1.453203 -2.778669,-1.914636 -4.231871,-1.030641 -0.506523,0.308122 -3.877372,2.222123 -4.943063,2.870611 -5.615029,3.416828 -8.668172,6.515606 -8.668172,10.840645 0,1.979853 1.841183,3.445431 3.770598,3.00139 L 102.8462,37.020447 Z" />
        <path
           id="path1749"
           fill="#aeb5c0"
           fill-rule="nonzero"
           d="m 83.96815,15.91 c 0,0.878454 -0.01013,1.659632 -0.03448,2.974869 l -0.005,0.267771 -5.34e-4,0.09736 c -0.02923,1.54062 -0.03658,2.066176 -0.03398,2.810744 0.0058,2.076832 0.124681,3.510074 0.433392,4.689267 0.354759,1.355448 0.963374,2.319463 1.904206,2.975857 1.015072,0.712346 2.452492,1.063982 4.409233,1.063982 4.080423,0 8.943744,-1.515123 12.730003,-4.036335 4.27304,-2.84536 6.77585,-6.632467 6.77585,-10.843515 0,-4.558263 -1.10878,-8.5268189 -3.18315,-11.3525512 C 104.80301,1.6046011 101.67185,1.5e-4 97.827,1.5e-4 89.934714,1.5e-4 83.96815,6.7862057 83.96815,15.91 Z m 6.085688,6.131397 c -0.0024,-0.683314 0.0046,-1.186439 0.03348,-2.734037 L 90.08785,19.21 c 0.002,-0.07603 0.002,-0.07603 0.0045,-0.211086 0.02501,-1.350723 0.03554,-2.162649 0.03554,-3.088914 0,-5.885672 3.3978,-9.75015 7.69915,-9.75015 1.871263,0 3.15968,0.6602035 4.1685,2.0388702 1.23809,1.6865515 1.99165,4.3836998 1.99165,7.7112798 0,1.904448 -1.33184,3.919711 -4.030161,5.716489 -2.789351,1.857385 -6.468728,3.003661 -9.315989,3.003661 -0.170591,0 -0.324244,-0.0041 -0.461407,-0.01143 -0.07882,-0.586507 -0.122534,-1.424277 -0.125755,-2.577322 z" />
        <path
           id="path1751"
           fill="#aeb5c0"
           fill-rule="nonzero"
           d="m 85.586688,29.963125 0.0079,0.0053 c -0.485105,0.727658 -1.31483,1.365908 -2.615744,1.94601 -2.770185,1.231193 -6.523892,1.682641 -9.842244,1.135017 -3.751176,-0.613877 -6.578363,-2.394481 -7.834358,-5.209369 -1.361785,-3.066349 -1.793259,-6.060934 -1.227778,-8.572539 0.588611,-2.630663 2.233962,-4.656213 4.843093,-5.82165 5.347266,-2.377917 11.427319,0.359826 14.154651,6.480613 l 0.0013,0.003 c 0.268473,0.604254 0.351185,0.782748 1.012032,2.196653 l -0.004,-0.0086 c 0.08612,0.186285 0.388544,0.836747 0.452199,0.974348 0.172265,0.372384 0.302696,0.659319 0.424063,0.934935 0.610921,1.384755 0.959751,2.386616 1.105359,3.276564 0.07878,0.492398 0.08907,0.935495 0.03194,1.343602 l -0.03006,0.176993 c -0.0066,0.03602 -0.01098,0.05958 -0.01793,0.08873 -0.01679,0.13772 -0.03371,0.228918 -0.110985,0.376485 -0.07787,0.220716 -0.09331,0.252078 -0.349436,0.673904 z m -14.1616,-10.891058 c -0.820976,0.366711 -1.174245,0.801613 -1.34045,1.544416 -0.251695,1.117914 -0.0104,2.792583 0.84493,4.718552 0.306133,0.68609 1.326321,1.32862 3.205911,1.636216 1.722946,0.284335 3.692077,0.145367 5.256595,-0.298473 -0.02286,-0.05263 -0.04644,-0.106484 -0.07074,-0.161575 -0.104306,-0.23687 -0.220383,-0.492228 -0.378079,-0.833117 -0.05935,-0.128297 -0.354165,-0.762408 -0.461147,-0.994071 -0.657909,-1.40697 -0.746513,-1.598235 -1.036986,-2.251994 -1.402852,-3.146886 -3.935433,-4.286967 -6.020032,-3.359954 z" />
      </g>
      <g
         id="g1772"
         transform="matrix(-1,0,0,1,215,492)">
        <g
           id="g1764"
           transform="translate(0,21)">
          <mask
             id="mask-6"
             fill="#ffffff">
            <use
               xlink:href="#path-5"
               id="use1755" />
          </mask>
          <use
             xlink:href="#path-5"
             id="use1758"
             fill="#d0d4db"
             fill-rule="nonzero" />
          <path
             id="path1760"
             fill="#e4e9f1"
             fill-rule="nonzero"
             d="m 90.534,27.04 c -0.186,-2.46 -3.081,-3.65 -4.946,-2.05 l -10.593,9.09 c -0.743,0.64 -1.752,0.88 -2.702,0.63 L 58.627,31.2 c -2.429,-0.63 -4.508,1.83 -3.489,4.12 l 5.608,12.62 c 0.408,0.92 0.329,1.99 -0.211,2.83 l -7.367,11.58 c -1.331,2.09 0.304,4.8 2.774,4.6 L 70.098,65.8 c 0.963,-0.08 1.904,0.31 2.529,1.05 l 9.198,10.82 c 1.604,1.89 4.677,1.13 5.214,-1.29 l 2.976,-13.4 C 90.233,62 90.928,61.2 91.866,60.83 l 12.893,-4.96 c 2.341,-0.9 2.608,-4.1 0.448,-5.38 l -12.15,-7.18 c -0.844,-0.49 -1.392,-1.37 -1.466,-2.35 z"
             mask="url(#mask-6)" />
          <path
             id="path1762"
             fill="#aeb5c0"
             fill-rule="nonzero"
             d="m 42.665,11 c -12,-0.8 -22,-7.33 -26,-11 -4,4 -13.9,15 -11.5,19 3,5 26,9 36,9 10,0 16.5,-16 1.5,-17 z m 127.356,20.02 c 12.948,-7.32 7.87,7.18 19.505,13.34 l 24.639,47.23 H 18.081 C 13.29,84.74 -9.458,66.5 5.165,66.5 c 32,0 77,5 96.5,6 18.483,0.95 74.607,2.42 71.5,-14 -3.593,-18.99 -14.951,-20.81 -3.144,-27.48 z"
             mask="url(#mask-6)" />
        </g>
        <path
           id="path1766"
           fill="#aeb5c0"
           fill-rule="nonzero"
           d="m 96.422878,45.40734 c -1.80286,2.353984 0.435698,5.646151 3.287649,4.835028 l 21.800463,-6.200271 -4.8092,4.771585 c -1.20747,1.198024 -1.21513,3.148062 -0.0171,4.355532 1.19803,1.20747 3.14806,1.215128 4.35553,0.0171 l 13.294,-13.19 c 2.25917,-2.241492 0.0493,-6.019286 -3.01174,-5.148686 l -24.35953,6.928095 5.97618,-7.803067 c 1.75497,-2.291454 -0.3231,-5.521387 -3.13587,-4.87405 l -21.84244,5.02688 c 0.315563,-0.204585 0.647065,-0.412665 0.994534,-0.624105 0.959722,-0.584004 4.330033,-2.4977 4.942271,-2.870129 1.453203,-0.883996 1.914636,-2.778669 1.030641,-4.231871 -0.883996,-1.453203 -2.778669,-1.914636 -4.231871,-1.030641 -0.506523,0.308122 -3.877372,2.222123 -4.943063,2.870611 -5.615029,3.416828 -8.668172,6.515606 -8.668172,10.840645 0,1.979853 1.841183,3.445431 3.770598,3.00139 L 102.8462,37.020447 Z" />
        <path
           id="path1768"
           fill="#aeb5c0"
           fill-rule="nonzero"
           d="m 83.96815,15.91 c 0,0.878454 -0.01013,1.659632 -0.03448,2.974869 l -0.005,0.267771 -5.34e-4,0.09736 c -0.02923,1.54062 -0.03658,2.066176 -0.03398,2.810744 0.0058,2.076832 0.124681,3.510074 0.433392,4.689267 0.354759,1.355448 0.963374,2.319463 1.904206,2.975857 1.015072,0.712346 2.452492,1.063982 4.409233,1.063982 4.080423,0 8.943744,-1.515123 12.730003,-4.036335 4.27304,-2.84536 6.77585,-6.632467 6.77585,-10.843515 0,-4.558263 -1.10878,-8.5268189 -3.18315,-11.3525512 C 104.80301,1.6046011 101.67185,1.5e-4 97.827,1.5e-4 89.934714,1.5e-4 83.96815,6.7862057 83.96815,15.91 Z m 6.085688,6.131397 c -0.0024,-0.683314 0.0046,-1.186439 0.03348,-2.734037 L 90.08785,19.21 c 0.002,-0.07603 0.002,-0.07603 0.0045,-0.211086 0.02501,-1.350723 0.03554,-2.162649 0.03554,-3.088914 0,-5.885672 3.3978,-9.75015 7.69915,-9.75015 1.871263,0 3.15968,0.6602035 4.1685,2.0388702 1.23809,1.6865515 1.99165,4.3836998 1.99165,7.7112798 0,1.904448 -1.33184,3.919711 -4.030161,5.716489 -2.789351,1.857385 -6.468728,3.003661 -9.315989,3.003661 -0.170591,0 -0.324244,-0.0041 -0.461407,-0.01143 -0.07882,-0.586507 -0.122534,-1.424277 -0.125755,-2.577322 z" />
        <path
           id="path1770"
           fill="#aeb5c0"
           fill-rule="nonzero"
           d="m 85.586688,29.963125 0.0079,0.0053 c -0.485105,0.727658 -1.31483,1.365908 -2.615744,1.94601 -2.770185,1.231193 -6.523892,1.682641 -9.842244,1.135017 -3.751176,-0.613877 -6.578363,-2.394481 -7.834358,-5.209369 -1.361785,-3.066349 -1.793259,-6.060934 -1.227778,-8.572539 0.588611,-2.630663 2.233962,-4.656213 4.843093,-5.82165 5.347266,-2.377917 11.427319,0.359826 14.154651,6.480613 l 0.0013,0.003 c 0.268473,0.604254 0.351185,0.782748 1.012032,2.196653 l -0.004,-0.0086 c 0.08612,0.186285 0.388544,0.836747 0.452199,0.974348 0.172265,0.372384 0.302696,0.659319 0.424063,0.934935 0.610921,1.384755 0.959751,2.386616 1.105359,3.276564 0.07878,0.492398 0.08907,0.935495 0.03194,1.343602 l -0.03006,0.176993 c -0.0066,0.03602 -0.01098,0.05958 -0.01793,0.08873 -0.01679,0.13772 -0.03371,0.228918 -0.110985,0.376485 -0.07787,0.220716 -0.09331,0.252078 -0.349436,0.673904 z m -14.1616,-10.891058 c -0.820976,0.366711 -1.174245,0.801613 -1.34045,1.544416 -0.251695,1.117914 -0.0104,2.792583 0.84493,4.718552 0.306133,0.68609 1.326321,1.32862 3.205911,1.636216 1.722946,0.284335 3.692077,0.145367 5.256595,-0.298473 -0.02286,-0.05263 -0.04644,-0.106484 -0.07074,-0.161575 -0.104306,-0.23687 -0.220383,-0.492228 -0.378079,-0.833117 -0.05935,-0.128297 -0.354165,-0.762408 -0.461147,-0.994071 -0.657909,-1.40697 -0.746513,-1.598235 -1.036986,-2.251994 -1.402852,-3.146886 -3.935433,-4.286967 -6.020032,-3.359954 z" />
      </g>
    </g>
    <g
       id="upper-limb"
       transform="translate(307.776,472)">
      <rect
         id="rect1775"
         width="304.121"
         height="146.058"
         x="121.901"
         y="21.214001"
         fill="#61401b"
         fill-rule="nonzero"
         rx="73.028999"
         transform="rotate(-7.996,273.961,94.243)" />
      <path
         id="path1777"
         stroke="#9db7c9"
         stroke-width="11"
         d="m 298.2242,191.749 77,-63" />
      <path
         id="path1779"
         fill="#f6ddd6"
         fill-rule="nonzero"
         d="m 46.224401,192 c 0,13.16615 0.269773,7.66725 -3.160676,70.93208 -3.144767,57.99621 -4.162568,98.00772 -2.545686,140.11827 2.323398,60.51125 10.308692,111.67619 26.036115,153.87203 7.136832,19.14774 28.444686,28.8845 47.592426,21.74767 19.14774,-7.13683 28.8845,-28.44469 21.74767,-47.59243 -12.52694,-33.60909 -19.38315,-77.53958 -21.4307,-130.86649 -1.5081,-39.2774 -0.53867,-77.38721 2.49163,-133.27239 0.17636,-3.2526 0.35635,-6.52329 0.59714,-10.86407 0.0685,-1.23447 0.32806,-5.90724 0.29382,-5.29065 0.11735,-2.1132 0.20382,-3.67368 0.28758,-5.19141 0.45682,-8.27739 0.7694,-14.15833 1.04156,-19.70592 0.70085,-14.28557 1.04912,-24.90719 1.04912,-33.88669 0,-20.43454 -16.56546,-37 -36.999999,-37 -20.434536,0 -37,16.56546 -37,37 z M 324.7242,186 c 0,30.30498 16.65213,57.05676 42.83743,76.09096 22.52176,16.37116 51.35002,26.35891 80.01592,27.55495 32.86664,1.37131 63.95966,-8.71315 87.29079,-30.87932 25.59078,-24.313 38.85586,-60.20442 38.85586,-104.76659 0,-21.81525 -17.68475,-39.5 -39.5,-39.5 -21.81525,0 -39.5,17.68475 -39.5,39.5 0,24.17807 -5.55858,39.21798 -14.26914,47.4936 -6.79074,6.45167 -16.95405,9.74796 -29.58421,9.22099 -13.15776,-0.54899 -26.9641,-5.33229 -36.85907,-12.52499 -4.16765,-3.02947 -7.20539,-6.17926 -8.94885,-8.98015 -0.60587,-0.97333 -0.98806,-1.79706 -1.1916,-2.45548 -0.11201,-0.36236 -0.14713,-0.58853 -0.14713,-0.75397 0,-21.81525 -17.68475,-39.5 -39.5,-39.5 -21.81525,0 -39.5,17.68475 -39.5,39.5 z" />
      <path
         id="path1781"
         fill="#0a0a08"
         fill-rule="nonzero"
         d="m 115.2242,331.5 53,-155.751 24,-73 45,10 84,-10 97,245.251 c 0,0 0,10.5 -6.5,16 -6.5,5.5 -29.5,45 -29.5,45 0,0 -108,16 -133,16 -25,0 -50,-5 -50,-5 l -50,-18.251 c 0,0 -24.5,-37.249 -30.5,-45.749 -6,-8.5 -3.5,-24.5 -3.5,-24.5 z" />
      <rect
         id="rect1783"
         width="83"
         height="117"
         x="209.224"
         y="65"
         fill="#dbc0b8"
         fill-rule="nonzero"
         rx="41.5" />
      <path
         id="path1785"
         fill="#657792"
         fill-rule="nonzero"
         d="m 188.2242,239.749 -83,172.251 c 0,0 -76.999999,-14 -104.99999876,-40 0,0 21.55249976,-78 32.00009976,-152.251 C 42.671801,145.498 105.2242,122 105.2242,122 l 65,-12.251 z" />
      <path
         id="path1787"
         fill="#657692"
         fill-rule="nonzero"
         d="M 0.87210124,380.593 C -4.2445688,361.004 14.002601,343.342 33.414401,349.093 l 51.557,15.277 c 7.8278,2.319 14.3728,7.729 18.123799,14.981 l 21.813,42.171 c 1.533,2.964 2.561,6.164 3.041,9.468 l 11.938,82.145 c 1.487,10.232 -5.07,19.91 -15.123,22.324 l -59.451899,14.273 c -10.5898,2.542 -21.2672,-3.856 -24.0196,-14.393 z" />
      <path
         id="path1789"
         fill="#8a9bb6"
         fill-rule="nonzero"
         d="m 89.057601,486.25 -47.5005,16.442 c -8.5424,2.957 -13.1896,12.167 -10.4932,20.795 2.8213,9.028 12.5618,13.922 21.4896,10.798 l 47.4437,-16.606 C 108.8722,514.573 113.4302,504.782 110.0352,496.013 106.8022,487.661 97.521201,483.32 89.057601,486.25 Z" />
      <circle
         id="Oval"
         cx="95.723999"
         cy="500.5"
         r="9.5"
         fill="#2e3a4d"
         fill-rule="nonzero" />
      <polygon
         id="polygon1792"
         fill="#576985"
         fill-rule="nonzero"
         points="54.224,319 41.224,346 111.224,352 " />
      <polygon
         id="polygon1794"
         fill="#576985"
         fill-rule="nonzero"
         points="31.835,360.686 42.225,381 97.224,368 97.224,353 " />
      <path
         id="path1796"
         fill="#7b899f"
         fill-rule="nonzero"
         d="M 88.215801,199.814 C 86.041201,151.975 124.2402,112 172.1292,112 h 17.782 c 8.763,0 16.764,4.979 20.635,12.841 L 236.2242,177 c 0,0 -9,76 -9,133 0,45.478 -7.957,134.879 -11.174,169.164 -0.64,6.821 -7.8,10.893 -14.037,8.058 L 89.344201,436.009 c -3.9465,-1.794 -6.2878,-5.927 -5.7973,-10.235 L 94.224201,332 Z" />
      <path
         id="path1798"
         fill="#576985"
         fill-rule="nonzero"
         d="m 115.2242,290 v -54 l 91,-10 c -5,24 -5,58 -5,75 -67,27 -61,19 -86,-11 z" />
      <polygon
         id="polygon1800"
         fill="#8a9bb6"
         fill-rule="nonzero"
         points="143.224,264 194.224,246 205.224,226 111.224,219 105.224,241 " />
      <path
         id="path1802"
         fill="#576985"
         fill-rule="nonzero"
         d="M 208.3602,489.746 84.153701,435.984 c -2.0337,-0.88 -3.2454,-2.994 -2.9771,-5.193 l 4.5476,-37.291 133.499999,47.5 -3.896,44.592 c -0.297,3.399 -3.836,5.509 -6.968,4.154 z" />
      <polygon
         id="polygon1804"
         fill="#576985"
         fill-rule="nonzero"
         points="200.724,93 158.724,105.5 163.224,208 241.224,184 " />
      <path
         id="path1806"
         fill="#546277"
         fill-rule="nonzero"
         d="m 313.3782,240.749 c 0,0 -9.154,171.251 94.846,171.251 104,0 92,-46 104,-76 0,0 -1.16,-64.749 -44.003,-126 -42.843,-61.251 -71.843,-87 -71.843,-87 l -65,-12.251 z" />
      <path
         id="path1808"
         fill="#7b899f"
         fill-rule="nonzero"
         d="M 410.5342,203.345 C 414.2272,154.593 375.6662,113 326.7742,113 h -15.083 c -8.763,0 -16.764,4.979 -20.635,12.841 L 265.3782,178 c 0,0 2,71 0,133 -1.612,49.987 12.925,135.074 18.619,166.171 1.129,6.168 7.613,9.665 13.431,7.328 l 104.211,-41.855 c 3.944,-1.584 6.455,-5.487 6.263,-9.732 L 402.3782,311 Z" />
      <path
         id="path1810"
         fill="#576985"
         fill-rule="nonzero"
         d="m 387.3772,290 v -54 l -91,-10 c 5,24 5,58 5,75 67,27 61,19 86,-11 z" />
      <polygon
         id="polygon1812"
         fill="#8a9bb6"
         fill-rule="nonzero"
         points="359.377,264 308.377,246 297.377,226 391.377,219 397.377,241 " />
      <path
         id="path1814"
         fill="#576985"
         fill-rule="nonzero"
         d="m 290.9632,489.773 115.897,-44.968 c 2.008,-0.779 3.291,-2.757 3.185,-4.908 l -1.822,-36.897 -131,40.5 6.998,42.425 c 0.517,3.132 3.783,4.996 6.742,3.848 z" />
      <polygon
         id="polygon1816"
         fill="#576985"
         fill-rule="nonzero"
         points="300.876,94 342.876,106.5 338.376,209 260.376,185 " />
      <path
         id="path1818"
         fill="#657692"
         fill-rule="nonzero"
         d="m 458.2092,406.357 c -14.599,2.206 -25.105,-12.367 -33.228,-24.697 -14.278,-21.672 -20.415,-38.8 -19.756,-60.229 0.896,-29.106 16.181,-55.442 32.77,-79.375 l 1.809,-2.61 55.091,-68.688 c 6.468,-8.065 18.018,-9.871 26.64,-4.164 l 53.781,35.596 c 7.896,5.227 11.045,15.275 7.543,24.073 l -14.854,37.328 c -0.791,1.987 -1.791,3.883 -2.985,5.656 L 524.9882,342 c -9.433,14.019 -39.463,60.231 -66.779,64.357 z" />
      <path
         id="path1820"
         fill="#8a9bb6"
         fill-rule="nonzero"
         d="m 474.5772,210.738 41.961,27.675 c 7.546,4.977 17.682,3.058 22.885,-4.334 5.445,-7.734 3.399,-18.441 -4.515,-23.622 l -42.056,-27.531 c -7.867,-5.15 -18.41,-2.805 -23.3,5.226 -4.658,7.649 -2.451,17.655 5.025,22.586 z" />
      <circle
         id="circle1822"
         cx="283.724"
         cy="258.5"
         r="9.5"
         fill="#2e3a4d"
         fill-rule="nonzero" />
      <circle
         id="circle1824"
         cx="283.724"
         cy="328.5"
         r="9.5"
         fill="#2e3a4d"
         fill-rule="nonzero" />
      <circle
         id="circle1826"
         cx="291.724"
         cy="392.5"
         r="9.5"
         fill="#2e3a4d"
         fill-rule="nonzero" />
      <circle
         id="circle1828"
         cx="302.724"
         cy="459.5"
         r="9.5"
         fill="#2e3a4d"
         fill-rule="nonzero" />
    </g>
    <g
       id="head"
       transform="translate(361,132)">
      <path
         id="path1831"
         fill="#f6ddd6"
         fill-rule="nonzero"
         d="m 37.505,162.894 c 0,-81.3869 69.746,-147.364 155.783,-147.364 86.037,0 155.783,65.9771 155.783,147.364 l -10,146.571 c -12.563,95.074 -77.942,147.364 -145.783,147.364 -67.841,0 -136.57,-63.382 -145.783,-147.364 z" />
      <path
         id="path1833"
         fill="#393939"
         d="m 154,350.271 v 13.696 c 0,21.038 17.055,38.093 38.093,38.093 21.039,0 38.094,-17.055 38.094,-38.093 v -13.696 z" />
      <g
         id="Group-5"
         transform="translate(154,343.749)">
        <mask
           id="mask-8"
           fill="#ffffff">
          <use
             xlink:href="#path-7"
             id="use1835" />
        </mask>
        <ellipse
           id="ellipse1838"
           cx="38.092999"
           cy="54.762001"
           fill="#ff6c6c"
           fill-rule="nonzero"
           mask="url(#mask-8)"
           rx="22.972"
           ry="12.511" />
        <rect
           id="rect1840"
           width="76.185997"
           height="18"
           x="0"
           y="4.2509999"
           fill="#ffffff"
           fill-rule="nonzero"
           mask="url(#mask-8)" />
      </g>
      <path
         id="path1843"
         fill="#46413d"
         fill-rule="nonzero"
         d="m 114.34257,217.88851 c 0.20796,-0.0866 0.69111,-0.27266 1.41466,-0.52563 1.25466,-0.43866 2.68296,-0.8811 4.24914,-1.29539 4.45546,-1.17858 9.06616,-1.88349 13.52763,-1.88349 4.44377,0 8.90214,0.69904 13.1238,1.86609 1.47765,0.40849 2.81258,0.84399 3.9745,1.27477 0.66345,0.24598 1.09768,0.42435 1.2732,0.50281 3.02524,1.35227 6.5739,-0.004 7.92617,-3.02918 1.35227,-3.02523 -0.004,-6.57389 -3.02918,-7.92616 -0.40697,-0.18192 -1.08196,-0.4592 -1.99866,-0.79906 -1.47168,-0.54563 -3.12972,-1.08654 -4.94863,-1.58936 -5.19709,-1.4367 -10.70247,-2.29991 -16.3212,-2.29991 -5.60102,0 -11.20871,0.85734 -16.59637,2.28251 -1.87892,0.49702 -3.60272,1.03099 -5.1408,1.56874 -0.95209,0.33287 -1.65242,0.60251 -2.0694,0.77624 -3.05884,1.27444 -4.50538,4.78725 -3.23094,7.84608 1.27444,3.05884 4.78725,4.50538 7.84608,3.23094 z m 118,0 c 0.20796,-0.0866 0.69111,-0.27266 1.41466,-0.52563 1.25466,-0.43866 2.68296,-0.8811 4.24914,-1.29539 4.45546,-1.17858 9.06616,-1.88349 13.52763,-1.88349 4.44377,0 8.90214,0.69904 13.1238,1.86609 1.47765,0.40849 2.81258,0.84399 3.9745,1.27477 0.66345,0.24598 1.09768,0.42435 1.2732,0.50281 3.02524,1.35227 6.5739,-0.004 7.92617,-3.02918 1.35227,-3.02523 -0.004,-6.57389 -3.02917,-7.92616 -0.40698,-0.18192 -1.08197,-0.4592 -1.99867,-0.79906 -1.47168,-0.54563 -3.12972,-1.08654 -4.94863,-1.58936 -5.19709,-1.4367 -10.70247,-2.29991 -16.3212,-2.29991 -5.60103,0 -11.20871,0.85734 -16.59637,2.28251 -1.87892,0.49702 -3.60272,1.03099 -5.1408,1.56874 -0.95209,0.33287 -1.65242,0.60251 -2.0694,0.77624 -3.05884,1.27444 -4.50538,4.78725 -3.23094,7.84608 1.27444,3.05884 4.78725,4.50538 7.84608,3.23094 z" />
      <path
         id="path1845"
         fill="#000000"
         fill-rule="nonzero"
         d="m 113.4337,255.50267 26.936,-4.258 c 2.72755,-0.43116 4.58914,-2.99181 4.15797,-5.71937 -0.43116,-2.72755 -2.99181,-4.58914 -5.71937,-4.15798 l -26.936,4.258 c -2.72755,0.43117 -4.58914,2.99182 -4.15797,5.71938 0.43116,2.72755 2.99181,4.58914 5.71937,4.15797 z m 127.9056,-6.867 26.936,4.258 c 2.72756,0.43117 5.28821,-1.43042 5.71937,-4.15797 0.43117,-2.72756 -1.43042,-5.28821 -4.15797,-5.71938 l -26.936,-4.25799 c -2.72756,-0.43117 -5.28821,1.43042 -5.71938,4.15797 -0.43116,2.72756 1.43043,5.28821 4.15798,5.71937 z" />
      <path
         id="path1847"
         fill="#000000"
         fill-rule="nonzero"
         d="m 122.488,246.305 v 28.778 c 0,6.62742 5.37258,12 12,12 6.62742,0 12,-5.37258 12,-12 v -28.778 c 0,-6.62742 -5.37258,-12 -12,-12 -6.62742,0 -12,5.37258 -12,12 z m 113.826,-2.609 v 28.779 c 0,6.62742 5.37258,12 12,12 6.62742,0 12,-5.37258 12,-12 v -28.779 c 0,-6.62742 -5.37258,-12 -12,-12 -6.62742,0 -12,5.37258 -12,12 z" />
      <path
         id="path1849"
         fill="#ebbaaa"
         fill-rule="nonzero"
         d="m 182.02583,274.26908 c -0.33069,2.41123 -0.70425,4.03667 -2.47548,11.15092 -0.4289,1.7227 -0.73328,2.97281 -1.02525,4.22694 -2.16022,9.27881 -2.82757,15.61979 -1.4184,21.49621 2.20784,9.20693 9.51644,14.51185 20.2913,14.51185 v -17 c -1.12599,0 -2.00841,-0.10531 -2.65892,-0.28089 -0.39221,-0.10587 -0.61691,-0.21032 -0.73546,-0.29637 -0.0294,-0.0213 -0.0389,-0.0317 -0.0709,-0.0839 -0.0947,-0.15468 -0.19954,-0.41803 -0.29472,-0.81492 -0.59958,-2.50032 -0.139,-6.87654 1.44428,-13.67727 0.26842,-1.15295 0.5547,-2.32872 0.96445,-3.97454 1.96624,-7.89747 2.36921,-9.65092 2.82141,-12.94818 z" />
      <path
         id="path1851"
         fill="#f2caca"
         fill-rule="nonzero"
         d="m 298.785,311.71901 c -0.432,3.50707 -8.798,8.691 -18.044,6.35487 -9.246,-2.33757 -15.871,-11.30948 -15.439,-14.81655 0.431,-3.50851 9.145,-11.51443 18.391,-9.17829 9.246,2.33613 15.524,14.13147 15.092,17.63997 z m -216.135,4 c 0.431,3.50707 8.797,8.691 18.044,6.35487 9.246,-2.33757 15.871,-11.30948 15.439,-14.81655 -0.432,-3.50851 -9.145,-11.51443 -18.391,-9.17829 -9.247,2.33613 -15.524,14.13147 -15.092,17.63997 z" />
      <path
         id="Combined-Shape"
         fill="#82521a"
         fill-rule="nonzero"
         d="M 25.000024,506.45534 C 21.863602,495.58761 18.386418,480.93364 14.0002,461.165 -9.9999,353 -1.0224,196.063 36,103.165 54,58 107,0 189,0 c 37.5,9.5 12.71,78 0,78 -73,0 -79,103 -104,129.749 -18.083876,19.34902 -8.701182,108.43006 6.392848,187.07775 5.114008,13.4079 8.686622,24.84634 14.574152,32.17325 30.533,38 1.061,65.584 5.533,86.5 -2.38443,-3.2046 -4.4027,-6.1741 -6.1043,-9.05874 -2.77471,9.3119 -5.488651,17.60835 -3.8957,25.05874 -7.291023,-9.79891 -11.158545,-17.39969 -13.017217,-27.09756 1.262245,18.18942 3.078086,35.94739 5.304217,46.36156 -4.900656,-1.47375 -17.247262,-9.3435 -27.882545,-29.06043 -4.763974,17.20352 -6.376706,35.49132 -4.117455,46.06043 -4.968,-1.494 -17.588,-9.561 -28.3203,-29.88 -6.056622,-11.46664 -8.467335,-20.49707 -8.466676,-29.42866 z" />
      <path
         id="path1854"
         fill="#ad6c21"
         fill-rule="nonzero"
         d="m 175.69662,11.064964 c -8.07429,1.314419 -10.63672,1.745727 -13.82395,2.354686 -4.63234,0.885064 -8.13835,1.748972 -11.59972,2.888958 -5.02328,1.654394 -9.94133,3.862924 -18.53908,8.234415 -2.46152,1.25155 -3.4424,4.261588 -2.19085,6.723109 1.25155,2.46152 4.26159,3.442395 6.72311,2.190845 8.18054,-4.159361 12.7058,-6.191503 17.13498,-7.650234 3.00812,-0.990707 6.10939,-1.754885 10.34823,-2.564767 3.05993,-0.584635 5.5849,-1.009639 13.55404,-2.30694 2.72554,-0.443693 4.57535,-3.012869 4.13166,-5.738414 -0.4437,-2.725545 -3.01287,-4.575352 -5.73842,-4.131658 z m 2.45937,18.446884 c -14.01542,0.966581 -20.54715,3.349778 -33.28776,11.236826 -2.34795,1.453488 -3.07304,4.535157 -1.61956,6.883099 1.45349,2.347942 4.53516,3.073041 6.8831,1.619553 11.44926,-7.087636 16.46782,-8.918732 28.71224,-9.763174 2.75488,-0.189992 4.83413,-2.577282 4.64414,-5.332163 -0.18999,-2.75488 -2.57728,-4.834132 -5.33216,-4.644141 z" />
      <path
         id="path1856"
         fill="#82521a"
         fill-rule="nonzero"
         d="m 370.78902,505.4192 c 0.19244,9.27276 -2.16517,18.55462 -8.45602,30.4648 -10.732,20.319 -23.352,28.386 -28.321,29.88 2.27624,-10.64621 0.62354,-29.12413 -4.22146,-46.43673 -10.68148,19.99322 -23.15382,27.95364 -28.08554,29.43673 2.22604,-10.41377 4.04183,-28.17078 5.30407,-46.35946 -1.85862,9.69687 -5.72594,17.29725 -13.01707,27.09546 4.472,-20.916 -36.026,-50 -5.492,-88 2.51643,-3.13192 5.15045,-6.94156 7.96389,-11.29417 C 313.74286,347.60593 324.81331,238.25499 304,201 272,170 280.492,78 207.492,78 c -12.709,0 -41.992,-69 0,-78 82,0 134,58 152,103.165 37.023,92.898 46,249.835 22,358 -4.24825,19.14722 -7.64381,33.49626 -10.70298,44.2542 z" />
    </g>
  </g>
</svg>
