<?xml version="1.0" encoding="UTF-8" standalone="no"?>
<!-- Created with Inkscape (http://www.inkscape.org/) -->

<svg
   width="125.89113mm"
   height="124.52942mm"
   viewBox="0 0 125.89113 124.52942"
   version="1.1"
   id="svg5"
   inkscape:version="1.2.2 (b0a8486541, 2022-12-01)"
   sodipodi:docname="default.svg"
   xmlns:inkscape="http://www.inkscape.org/namespaces/inkscape"
   xmlns:sodipodi="http://sodipodi.sourceforge.net/DTD/sodipodi-0.dtd"
   xmlns="http://www.w3.org/2000/svg"
   xmlns:svg="http://www.w3.org/2000/svg">
  <sodipodi:namedview
     id="namedview7"
     pagecolor="#ffffff"
     bordercolor="#666666"
     borderopacity="1.0"
     inkscape:showpageshadow="2"
     inkscape:pageopacity="0.0"
     inkscape:pagecheckerboard="0"
     inkscape:deskcolor="#d1d1d1"
     inkscape:document-units="mm"
     showgrid="false"
     inkscape:lockguides="false"
     inkscape:zoom="0.84096521"
     inkscape:cx="287.76458"
     inkscape:cy="709.89857"
     inkscape:window-width="1080"
     inkscape:window-height="1853"
     inkscape:window-x="0"
     inkscape:window-y="0"
     inkscape:window-maximized="1"
     inkscape:current-layer="layer1" />
  <defs
     id="defs2">
    <inkscape:path-effect
       effect="simplify"
       id="path-effect10438"
       is_visible="true"
       lpeversion="1"
       steps="1"
       threshold="0.0179452"
       smooth_angles="360"
       helper_size="0"
       simplify_individual_paths="false"
       simplify_just_coalesce="false" />
    <inkscape:path-effect
       effect="simplify"
       id="path-effect9291"
       is_visible="true"
       lpeversion="1"
       steps="1"
       threshold="0.0179452"
       smooth_angles="360"
       helper_size="0"
       simplify_individual_paths="false"
       simplify_just_coalesce="false" />
    <inkscape:path-effect
       effect="simplify"
       id="path-effect10438-0"
       is_visible="true"
       lpeversion="1"
       steps="1"
       threshold="0.0179452"
       smooth_angles="360"
       helper_size="0"
       simplify_individual_paths="false"
       simplify_just_coalesce="false" />
  </defs>
  <g
     inkscape:label="Layer 1"
     inkscape:groupmode="layer"
     id="layer1">
    <path
       style="opacity:1;fill:#000000;fill-opacity:1;stroke:#000000;stroke-width:1;stroke-linejoin:round;stroke-dasharray:none;paint-order:normal;stop-color:#000000"
       id="path11701"
       d="m 16.330751,78.790079 c -0.748772,1.745324 -1.086164,2.467499 -1.777417,4.669711 -2.322776,7.399962 -3.790188,15.066772 -4.7331634,22.75733 -0.3563522,2.90628 -0.5307642,5.83199 -0.7961463,8.74798 -0.023556,0.22862 3.2097007,0.56176 3.2332577,0.33313 v 0 c 0.444216,-2.86058 0.877161,-5.72293 1.332649,-8.58174 0.478664,-3.00427 1.009287,-6.00026 1.469786,-9.007377 0.412601,-2.694334 0.763706,-5.397727 1.149373,-8.096046 0.270418,-1.891972 0.574644,-3.77929 0.818882,-5.67482 0.04548,-0.352971 0.388327,-3.726977 0.506496,-4.886376 0.01851,-0.08511 -1.185205,-0.346908 -1.203717,-0.261792 z" />
    <path
       style="opacity:1;fill:#000000;fill-opacity:1;stroke:#000000;stroke-width:1;stroke-linejoin:round;stroke-dasharray:none;paint-order:normal;stop-color:#000000"
       id="path11703"
       d="m 28.802848,86.701801 c -0.930076,6.666481 -0.408382,3.073797 -1.58564,10.775045 -0.01564,0.165425 2.323817,0.386683 2.339462,0.221258 v 0 c 0.562115,-7.726011 0.215752,-4.136864 0.973653,-10.773548 0.01574,-0.122153 -1.711724,-0.344905 -1.727475,-0.222755 z" />
    <path
       style="opacity:1;fill:#000000;fill-opacity:1;stroke:#000000;stroke-width:1;stroke-linejoin:round;stroke-dasharray:none;paint-order:normal;stop-color:#000000"
       id="path11705"
       d="m 34.538306,98.740655 c -0.935191,3.009215 -0.230717,0.583898 -1.120881,4.261525 -0.210066,0.86787 -0.440484,1.73069 -0.660723,2.59603 -0.01434,0.0687 0.957371,0.27151 0.971712,0.2028 v 0 c 0.211425,-0.86158 0.395734,-1.73028 0.634277,-2.58475 0.390927,-1.40033 0.923253,-2.75872 1.277898,-4.170218 0.02159,-0.07794 -1.080691,-0.383331 -1.102283,-0.305387 z" />
    <path
       style="opacity:1;fill:#000000;fill-opacity:1;stroke:#000000;stroke-width:1;stroke-linejoin:round;stroke-dasharray:none;paint-order:normal;stop-color:#000000"
       id="path11707"
       d="m 43.262264,101.04929 c -1.490276,3.83306 -0.732557,1.44725 -1.706901,6.18876 -1.128948,5.49386 -0.578922,2.06956 -1.279795,7.26892 -0.01291,0.0904 1.264925,0.27296 1.277837,0.1826 v 0 c 0.474464,-2.28611 0.964406,-4.85629 1.619755,-7.08855 0.347385,-1.18327 0.862219,-2.31343 1.202095,-3.49887 0.248208,-0.86572 0.372618,-1.76222 0.558927,-2.64333 0.02896,-0.11822 -1.64296,-0.52775 -1.671918,-0.40953 z" />
    <path
       style="opacity:1;fill:#000000;fill-opacity:1;stroke:#000000;stroke-width:1;stroke-linejoin:round;stroke-dasharray:none;paint-order:normal;stop-color:#000000"
       id="path11709"
       d="m 54.707586,102.79386 c -0.04495,0.52445 -0.162359,1.0477 -0.134859,1.57335 0.04209,0.80444 0.280242,1.58911 0.342334,2.39225 0.07022,0.90828 0.03522,1.82163 0.05385,2.73243 0.01781,0.86959 0.03695,1.73915 0.05543,2.60873 0,0.0686 0.969899,0.0686 0.969899,0 v 0 c 0.01847,-0.86958 0.03764,-1.73914 0.05543,-2.60873 0.01863,-0.9108 -0.01635,-1.82415 0.05386,-2.73243 0.06209,-0.80314 0.300244,-1.58781 0.342334,-2.39225 0.0275,-0.52565 -0.08991,-1.0489 -0.134858,-1.57335 0,-0.11338 -1.603425,-0.11338 -1.603425,0 z" />
    <path
       style="opacity:1;fill:#000000;fill-opacity:1;stroke:#000000;stroke-width:1;stroke-linejoin:round;stroke-dasharray:none;paint-order:normal;stop-color:#000000"
       id="path11711"
       d="m 66.776869,104.54822 c -0.484997,2.28858 -0.416182,4.64251 -0.439444,6.96663 -0.0068,0.0736 1.034309,0.16953 1.041091,0.0959 v 0 c 0.484608,-2.29974 1.070197,-4.61415 0.918786,-6.98726 0.0053,-0.10751 -1.51511,-0.18279 -1.520433,-0.0753 z" />
    <path
       style="opacity:1;fill:#000000;fill-opacity:1;stroke:#000000;stroke-width:1;stroke-linejoin:round;stroke-dasharray:none;paint-order:normal;stop-color:#000000"
       id="path11713"
       d="m 76.553924,108.58533 c -0.641763,2.80271 -0.102417,0.003 -0.382667,3.63566 -0.06002,0.77799 -0.19781,1.54801 -0.296717,2.32202 -0.0085,0.0617 0.864447,0.18241 0.87298,0.12068 v 0 c 0.154585,-0.76223 0.262048,-1.53555 0.463756,-2.28668 0.948563,-3.53232 0.625674,-0.76505 0.828371,-3.62315 0.01191,-0.10506 -1.473806,-0.27359 -1.485723,-0.16853 z" />
    <path
       style="opacity:1;fill:#000000;fill-opacity:1;stroke:#000000;stroke-width:1;stroke-linejoin:round;stroke-dasharray:none;paint-order:normal;stop-color:#000000"
       id="path11715"
       d="m 82.082676,104.38391 c 0.03384,0.55588 0.05855,1.11238 0.101523,1.66762 0.06571,0.84907 0.109501,1.70113 0.224505,2.54493 0.288401,2.11603 0.78187,4.2004 1.08046,6.31502 0.130315,0.92288 0.207036,1.85254 0.310552,2.77881 0.0031,0.0749 1.06204,0.0306 1.05891,-0.0443 v 0 c 0.01513,-1.36261 0.06222,-4.82038 0.03758,-6.08386 -0.02101,-1.07748 -0.02294,-2.15824 -0.132588,-3.23034 -0.158303,-1.54787 -0.506825,-2.74488 -0.880306,-4.20548 -0.0182,-0.12732 -1.818846,0.13023 -1.800635,0.25755 z" />
    <path
       style="opacity:1;fill:#000000;fill-opacity:1;stroke:#000000;stroke-width:1;stroke-linejoin:round;stroke-dasharray:none;paint-order:normal;stop-color:#000000"
       id="path11717"
       d="m 90.083451,98.755932 c 1.088874,3.126028 -0.0181,-0.12096 1.383342,4.335768 0.379384,1.20649 0.863926,2.38231 1.167974,3.60995 0.310285,1.25281 0.447059,2.54232 0.670587,3.81348 0.01312,0.1043 1.488141,-0.0814 1.475009,-0.18571 v 0 c -0.164859,-1.31435 -0.319727,-2.62998 -0.494572,-3.94303 -0.174204,-1.30823 -0.250132,-2.63593 -0.552543,-3.92059 -0.576707,-2.44987 -0.971777,-2.816757 -2.135047,-4.68244 -0.06877,-0.107108 -1.58352,0.86546 -1.51475,0.972572 z" />
    <path
       style="opacity:1;fill:#000000;fill-opacity:1;stroke:#000000;stroke-width:1;stroke-linejoin:round;stroke-dasharray:none;paint-order:normal;stop-color:#000000"
       id="path11719"
       d="m 100.70769,83.292155 c -0.0958,1.53592 -0.19784,2.845705 -0.14261,4.453258 0.0597,1.737061 0.2611,3.466848 0.34094,5.2031 0.15447,3.359044 0.26518,9.839287 0.33332,13.168917 0.002,0.17758 2.51322,0.15152 2.51138,-0.0261 v 0 c -0.0397,-9.238197 0.0505,-4.16499 -0.25598,-13.249135 -0.059,-1.749192 -0.0383,-3.502578 -0.16999,-5.247807 -0.0596,-0.790024 -0.48604,-3.2103 -0.68432,-4.362204 -0.004,-0.136665 -1.93698,-0.07673 -1.93274,0.05994 z" />
    <path
       style="opacity:1;fill:#000000;fill-opacity:1;stroke:#000000;stroke-width:1;stroke-linejoin:round;stroke-dasharray:none;paint-order:normal;stop-color:#000000"
       id="path11721"
       d="m 111.58787,89.7106 c 0.0342,0.723366 0.0408,1.448552 0.10244,2.170099 0.11584,1.356985 0.34202,2.70401 0.42969,4.063106 0.16305,2.527829 0.23536,8.829375 0.27542,11.238625 0.002,0.1557 2.20437,0.12021 2.20186,-0.0355 v 0 c -0.18757,-8.638152 0.0457,-3.17604 -0.55822,-11.34162 -0.10227,-1.382842 -0.11554,-2.773405 -0.2764,-4.150661 -0.0852,-0.729129 -0.30661,-1.435796 -0.45991,-2.153693 -0.0148,-0.121261 -1.7297,0.08836 -1.71488,0.209624 z" />
    <path
       style="opacity:1;fill:#000000;fill-opacity:1;stroke:#000000;stroke-width:1;stroke-linejoin:round;stroke-dasharray:none;paint-order:normal;stop-color:#000000"
       id="path11723"
       d="m 117.55401,80.768279 c -0.2149,3.222972 -0.34284,6.43767 -0.2562,9.670126 0.0572,2.132317 0.27423,4.259456 0.29529,6.392434 0.0453,4.590871 -0.28627,9.521001 -0.52903,14.104581 -0.0104,0.1861 2.62142,0.33284 2.6318,0.14674 v 0 c 0.74714,-9.37915 0.51673,-4.75009 0.71151,-14.281801 0.0441,-2.158778 0.18038,-4.31777 0.12937,-6.476399 -0.0765,-3.239177 -0.62837,-6.44742 -1.0989,-9.643771 -0.006,-0.133208 -1.89006,-0.04512 -1.88384,0.08809 z" />
    <path
       style="opacity:1;fill:#000000;fill-opacity:1;stroke:#000000;stroke-width:1;stroke-linejoin:round;stroke-dasharray:none;paint-order:normal;stop-color:#000000"
       id="path11745"
       d="m 11.67884,8.8858555 c -0.287572,0.8665569 -0.653358,1.7109705 -0.862718,2.5996705 -0.8230308,3.493615 -1.288788,8.14525 -1.3953296,11.551876 -0.195675,6.256624 0.1573461,12.263851 0.8897076,18.477821 0.317573,2.694556 0.832599,5.362159 1.248899,8.043238 1.709875,6.540272 0.560175,3.902061 2.820703,8.159744 0.01735,0.06892 0.992076,-0.176472 0.974724,-0.245396 v 0 C 14.999965,52.99484 15.221614,55.73011 14.673255,49.268358 13.91509,37.850153 14.300929,44.400353 13.702545,32.087568 13.532926,28.597378 13.069502,20.076054 13.009423,16.170381 12.974795,13.919215 13.145275,11.668396 13.105272,9.4167644 13.142813,9.3159005 11.716381,8.7849915 11.67884,8.8858555 Z" />
    <path
       style="opacity:1;fill:#000000;fill-opacity:1;stroke:#000000;stroke-width:1;stroke-linejoin:round;stroke-dasharray:none;paint-order:normal;stop-color:#000000"
       id="path11747"
       d="m 31.828073,3.6077445 c -0.460523,3.2748323 -0.692857,4.2385416 -0.679754,7.8760805 0.0067,1.856855 0.178493,3.709445 0.271166,5.563999 0.09002,1.801544 0.156109,3.604544 0.276913,5.404287 0.259704,3.869153 0.332692,4.102589 0.767908,7.451764 0.123304,0.296714 0.246605,0.593431 0.369908,0.890148 -1.64e-4,0.02365 0.334511,0.02598 0.334675,0.0024 v 0 c 0.128227,-0.301858 0.256458,-0.603718 0.384685,-0.905579 0.09761,-0.974566 0.236913,-1.945854 0.292815,-2.923701 0.212992,-3.725863 0.10311,-6.147513 0.145378,-9.95035 0.02053,-1.847213 0.138893,-3.693744 0.111228,-5.540864 -0.05448,-3.6373471 -0.245724,-4.5395611 -0.665364,-7.8078863 0.0043,-0.1138131 -1.605301,-0.1740233 -1.609558,-0.06021 z" />
    <path
       style="opacity:1;fill:#000000;fill-opacity:1;stroke:#000000;stroke-width:1;stroke-linejoin:round;stroke-dasharray:none;paint-order:normal;stop-color:#000000"
       id="path11749"
       d="m 52.117963,3.0487363 c -0.15381,0.5483839 -0.33279,1.0903236 -0.461428,1.6451522 -0.214003,0.9230158 -0.396695,1.8533305 -0.565851,2.7856079 -0.79887,4.4027946 -1.393254,8.4851836 -0.69582,12.9669686 0.171426,1.101606 0.561147,2.157964 0.841722,3.236945 0.585599,0.491426 1.013822,1.294251 1.756801,1.474278 2.168795,0.525511 4.631997,-1.808802 5.843474,-2.916277 1.322379,-1.208859 2.462408,-2.603199 3.693615,-3.904799 0.07773,-0.1139 -1.533062,-1.213235 -1.610797,-1.099335 v 0 c -1.062381,1.351002 -2.072737,2.744585 -3.187141,4.053006 -0.805609,0.945868 -1.604762,1.916474 -2.5668,2.702702 -0.442174,0.361369 -1.012293,0.791349 -1.572405,0.680075 -0.520677,-0.10344 -0.697723,-0.80025 -1.046584,-1.200375 -0.121904,-1.015463 -0.345133,-2.023843 -0.365707,-3.04639 -0.05689,-2.827427 0.461116,-5.831341 0.737413,-8.623489 0.134543,-1.359655 0.234532,-2.7225823 0.334377,-4.0852251 0.220642,-3.0112076 0.193845,-2.1450326 0.122275,-4.5811704 0.0062,-0.088893 -1.250945,-0.1765676 -1.257144,-0.087674 z" />
    <path
       style="opacity:1;fill:#000000;fill-opacity:1;stroke:#000000;stroke-width:1;stroke-linejoin:round;stroke-dasharray:none;paint-order:normal;stop-color:#000000"
       id="path11751"
       d="m 74.881607,7.0063965 c -0.293505,0.3102107 -0.633537,0.5822386 -0.880512,0.9306319 -0.495097,0.6983966 -0.91871,1.4459725 -1.334686,2.1941976 -1.213344,2.182474 -2.091867,3.987385 -2.898595,6.371953 -0.338984,1.001986 -0.693049,2.014558 -0.825944,3.063952 -0.08194,0.647061 0.127547,1.298207 0.19132,1.947311 0.357653,0.144025 0.715306,0.28805 1.072957,0.432075 0.01968,0.01162 0.183999,-0.26692 0.164303,-0.278538 v 0 c -0.186877,-0.04569 -0.373758,-0.09139 -0.560636,-0.137085 0.09867,-0.556216 0.142886,-1.124895 0.295998,-1.66865 1.227452,-4.359138 3.381464,-8.411692 5.607245,-12.3269295 0.0374,-0.058792 -0.794049,-0.5877103 -0.83145,-0.528918 z" />
    <path
       style="opacity:1;fill:#000000;fill-opacity:1;stroke:#000000;stroke-width:1;stroke-linejoin:round;stroke-dasharray:none;paint-order:normal;stop-color:#000000"
       id="path11753"
       d="m 87.488653,9.7614522 c -0.716759,3.6014708 0.03199,-0.4790877 -0.605118,4.7116278 -0.155596,1.267711 -0.422886,2.520396 -0.567708,3.789383 -0.212344,1.860625 -0.630587,4.786227 0.103722,6.723445 0.187166,0.493773 0.722857,0.769969 1.084283,1.154953 0.01773,0.02982 0.439513,-0.22081 0.421791,-0.250635 v 0 c -0.822555,-1.629803 -0.629885,-0.871102 -0.413575,-3.583642 0.04789,-0.600549 0.827585,-7.048337 0.916463,-7.665966 0.145886,-1.013801 0.40181,-2.011347 0.514133,-3.029413 0.06424,-0.582249 0.0093,-1.171527 0.01397,-1.7572897 0.0065,-0.1038013 -1.461434,-0.1962645 -1.467971,-0.092463 z" />
    <path
       style="opacity:1;fill:#000000;fill-opacity:1;stroke:#000000;stroke-width:1;stroke-linejoin:round;stroke-dasharray:none;paint-order:normal;stop-color:#000000"
       id="path11755"
       d="m 103.63376,11.285605 c -0.097,0.476537 -0.19912,0.952056 -0.29098,1.42961 -0.14363,0.746734 -0.25286,1.500281 -0.41545,2.243115 -0.5723,2.614587 -0.75304,2.604506 -1.17278,5.19692 -0.10097,0.62362 -0.13423,1.256333 -0.20134,1.884499 -0.007,0.04883 0.68327,0.152897 0.69063,0.104062 v 0 c 0.44934,-1.755976 0.63453,-2.430156 1.0534,-4.321132 0.19763,-0.892214 0.34629,-1.795233 0.56056,-2.683598 0.2959,-1.226783 0.73595,-2.416431 0.97304,-3.65871 0.0138,-0.08465 -1.1833,-0.279412 -1.19708,-0.194766 z" />
    <path
       style="opacity:1;fill:#000000;fill-opacity:1;stroke:#000000;stroke-width:1;stroke-linejoin:round;stroke-dasharray:none;paint-order:normal;stop-color:#000000"
       id="path11757"
       d="m 112.45314,8.2093098 c 0.0193,0.4732938 8e-5,0.9497412 0.0579,1.4198809 0.10734,0.8720593 0.34546,1.7256013 0.43678,2.5994833 0.31413,3.005902 0.21147,5.021966 0.3367,8.071335 0.0487,1.186365 0.14546,2.370271 0.21819,3.555407 0.001,0.09371 1.32647,0.07763 1.32533,-0.01608 v 0 c 0.0383,-1.194697 0.12371,-2.38881 0.11505,-3.584091 -0.0209,-2.888101 -0.25731,-5.307654 -0.4411,-8.172112 -0.0571,-0.889577 -0.0452,-1.784876 -0.15139,-2.6699293 -0.0575,-0.4792033 -0.22539,-0.9386057 -0.33808,-1.4079083 -0.0144,-0.1102688 -1.57386,0.093749 -1.55943,0.2040173 z" />
    <path
       style="opacity:1;fill:#000000;fill-opacity:1;stroke:#000000;stroke-width:1;stroke-linejoin:round;stroke-dasharray:none;paint-order:normal;stop-color:#000000"
       id="path11759"
       d="m 123.56398,17.161206 c -1.18849,4.938578 0.38734,-1.358144 -1.66578,5.633053 -0.43348,1.476065 -0.79096,2.973395 -1.18643,4.460091 -0.0227,0.118547 1.6538,0.439114 1.67647,0.32057 v 0 c 0.28704,-1.496393 0.5754,-2.99253 0.8611,-4.489178 0.82592,-4.326676 0.26588,-2.430878 1.40043,-5.607787 0.0224,-0.07678 -1.06339,-0.393526 -1.08579,-0.316749 z" />
    <path
       style="opacity:1;fill:#000000;fill-opacity:1;stroke:#000000;stroke-width:1;stroke-linejoin:round;stroke-dasharray:none;paint-order:normal;stop-color:#000000"
       id="path11761"
       d="m 120.35015,47.172445 c -0.39057,2.461837 -0.42998,2.586501 -0.7801,5.709013 -0.22097,1.970749 -0.3649,3.950007 -0.60811,5.918134 -0.28671,2.320134 -2.37278,16.984511 -2.60353,18.615657 -0.0256,0.265872 3.73439,0.628004 3.76,0.362132 v 0 c 1.04144,-11.778133 0.81102,-7.837953 1.36322,-18.821346 0.19613,-3.901065 0.44707,-7.821073 0.20332,-11.727702 0.004,-0.09438 -1.33085,-0.150272 -1.3348,-0.05589 z" />
    <path
       style="opacity:1;fill:#000000;fill-opacity:1;stroke:#000000;stroke-width:1;stroke-linejoin:round;stroke-dasharray:none;paint-order:normal;stop-color:#000000"
       id="path11889"
       d="M 2.5771952,3.3683834 C 5.149693,3.7597786 7.7524728,3.5029759 10.33062,3.3417951 13.181009,3.1635946 14.413915,3.1451579 17.418187,3.0413219 23.798536,2.7957348 20.21285,2.8971973 27.012561,2.7959888 c 1.709404,-0.025442 3.418597,-0.090895 5.128154,-0.080079 1.971252,0.012472 3.941046,0.1119619 5.911972,0.1499251 17.189489,0.3310993 -9.429576,-0.2887345 10.96065,0.2051143 16.549407,0.2137923 -5.097497,-0.096875 11.377705,0.2395302 1.788655,0.036522 3.577926,0.032833 5.366753,0.059577 5.112316,0.076431 7.459334,0.1774359 12.810484,0.1835446 1.965378,0.00225 3.930528,-0.042685 5.895792,-0.064028 1.510716,0.00586 3.021423,0.014258 4.532146,0.01759 1.646344,0.00363 3.292824,-0.01738 4.939043,0.0033 5.185085,0.065147 10.36234,0.3813027 15.54595,0.4913304 2.10729,0.019926 2.48441,0.044244 4.37839,-3.704e-4 0.29751,-0.00701 0.60026,0.02149 0.89199,-0.037277 0.0464,-0.00936 0.0124,-0.096805 -0.002,-0.1421071 -0.44223,-1.4466528 -0.445,-0.7912233 -0.41525,-1.4674665 -0.84841,0.4358542 -0.47227,0.9583131 0.34212,2.2636146 0.14451,0.2316168 2.30569,0.2910943 2.61368,0.302428 0.47894,-0.00717 0.95838,0.00185 1.43679,-0.021508 0.0979,-0.00478 1.31259,-0.1103712 1.28073,-0.4282983 -0.21382,-2.1341184 0.0175,-2.001854 -0.97742,-2.0993342 0.11859,0.2115446 -0.57608,-0.1749395 -0.54044,0.00165 0.15389,0.7623276 0.2542,1.5807527 0.67919,2.2320679 0.0623,0.095525 1.85346,-0.2359022 2.07138,-0.2812772 0.0464,-0.1404419 0.50186,-0.011734 0.58983,-0.1997517 0.0265,-0.056559 -0.0205,-0.1253029 -0.0492,-0.1807538 -0.2367,-0.4570822 -0.39494,-0.9751803 -0.74487,-1.3526749 -0.0978,-0.1054989 -0.28029,0.064957 -0.42097,0.094984 -0.24574,0.052449 -0.49217,0.1016217 -0.73825,0.1524328 -1.18937,0.097095 -2.38902,0.2582733 -3.58393,0.1560938 0.0561,0.1403451 0.0874,0.2933989 0.16831,0.4210349 0.0809,0.1275615 0.21023,0.217193 0.30898,0.3314967 0.27045,0.3130333 0.51247,0.6485771 0.78429,0.9608249 0.005,0.00752 0.11098,-0.058052 0.10634,-0.065571 v 0 c -0.2685,-0.3940201 -0.6617,-1.0925162 -1.06159,-1.3398296 -0.12256,-0.075801 -0.27586,-0.083496 -0.41379,-0.1252434 0.63153,0.3988146 1.37203,0.4428294 2.09739,0.5054838 1.22676,0.1059632 0.70612,0.093855 1.90158,0.024032 0.26813,-0.00394 0.5363,-0.00572 0.80439,-0.011814 0.16295,-0.0037 0.46869,0.1441921 0.48867,-0.017574 0.0595,-0.4818041 -0.19069,-0.9524709 -0.31079,-1.4228431 -0.0165,-0.064704 -0.0417,-0.1380944 -0.0972,-0.1751583 -0.13168,-0.087856 -0.61019,-0.041616 -0.68117,-0.039793 -0.22768,0.011201 -2.03666,0.1327923 -2.08722,0.2457036 -1.08497,2.4226851 -1.0667,2.3485182 0.009,2.3919625 0.98672,0.014989 0.003,0.092899 0.22121,-2.0033429 0.0123,-0.1185678 0.26054,-0.095842 0.28814,-0.2118097 0.008,-0.035026 -0.59171,-0.028865 -0.8328,-0.07009 -0.55562,-0.0018 -1.11133,-0.018191 -1.66685,-0.0074 -0.18629,0.00362 -0.49482,-0.1440792 -0.55811,0.03117 -0.2136,0.5914635 -0.14136,1.2530829 -0.13276,1.8818742 0.002,0.1812203 0.66177,-0.7065886 0.4614,-0.2876346 0.14006,-0.1804345 0.40375,-0.3134802 0.42018,-0.5413031 0.0381,-0.5276988 -0.0729,-1.0727073 -0.26833,-1.5643609 -0.16261,-0.4093307 -1.23127,-0.6721134 -1.46863,-0.7246726 -1.33008,-0.29451882 -2.96547,-0.41033824 -4.2775,-0.54522055 -3.66873,-0.28638322 -7.34085,-0.52108304 -11.01253,-0.76727239 -1.689012,-0.11324979 -7.844549,-0.51374151 -9.377193,-0.55984216 -2.251739,-0.0677305 -4.505216,-0.0519922 -6.757826,-0.0779883 -16.363449,0.006383 3.486418,-0.0512645 -10.889109,0.13061473 -7.439671,0.0941268 -14.875177,-0.30047276 -22.311254,-0.46671253 -2.627117,-0.023717 -10.785594,-0.1097208 -13.15189,-0.076165 -1.960184,0.027797 -3.918209,0.1418101 -5.877605,0.2039615 -1.723416,0.0546662 -3.448433,0.0647267 -5.170776,0.14648966 -3.493512,0.16584366 -6.122807,0.43268992 -9.570812,0.73938814 C 5.5995728,1.3260621 18.155744,-0.35740985 9.4721234,0.88353941 8.0400783,1.0881885 6.6059213,1.2778309 5.1720575,1.4693231 4.6730067,1.5359713 4.1665194,1.5513003 3.6719129,1.6454182 3.4421061,1.6891478 3.2311062,1.8022087 3.010703,1.8806039 2.9055009,1.8499503 2.4719933,3.3377298 2.5771952,3.3683834 Z" />
    <path
       style="opacity:1;fill:#000000;fill-opacity:1;stroke:#000000;stroke-width:1;stroke-linejoin:round;stroke-dasharray:none;paint-order:normal;stop-color:#000000"
       id="path11893"
       d="m 7.8260735,121.22224 c 1.0150293,0.22147 2.0168857,0.51564 3.0450875,0.66442 1.75821,0.2544 3.532373,0.38465 5.301792,0.54335 8.415401,0.75479 9.040356,0.76245 18.026935,1.04883 15.182585,0.48381 11.973583,0.35713 27.42857,0.31842 4.70439,-0.2198 9.411102,-0.39456 14.113172,-0.65941 4.717317,-0.26571 9.432985,-0.56769 14.143701,-0.93221 10.958149,-0.84796 12.548739,-1.3393 22.957839,-1.85226 2.18497,-0.10768 4.37543,-0.19124 6.56181,-0.11762 1.81209,0.061 3.60958,0.34722 5.41437,0.52084 0.98951,0.28419 1.99041,0.53136 2.96853,0.85257 0.38619,0.12683 0.74431,0.32701 1.11705,0.48915 0.10678,0.0464 -0.22007,-0.0808 -0.31913,-0.14204 -0.23963,-0.14801 -0.49117,-0.28693 -0.69315,-0.48323 -0.8774,-0.8527 -0.76842,-0.9722 -1.17738,-2.12088 0.006,-0.41484 -0.0556,-0.83605 0.017,-1.24452 0.14707,-0.82686 0.64172,-1.7764 1.37393,-2.23221 0.0193,-0.012 0.0647,0.0341 0.0475,0.049 -0.15101,0.13136 -0.32989,0.22673 -0.49484,0.3401 -0.3605,0.16693 -0.72101,0.33386 -1.08152,0.50079 -0.0241,0.02 0.25907,0.36093 0.28318,0.3409 v 0 c 0.32865,-0.23317 0.6573,-0.46635 0.98596,-0.69952 0.1225,-0.18191 0.34561,-0.3275 0.3675,-0.54571 0.0116,-0.11562 -0.17977,-0.20862 -0.29399,-0.1873 -0.91907,0.17156 -1.61568,1.66383 -1.75583,2.42627 -0.086,0.46801 -0.0173,0.95154 -0.026,1.4273 0.36111,0.96418 0.49074,1.80655 1.44232,2.41217 0.0956,0.0609 2.00634,0.94663 1.91133,-0.31566 -0.11126,-1.47818 -3.08671,-2.82249 -3.60729,-3.16186 -1.7759,-0.62034 -3.48654,-1.47533 -5.3277,-1.86102 -5.92162,-1.24045 -14.09887,-1.51104 -19.98589,-1.46325 -4.251213,0.0345 -8.498062,0.2913 -12.74414,0.50308 -4.697918,0.23431 -9.391023,0.55676 -14.086535,0.83514 -4.661657,0.23216 -9.323314,0.46431 -13.98497,0.69647 -5.798212,0.32347 -17.927818,1.02766 -24.253521,1.28939 -20.203263,0.83592 -0.660082,-0.22216 -18.467279,0.84238 -1.835594,0.10974 -3.675299,0.16035 -5.507529,0.3165 -1.106932,0.0943 -2.2029276,0.28965 -3.3043915,0.43448 -0.08253,-0.028 -0.4790905,1.13911 -0.3965604,1.16715 z" />
    <path
       style="opacity:1;fill:#000000;fill-opacity:1;stroke:#000000;stroke-width:1;stroke-linejoin:round;stroke-dasharray:none;paint-order:normal;stop-color:#000000"
       id="path11895"
       d="M 4.718106,6.4899558 C 2.9203671,11.898581 2.6322907,17.704381 2.4322786,23.352956 c -0.2583247,7.29539 -0.1187847,10.657308 -0.017302,18.02091 0.062927,2.726378 0.1258532,5.452753 0.1887798,8.179131 -3.837e-4,0.214611 3.0346896,0.220025 3.0350722,0.0054 v 0 C 5.7133407,46.827336 5.7878529,44.096254 5.8623649,41.365172 5.9274638,33.023048 5.976059,24.678977 5.866331,16.336786 5.8430344,14.56556 5.7756064,12.795166 5.7415093,11.024116 5.6936586,8.5386936 5.7027823,8.6059871 5.7198929,6.6472934 5.7310186,6.5764565 4.7292326,6.4191295 4.7181079,6.4899664 Z" />
    <path
       style="opacity:1;fill:#000000;fill-opacity:1;stroke:#000000;stroke-width:1;stroke-linejoin:round;stroke-dasharray:none;paint-order:normal;stop-color:#000000"
       id="path11901"
       d="m 3.4982184,47.388684 c -0.1219459,1.207855 -0.196659,1.638155 -0.131172,3.031061 0.029633,0.630288 0.6062803,6.277166 0.6102033,6.319986 1.5249228,16.644691 -0.7967332,-7.73199 0.9812012,10.772323 0.1361564,2.13085 0.2874401,4.260791 0.4084695,6.392555 0.2938397,5.175581 0.4453798,7.226554 0.2584202,12.369448 -0.1794209,4.935514 -0.7965501,9.835184 -1.3899835,14.732593 -0.3683365,2.66015 -0.8021095,5.31057 -1.1790982,7.96943 -0.105756,0.74589 -0.2047356,1.43751 -0.2346237,2.18204 -0.010396,0.15201 -0.012375,0.30483 -0.031185,0.45603 -0.016296,0.13098 -0.049298,0.25934 -0.073946,0.38902 -0.031303,0.25575 -0.06877,0.51082 -0.09391,0.76726 -0.09895,1.00931 -0.1225121,2.02176 -0.1491305,3.03481 0.03965,1.33844 -0.3583224,2.61564 -0.5270419,3.93167 -0.092222,1.64258 -0.134314,3.38577 0.4407402,4.9588 0.1928158,0.52743 0.3812289,0.75473 0.6755654,1.17607 0.3958823,0.18633 0.5842339,0.40015 0.9881955,-0.17823 0.032849,-0.047 -0.1603868,-0.79579 -0.1711064,-0.96513 -0.045817,-0.72378 0.057397,-0.90944 0.2247924,-1.63832 0.2455947,-0.76331 0.7763383,-1.4073 1.0309429,-2.16532 0.034553,-0.10287 -0.054722,-0.2784 0.044431,-0.32251 0.089272,-0.0397 -0.036544,0.21533 0.023831,0.29215 0.067253,0.0856 0.2016347,0.082 0.3024521,0.123 0.8916006,-0.0953 1.4455394,-0.85874 1.9597407,-1.51021 0.012435,-0.0209 -0.2828902,-0.19674 -0.2953248,-0.17585 v 0 c -0.4126325,0.59184 -0.8538554,1.3198 -1.5806129,1.55975 -0.073937,-0.0325 -0.151652,-0.0575 -0.2218121,-0.0975 -0.1364752,-0.0778 -0.2394225,-0.24786 -0.3963707,-0.25505 -0.093084,-0.004 -0.1043162,0.15449 -0.1595167,0.22956 -0.5119905,0.69629 -1.0208009,1.38902 -1.3167847,2.21439 -0.1812488,0.93012 -0.2566974,0.9397 -0.1726152,1.84094 0.015224,0.16319 0.082826,0.31807 0.1038058,0.48062 0.0089,0.069 -0.078952,0.18096 -0.01492,0.20807 0.2005808,0.0849 0.4507301,-0.0783 0.6523421,0.038 -0.00865,-0.59234 -0.011131,-0.23414 0.032041,-1.07415 0.00127,-1.54399 -0.2844477,-3.07418 -0.2687326,-4.61958 0.00523,-0.3423 -0.00803,-0.98072 0.065916,-1.3575 0.031331,-0.15964 0.1009068,-0.30949 0.1432869,-0.46656 0.1928622,-0.71481 0.3146595,-1.44709 0.3564242,-2.18667 0.02391,-1.0046 0.058676,-2.01044 0.036648,-3.01544 -2.484e-4,-0.0113 -0.037639,-1.11514 -0.074368,-1.27196 -0.010372,-0.0443 -0.030073,0.0858 -0.04511,0.12877 0.4547182,-0.73649 0.6707296,-1.49438 0.9108265,-2.33333 0.7500234,-2.62076 1.4065293,-5.27 1.9822078,-7.93414 C 7.4926154,100.04367 7.830215,98.677037 8.0711721,97.291846 9.8191306,87.243294 9.8691596,77.258168 8.5107387,67.15525 8.2350969,65.23157 8.0044519,63.300903 7.6838132,61.384208 7.058929,57.648813 6.1832791,53.94734 5.3780718,50.247322 5.24511,49.636349 5.0849736,49.031215 4.964558,48.417643 4.8978303,48.077638 4.8662214,47.731671 4.8170531,47.388684 c 0,-0.09326 -1.3188358,-0.09326 -1.3188358,0 z" />
    <path
       style="opacity:1;fill:#000000;fill-opacity:1;stroke:#000000;stroke-width:1;stroke-linejoin:round;stroke-dasharray:none;paint-order:normal;stop-color:#000000"
       id="path11905"
       d="m 121.60134,3.4924846 c -0.343,2.1335092 -0.42411,2.4139231 -0.60148,4.9862462 -0.0986,1.4290966 -0.12819,2.8621192 -0.19807,4.2929032 -0.0902,1.846171 -0.18806,3.691958 -0.28208,5.537937 -0.0696,2.051125 -0.11829,4.103064 -0.20874,6.153375 -0.10011,2.269114 -0.24194,4.536197 -0.36291,6.804292 -0.74854,15.973478 0.14799,-2.515097 -0.72003,13.439108 -0.11053,2.031484 -0.15736,4.06645 -0.29209,6.096474 -0.13348,2.011259 -0.35361,4.015888 -0.51241,6.025308 -1.05863,13.39523 0.26461,-2.182381 -0.81006,10.253594 -0.37984,3.78134 -0.74134,7.578077 -0.84891,11.379742 -0.0615,2.172859 0.0502,4.338362 0.22032,6.502683 0.17335,4.490437 -0.0264,8.981887 -0.0278,13.473906 -0.005,2.917427 -0.27993,5.831267 -0.0994,8.748727 0.10183,1.64597 0.2123,2.05307 0.48118,3.61434 0.3275,1.80864 0.80819,3.59764 1.00414,5.42918 0.0993,0.92789 0.096,1.7029 0.11493,2.63089 0.007,1.11906 -0.18878,2.22685 -0.0915,3.34609 0.0304,0.34968 0.12429,1.01846 0.3279,1.04001 0.2495,0.0264 0.47654,-0.15717 0.71482,-0.23575 -0.2323,-1.50468 -0.002,-2.83924 0.98343,-4.03651 0.16757,-0.20357 0.37389,-0.37187 0.56083,-0.5578 0.0743,-0.0245 0.78707,-0.66305 0.98567,-0.40742 0.0896,0.11535 -0.54123,0.53205 -0.58758,0.56568 -0.14514,0.0877 -0.49361,0.33893 -0.6998,0.31745 -0.77517,-0.0808 -0.0326,-2.37811 0.0289,-2.61902 0.005,-0.0318 -0.44503,-0.10642 -0.45031,-0.0746 v 0 c -0.0785,0.54578 -0.5746,2.71455 0.49815,2.84075 0.23037,0.0271 0.60203,-0.22044 0.77538,-0.31662 0.1497,-0.12015 0.83353,-0.58234 0.5324,-0.89553 -0.33703,-0.35053 -1.1946,0.10835 -1.46199,0.2686 -0.23146,0.19235 -0.48755,0.35841 -0.69437,0.57703 -1.20699,1.2759 -1.67939,3.089 -1.12079,4.75958 0.31781,0.0188 0.64304,0.12715 0.95342,0.0563 0.3734,-0.0852 0.65959,-0.83812 0.7409,-1.06974 0.40365,-1.14987 0.41966,-2.37346 0.48055,-3.5756 10e-4,-0.47397 0.025,-0.94842 0.004,-1.42192 -0.10425,-2.33545 -0.70111,-4.60444 -1.0338,-6.90871 -0.36982,-4.00471 -0.41569,-8.02656 -0.11197,-12.038711 0.13777,-4.538798 -0.0424,-9.071452 -0.2785,-13.60483 -0.0105,-1.24976 -0.0402,-2.515939 0.037,-3.763928 0.28445,-4.599321 1.20042,-9.125958 1.66729,-13.704909 0.29668,-2.378697 1.01768,-8.027913 1.23057,-10.303073 0.18933,-2.023491 0.29658,-4.053843 0.45468,-6.080014 0.15914,-2.039435 0.36356,-4.075467 0.49704,-6.116743 0.15031,-2.298443 0.55109,-11.237079 0.65665,-13.527736 0.0363,-4.263988 0.11708,-8.787663 -0.003,-13.060455 -0.0522,-1.8547 -0.16919,-3.707049 -0.26884,-5.559804 -0.16658,-3.0970047 -0.32756,-6.2058448 -0.90289,-9.2608224 0,-0.09055 -1.28058,-0.09055 -1.28058,0 z" />
  </g>
</svg>
