<?xml version="1.0" encoding="UTF-8" standalone="no"?>
<!-- Created with Inkscape (http://www.inkscape.org/) -->

<svg
   width="125.89113mm"
   height="124.52942mm"
   viewBox="0 0 125.89113 124.52942"
   version="1.1"
   id="svg5"
   inkscape:version="1.2.2 (b0a8486541, 2022-12-01)"
   sodipodi:docname="panel.svg"
   xmlns:inkscape="http://www.inkscape.org/namespaces/inkscape"
   xmlns:sodipodi="http://sodipodi.sourceforge.net/DTD/sodipodi-0.dtd"
   xmlns="http://www.w3.org/2000/svg"
   xmlns:svg="http://www.w3.org/2000/svg">
  <sodipodi:namedview
     id="namedview7"
     pagecolor="#ffffff"
     bordercolor="#666666"
     borderopacity="1.0"
     inkscape:showpageshadow="2"
     inkscape:pageopacity="0.0"
     inkscape:pagecheckerboard="0"
     inkscape:deskcolor="#d1d1d1"
     inkscape:document-units="mm"
     showgrid="false"
     inkscape:lockguides="false"
     inkscape:zoom="1.1893044"
     inkscape:cx="223.23974"
     inkscape:cy="443.95699"
     inkscape:window-width="1080"
     inkscape:window-height="1853"
     inkscape:window-x="0"
     inkscape:window-y="0"
     inkscape:window-maximized="1"
     inkscape:current-layer="layer1" />
  <defs
     id="defs2">
    <inkscape:path-effect
       effect="simplify"
       id="path-effect10438"
       is_visible="true"
       lpeversion="1"
       steps="1"
       threshold="0.0179452"
       smooth_angles="360"
       helper_size="0"
       simplify_individual_paths="false"
       simplify_just_coalesce="false" />
    <inkscape:path-effect
       effect="simplify"
       id="path-effect9291"
       is_visible="true"
       lpeversion="1"
       steps="1"
       threshold="0.0179452"
       smooth_angles="360"
       helper_size="0"
       simplify_individual_paths="false"
       simplify_just_coalesce="false" />
    <inkscape:path-effect
       effect="simplify"
       id="path-effect10438-0"
       is_visible="true"
       lpeversion="1"
       steps="1"
       threshold="0.0179452"
       smooth_angles="360"
       helper_size="0"
       simplify_individual_paths="false"
       simplify_just_coalesce="false" />
  </defs>
  <g
     inkscape:label="Layer 1"
     inkscape:groupmode="layer"
     id="layer1">
    <path
       style="fill:#000000;fill-opacity:1;stroke:none;stroke-width:1;stroke-linejoin:round;stop-color:#000000"
       id="path21676"
       d="m 5.8270825,14.07503 c -0.093719,2.055207 -0.1619769,3.145395 -0.1497944,5.392431 0.02718,5.013287 0.1889447,8.212374 0.4749805,13.390029 0.3383828,6.125204 0.99172,15.97389 1.3768795,21.925721 0.6605222,12.838084 1.3539702,25.685179 1.3873165,38.544653 0.00989,3.812943 -0.067372,13.235826 -0.6737218,17.619176 -0.1812832,1.31051 -0.6857158,2.55558 -1.0285735,3.83337 -0.4375798,0.17161 -0.9350304,0.79457 -1.3127392,0.51482 C 4.5963199,114.3286 3.4642787,108.93958 3.3330845,108.2773 2.6257601,104.70671 2.2098071,100.21049 2.1406614,96.580861 2.1047459,94.69557 2.2356549,92.810789 2.2831517,90.925752 2.4756733,86.370159 3.5496211,81.949051 4.568776,77.530263 c 0.00306,-0.01585 -0.2209641,-0.05908 -0.2240211,-0.04324 v 0 c -1.0250194,4.432688 -2.1185191,8.866131 -2.3608104,13.432041 -0.052962,1.892723 -0.193462,3.785018 -0.1588854,5.678164 0.067838,3.714272 0.4847649,8.094732 1.2623087,11.737052 0.1890443,0.88556 1.3516703,6.05796 2.8600514,7.03535 0.4409985,0.28575 0.9881767,-0.35784 1.4822651,-0.53676 0.4063921,-1.28605 0.9940764,-2.52835 1.2191762,-3.85817 C 9.4155555,106.4453 9.5736253,97.358477 9.5963006,93.319377 9.6685551,80.44881 9.0027756,67.585256 8.2243016,54.743574 7.9472334,50.847265 7.6749054,46.950614 7.3930972,43.054645 6.6956206,33.412112 5.8159615,23.756551 5.9165222,14.07889 c 2.646e-4,-0.0063 -0.089167,-0.01018 -0.08944,-0.0039 z" />
    <path
       style="fill:#000000;fill-opacity:1;stroke:none;stroke-width:1;stroke-linejoin:round;stop-color:#000000"
       id="path21678"
       d="m 15.068884,48.923752 c 0.01631,2.584542 0.08366,5.169265 0.04892,7.753625 -0.172085,12.79803 -0.916252,25.578125 -1.737097,38.347779 -0.754104,10.989784 -0.444044,6.193414 -0.9559,14.387424 -0.0014,0.0189 0.266037,0.0378 0.267374,0.0189 v 0 c 0.950056,-8.95228 1.700774,-17.916109 2.179061,-26.908074 0.481203,-9.046802 0.751258,-16.847917 0.66913,-25.853588 -0.02359,-2.586559 -0.18746,-5.169934 -0.28119,-7.754903 -6.35e-4,-0.01344 -0.190918,-0.0046 -0.190294,0.0088 z" />
    <path
       style="fill:#000000;fill-opacity:1;stroke:none;stroke-width:1;stroke-linejoin:round;stop-color:#000000"
       id="path21680"
       d="m 28.299359,65.685283 c 0.360664,13.52573 1.014172,27.041998 1.565474,40.560967 0.05581,1.99237 0.377311,10.9075 0.21541,13.51289 -0.07104,1.1433 -0.167179,2.31709 -0.572524,3.38848 -0.144687,0.38243 -0.665289,0.98414 -0.985692,0.73012 -1.21027,-0.95952 -1.988822,-6.95783 -2.034206,-7.19021 -0.191092,-2.11626 -0.382183,-4.23253 -0.573273,-6.34879 -0.0019,-0.0236 -0.335702,0.003 -0.333792,0.027 v 0 c 0.21758,2.12201 0.435161,4.24403 0.652741,6.36605 0.09972,0.45154 0.920635,6.234 2.336772,7.19605 0.371837,0.2526 0.939345,-0.33982 1.119732,-0.75156 0.466424,-1.06464 0.604594,-2.25692 0.705597,-3.41485 0.249356,-2.85872 7.93e-4,-11.19949 -0.04276,-13.53092 -0.486307,-13.523739 -1.08703,-27.042439 -1.948651,-40.548116 -2.04e-4,-0.0074 -0.105026,-0.0045 -0.104823,0.0029 z" />
    <path
       style="fill:#000000;fill-opacity:1;stroke:none;stroke-width:1;stroke-linejoin:round;stop-color:#000000"
       id="path21682"
       d="m 37.921332,78.822589 c -0.02387,9.356582 -0.166092,18.718127 -0.564354,28.067191 -0.07894,1.85308 -0.199869,3.70414 -0.299802,5.5562 -0.0011,0.0207 0.291163,0.0354 0.292209,0.0148 v 0 c 0.123343,-1.85339 0.276328,-3.70506 0.370025,-5.56019 0.115334,-2.28353 0.189854,-4.56905 0.257003,-6.8545 0.185203,-6.303672 0.259101,-12.611561 0.114601,-18.916923 -0.01765,-0.769964 -0.06358,-1.539017 -0.09537,-2.308526 -1.4e-4,-0.0053 -0.07445,-0.0033 -0.07432,0.0019 z" />
    <path
       style="fill:#000000;fill-opacity:1;stroke:none;stroke-width:1;stroke-linejoin:round;stop-color:#000000"
       id="path21684"
       d="m 44.869708,78.726175 c 0.203539,13.462272 0.176183,26.924955 -0.05323,40.386535 -0.06294,1.54775 -0.125875,3.0955 -0.188814,4.64325 -7.94e-4,0.0173 0.243067,0.0282 0.243842,0.0109 v 0 c 0.102865,-1.54905 0.20573,-3.09811 0.308595,-4.64717 0.06709,-2.30893 0.157765,-4.61729 0.201281,-6.92679 0.210201,-11.15592 0.08692,-22.322684 -0.41675,-33.469204 -1.72e-4,-0.0067 -0.09509,-0.0043 -0.09492,0.0024 z" />
    <path
       style="fill:#000000;fill-opacity:1;stroke:none;stroke-width:1;stroke-linejoin:round;stop-color:#000000"
       id="path21686"
       d="m 53.764402,77.368267 c -0.111813,1.106895 -0.257543,2.210887 -0.335437,3.320685 -0.313269,4.463393 -0.469767,9.420103 -0.478599,13.851043 -0.01196,5.994915 0.133985,12.057425 0.609931,18.036105 0.18856,2.36861 0.527026,4.7229 0.790538,7.08435 1.025853,4.57163 -0.130048,3.22025 1.872371,4.99551 0.0028,0.004 0.05207,-0.0356 0.0493,-0.0391 v 0 c -1.724248,-1.86651 -0.697611,-0.46008 -1.548064,-4.98917 -0.229505,-2.35766 -0.517448,-4.71035 -0.688515,-7.07296 -0.448775,-6.1981 -0.602395,-11.79295 -0.62792,-18.008705 -0.01558,-3.793244 0.0997,-9.86155 0.286261,-13.837785 0.05209,-1.110056 0.160319,-2.216769 0.24048,-3.325151 0.0011,-0.01204 -0.169302,-0.02688 -0.170349,-0.01484 z" />
    <path
       style="fill:#000000;fill-opacity:1;stroke:none;stroke-width:1;stroke-linejoin:round;stop-color:#000000"
       id="path21688"
       d="m 65.637158,86.501527 c -0.17023,4.588582 -0.560872,9.166347 -1.087922,13.727113 -0.229658,1.98731 -0.516683,3.96758 -0.775023,5.95137 -0.0024,0.0221 0.310621,0.0565 0.31305,0.0343 v 0 c 0.261001,-1.98662 0.562245,-3.96836 0.783,-5.95984 0.50627,-4.567142 0.810421,-9.156252 0.877565,-13.75089 1.48e-4,-0.0078 -0.110522,-0.0099 -0.11067,-0.0021 z" />
    <path
       style="fill:#000000;fill-opacity:1;stroke:none;stroke-width:1;stroke-linejoin:round;stop-color:#000000"
       id="path21690"
       d="m 75.368578,77.18571 c -0.769991,8.261291 -1.637925,16.515553 -2.737189,24.74029 -0.352629,2.63837 -0.760352,5.2691 -1.140526,7.90365 -0.0036,0.0295 0.413271,0.0807 0.416888,0.0512 v 0 c 0.391737,-2.63627 0.82269,-5.26702 1.175208,-7.90882 0.374769,-2.808549 0.692811,-5.624504 1.006422,-8.440539 0.604948,-5.432112 1.140407,-10.876631 1.417926,-16.336642 5.29e-4,-0.0098 -0.138084,-0.01892 -0.138729,-0.0091 z" />
    <path
       style="fill:#000000;fill-opacity:1;stroke:none;stroke-width:1;stroke-linejoin:round;stop-color:#000000"
       id="path21692"
       d="m 84.93947,83.98585 c -0.859314,5.751388 -2.207025,11.415117 -3.526719,17.07357 -0.0041,0.0213 0.297974,0.0798 0.302107,0.0585 v 0 c 1.302678,-5.664745 2.61747,-11.342737 3.348627,-17.116446 0.0011,-0.0088 -0.122912,-0.02434 -0.124015,-0.01558 z" />
    <path
       style="fill:#000000;fill-opacity:1;stroke:none;stroke-width:1;stroke-linejoin:round;stop-color:#000000"
       id="path21694"
       d="m 93.816171,71.249034 c -0.739383,8.654177 -1.907987,17.276482 -3.563633,25.804352 -0.5804,2.989504 -1.274979,5.955714 -1.912469,8.933564 -0.006,0.0334 0.466823,0.11828 0.472821,0.0849 v 0 c 0.641485,-2.98283 1.348301,-5.95235 1.92445,-8.94848 1.641456,-8.536016 2.79106,-17.184481 3.273938,-25.864917 5.29e-4,-0.01378 -0.194445,-0.02318 -0.195107,-0.0094 z" />
    <path
       style="fill:#000000;fill-opacity:1;stroke:none;stroke-width:1;stroke-linejoin:round;stop-color:#000000"
       id="path21696"
       d="m 100.49762,80.666139 c -1.255842,5.53497 -2.650312,11.036218 -4.033795,16.540168 -0.0058,0.02823 0.393499,0.109754 0.399264,0.08152 v 0 c 1.311622,-5.519586 2.644572,-11.034823 3.761161,-16.598341 0.002,-0.0089 -0.12498,-0.03231 -0.12663,-0.02334 z" />
    <path
       style="fill:#000000;fill-opacity:1;stroke:none;stroke-width:1;stroke-linejoin:round;stop-color:#000000"
       id="path21698"
       d="m 110.54304,61.659229 c -0.2165,2.316552 -0.26482,2.600942 -0.38258,5.364031 -0.33115,7.770005 -0.30814,15.544956 -0.36167,23.319993 -0.024,3.48003 -0.0583,6.959984 -0.0874,10.439977 -0.12129,4.93903 -0.24471,12.76504 -0.6051,17.89928 -0.34179,4.86925 -0.0656,3.69416 -1.19541,6.72885 -0.002,0.007 0.0912,0.0391 0.0935,0.0325 v 0 c 1.39628,-2.97667 1.08417,-1.86877 1.52903,-6.7426 0.47404,-5.19359 0.62971,-12.89475 0.79009,-17.91388 0.0272,-3.481174 0.0722,-6.962254 0.0817,-10.443525 0.0261,-9.555695 -0.20148,-19.122486 0.26029,-28.671388 10e-4,-0.0087 -0.12153,-0.02191 -0.12247,-0.01326 z" />
    <path
       style="fill:#000000;fill-opacity:1;stroke:none;stroke-width:1;stroke-linejoin:round;stop-color:#000000"
       id="path21700"
       d="m 115.23442,51.215911 c 0.77832,4.463211 1.16122,8.987062 1.49479,13.500783 0.56076,7.58807 0.74753,11.375424 0.81497,19.108716 0.0269,3.089949 -0.0484,6.179944 -0.0727,9.269915 -0.37237,8.883185 -0.0871,4.900451 -0.7252,11.956845 -0.002,0.0172 0.24142,0.0388 0.24295,0.0216 v 0 c 0.85695,-7.059749 0.47418,-3.07349 0.97402,-11.974239 0.0386,-3.095231 0.14152,-6.190324 0.11592,-9.285689 -0.0585,-7.069347 -0.31397,-12.151924 -0.91575,-19.132336 -0.38914,-4.513945 -0.86539,-9.049991 -1.83677,-13.483 -0.001,-0.0065 -0.0935,0.0109 -0.0923,0.01741 z" />
    <path
       style="fill:#000000;fill-opacity:1;stroke:none;stroke-width:1;stroke-linejoin:round;stop-color:#000000"
       id="path21706"
       d="m 106.68021,20.63435 c -0.0972,2.085243 -0.14553,2.752083 -0.14334,5.162148 0.009,10.086201 0.65521,20.158253 1.23104,30.223519 0.1493,2.489843 0.62304,10.132118 0.754,13.137716 0.0452,1.038571 0.0526,2.078447 0.0788,3.117672 5e-5,0.01156 0.16378,0.01093 0.16373,-5.29e-4 v 0 c 0.0165,-1.042606 0.0663,-2.085218 0.0494,-3.127817 -0.0643,-3.983243 -0.38464,-9.322395 -0.5824,-13.149103 -0.57062,-10.059596 -1.2095,-20.125433 -1.4462,-30.200254 -0.008,-0.340947 -0.0295,-4.174485 -0.0352,-5.16069 1.8e-4,-0.0049 -0.0697,-0.0075 -0.0699,-0.0025 z" />
    <path
       style="fill:#000000;fill-opacity:1;stroke:none;stroke-width:1;stroke-linejoin:round;stop-color:#000000"
       id="path21708"
       d="m 96.274563,33.708038 c -0.105145,0.607946 -0.239519,1.211553 -0.315439,1.823836 -0.607509,4.899388 -0.652158,9.868173 -0.745246,14.795931 -0.08101,4.288399 -0.107252,8.430374 -0.144918,12.715277 -0.195958,6.268466 -0.02352,3.385818 -0.445272,8.651957 -0.0011,0.01331 0.187354,0.02772 0.18837,0.01439 v 0 c 0.537747,-5.271339 0.314833,-2.38568 0.581554,-8.663268 0.05859,-4.237302 0.102185,-8.474819 0.169344,-12.711994 0.07799,-4.920109 0.07689,-9.87693 0.570706,-14.779101 0.0616,-0.611489 0.175549,-1.216567 0.263321,-1.824849 0.0016,-0.0087 -0.120851,-0.03084 -0.12242,-0.02217 z" />
    <path
       style="fill:#000000;fill-opacity:1;stroke:none;stroke-width:1;stroke-linejoin:round;stop-color:#000000"
       id="path21710"
       d="m 82.117014,39.69237 c -0.606492,4.323112 -0.576983,8.704694 -0.809779,13.055079 -0.338571,6.326987 -0.454938,6.950633 -1.03065,13.288648 -1.084191,7.564551 -0.446786,4.034067 -1.824344,10.606936 -0.0031,0.01714 0.239321,0.06126 0.24244,0.04412 v 0 c 1.484207,-6.577047 0.80473,-3.041997 1.938295,-10.623907 0.202441,-2.232523 0.441757,-4.46201 0.607325,-6.69757 0.16297,-2.200484 0.276995,-4.404532 0.378153,-6.608723 0.19961,-4.349437 0.149937,-8.714864 0.581853,-13.051901 7.94e-4,-0.0059 -0.0824,-0.01857 -0.08329,-0.01267 z" />
    <path
       style="fill:#000000;fill-opacity:1;stroke:none;stroke-width:1;stroke-linejoin:round;stop-color:#000000"
       id="path21712"
       d="m 66.711485,40.242212 c 0.03324,0.646379 0.05833,1.29323 0.09971,1.939139 0.251566,3.927094 0.298884,3.428563 0.552215,8.0402 0.214222,3.899694 0.515117,11.060134 0.565182,14.813177 0.03752,2.812695 -0.01696,5.625867 -0.02543,8.438801 -0.212505,5.514075 -0.216786,8.614756 -0.81594,13.93808 -0.154284,1.370764 -0.320255,2.746719 -0.64125,4.08827 -0.518446,2.166776 -0.327848,1.942251 -1.532392,1.41705 -0.0028,-0.0019 -0.02853,0.03805 -0.02572,0.03988 v 0 c 1.312863,0.490278 1.163228,0.773215 1.777426,-1.425575 0.373361,-1.336606 0.573201,-2.71847 0.755142,-4.094266 0.706504,-5.342448 0.707506,-8.416149 0.955741,-13.962094 0.01053,-2.817894 0.07595,-5.636117 0.03162,-8.453683 -0.130323,-8.281681 -0.787675,-16.545179 -1.618744,-24.781994 -2.15e-4,-0.0055 -0.07777,-0.0024 -0.07756,0.003 z" />
    <path
       style="fill:#000000;fill-opacity:1;stroke:none;stroke-width:1;stroke-linejoin:round;stop-color:#000000"
       id="path21714"
       d="m 49.893203,44.138349 c 0.146865,5.00588 0.268508,10.014128 0.179618,15.022576 -0.03654,2.058702 -0.0643,4.118832 -0.185359,6.174298 -0.12587,2.137093 -0.370089,4.26557 -0.555133,6.398355 -1.056489,7.31302 -0.402563,3.871497 -1.872808,10.341081 -0.0034,0.01714 0.239019,0.06452 0.242369,0.04738 v 0 c 1.559256,-6.479329 0.870273,-3.031059 1.970651,-10.363586 0.187005,-2.138273 0.43629,-4.272013 0.561017,-6.414821 0.119796,-2.058077 0.143703,-4.120922 0.172228,-6.182288 0.06936,-5.012579 -0.07924,-10.026335 -0.404,-15.028259 -2.65e-4,-0.0077 -0.108956,-0.0024 -0.108583,0.0053 z" />
    <path
       style="fill:#000000;fill-opacity:1;stroke:none;stroke-width:1;stroke-linejoin:round;stop-color:#000000"
       id="path21716"
       d="m 39.08557,35.129139 c 0.12247,8.731504 -0.01998,17.461076 -0.433263,26.184391 -0.15003,3.166623 -0.36448,6.329865 -0.546717,9.494798 -0.33242,4.117422 -0.697878,9.827516 -1.342514,14.079947 -0.14968,0.987383 -0.43569,1.949228 -0.653537,2.923842 -0.0024,0.01098 0.152876,0.04338 0.155168,0.03241 v 0 c 0.269689,-0.974447 0.626787,-1.928831 0.809072,-2.923341 0.795118,-4.338 1.15712,-9.830869 1.537708,-14.088184 0.185528,-3.16828 0.414983,-6.334295 0.556588,-9.504842 0.389927,-8.730371 0.440055,-17.471426 -0.02973,-26.199017 0,-0.0037 -0.05278,-0.0037 -0.05278,0 z" />
    <path
       style="fill:#000000;fill-opacity:1;stroke:none;stroke-width:1;stroke-linejoin:round;stop-color:#000000"
       id="path21718"
       d="m 32.745373,36.58285 c -0.0453,1.046186 -0.100788,2.091983 -0.135888,3.138564 -0.17975,5.359516 -0.108754,6.218446 -0.398243,12.125999 -0.225848,4.608854 -0.731427,12.259358 -1.127699,16.871307 -0.201054,2.339943 -0.465531,4.674005 -0.698299,7.011009 -0.0024,0.02606 0.366208,0.05842 0.368496,0.03236 v 0 c 0.256633,-2.338559 0.556549,-4.672777 0.769901,-7.015683 0.973661,-10.692265 1.309409,-21.427204 1.318154,-32.159985 2.54e-4,-0.0068 -0.09617,-0.0104 -0.09642,-0.0036 z" />
    <path
       style="fill:#000000;fill-opacity:1;stroke:none;stroke-width:1;stroke-linejoin:round;stop-color:#000000"
       id="path21720"
       d="m 21.758176,30.524545 c -0.105523,0.626806 -0.229544,1.250778 -0.316567,1.880417 -0.890347,6.441919 -1.430344,12.942628 -1.992484,19.418321 -0.860378,9.91131 -0.852799,10.313818 -1.561672,20.177535 -0.203063,2.917693 -0.406126,5.835386 -0.609189,8.753078 -0.002,0.03247 0.457212,0.06078 0.459214,0.02831 v 0 c 0.225363,-2.916455 0.450727,-5.832909 0.67609,-8.749364 0.702764,-9.608113 1.401028,-19.216033 2.201346,-28.816646 0.209671,-2.515206 0.67172,-7.940852 0.969438,-10.793619 0.06583,-0.630766 0.15875,-1.258408 0.238124,-1.887611 7.41e-4,-0.0046 -0.06356,-0.01498 -0.0643,-0.01043 z" />
    <path
       style="fill:#000000;fill-opacity:1;stroke:none;stroke-width:1;stroke-linejoin:round;stop-color:#000000"
       id="path21722"
       d="m 11.848346,16.695819 c -0.0052,0.710253 -0.02233,1.420519 -0.0156,2.130759 0.02202,2.326934 0.2091,10.513361 0.235739,11.79336 0.287904,13.833811 0.07796,5.357955 0.466098,19.417839 8.73e-4,0.03656 0.517874,0.02424 0.517003,-0.01233 v 0 C 12.890785,44.508546 12.657179,36.153862 12.456874,30.60969 12.314936,26.681041 12.107668,22.754859 11.976863,18.825823 c -0.0236,-0.708994 -0.02794,-1.418497 -0.04191,-2.127745 1.61e-4,-0.0061 -0.08645,-0.0084 -0.08661,-0.0023 z" />
    <path
       style="fill:#000000;fill-opacity:1;stroke:none;stroke-width:1;stroke-linejoin:round;stop-color:#000000"
       id="path21724"
       d="m 5.514209,95.016724 c -0.038191,11.552096 0.1940832,23.105066 0.4108966,34.654916 0.1065477,5.0031 0.3077082,10.00307 0.4283246,15.00569 1.51e-5,0.0104 0.1475608,0.0102 0.1475457,-2.1e-4 v 0 c 0.019222,-0.93307 0.057766,-1.86595 0.057668,-2.79922 -2.37e-4,-2.25237 -0.1490291,-10.66512 -0.1742765,-12.21268 -0.1676095,-11.5512 -0.3422454,-23.10351 -0.7733897,-34.648496 0,-0.0069 -0.096769,-0.0069 -0.096769,0 z" />
    <path
       style="fill:#000000;fill-opacity:1;stroke:none;stroke-width:1;stroke-linejoin:round;stop-color:#000000"
       id="path21726"
       d="m 16.154767,99.010305 c 0.01263,0.365458 0.0054,0.732144 0.03788,1.096375 0.168902,1.89389 0.437372,3.45708 0.761557,5.36642 0.307931,1.81362 1.212211,6.74637 1.478518,8.4744 0.228806,1.48469 0.405003,2.97701 0.607505,4.46552 0.38808,4.87259 0.300909,2.61728 0.339568,6.76246 -1e-5,0.0105 0.149015,0.0107 0.149025,1.4e-4 v 0 c 0.04779,-4.16234 0.100204,-1.89817 -0.249259,-6.78974 -0.200536,-1.49135 -0.371823,-2.98691 -0.601607,-4.47403 -0.30659,-1.9842 -1.147156,-6.42296 -1.515178,-8.46811 -0.315664,-1.75419 -0.653001,-3.56481 -0.865623,-5.34169 -0.04335,-0.362244 -0.05165,-0.727829 -0.07747,-1.091745 0,-0.0046 -0.06492,-0.0046 -0.06492,0 z" />
    <path
       style="fill:#000000;fill-opacity:1;stroke:none;stroke-width:1;stroke-linejoin:round;stop-color:#000000"
       id="path21728"
       d="m 23.798398,96.320783 c -0.0097,0.562481 -0.0419,1.125022 -0.0291,1.687441 0.05405,2.375746 0.263843,5.417546 0.460598,7.720326 0.398879,4.66839 0.972039,9.30973 1.606009,13.95071 0.153279,0.94365 0.306558,1.8873 0.459837,2.83096 0.0013,0.0105 0.150651,-0.008 0.149315,-0.0189 v 0 c -0.131895,-0.94515 -0.26379,-1.89029 -0.395685,-2.83544 -0.896612,-7.19264 -1.746361,-14.40576 -2.124883,-21.648047 -0.02924,-0.559528 -0.02617,-1.120278 -0.03926,-1.680416 4.77e-4,-0.0061 -0.08636,-0.01278 -0.08683,-0.0066 z" />
    <path
       style="fill:#000000;fill-opacity:1;stroke:none;stroke-width:1;stroke-linejoin:round;stop-color:#000000"
       id="path21730"
       d="m 52.547093,98.584794 c 0.0346,0.52928 0.05757,1.059447 0.103781,1.587836 0.308673,3.52967 0.804693,7.04275 1.259025,10.5554 0.708035,5.47414 0.395737,2.96008 1.006403,8.07834 0.250989,1.51851 0.294981,3.06039 0.508818,4.58276 5e-5,0.001 0.01908,5.3e-4 0.01902,-7.9e-4 v 0 c 0.07169,-1.53693 -0.273955,-3.07328 -0.315219,-4.60231 -0.353211,-3.26534 -0.499748,-4.74768 -0.922785,-8.09079 -0.511061,-4.03876 -1.152091,-8.06161 -1.561018,-12.112989 -1.77e-4,-0.0069 -0.09819,-0.0044 -0.09802,0.0024 z" />
    <path
       style="fill:#000000;fill-opacity:1;stroke:none;stroke-width:1;stroke-linejoin:round;stop-color:#000000"
       id="path21732"
       d="m 71.336587,107.76272 c -0.08058,4.8231 0.06117,9.64557 0.269415,14.4636 2.64e-4,0.0109 0.154323,0.006 0.153966,-0.005 v 0 c -0.167619,-4.81827 -0.286229,-9.63702 -0.283641,-14.45856 0,-0.01 -0.13974,-0.01 -0.13974,0 z" />
    <path
       style="fill:#000000;fill-opacity:1;stroke:none;stroke-width:1;stroke-linejoin:round;stop-color:#000000"
       id="path21734"
       d="m 83.381441,101.99457 c 0.545981,6.12852 0.978877,12.26617 1.29762,18.41059 2.65e-4,0.009 0.124206,0.005 0.123907,-0.004 v 0 c -0.179834,-6.15231 -0.533521,-12.31107 -1.299866,-18.42017 -0.0011,-0.009 -0.122637,0.005 -0.121661,0.0138 z" />
    <path
       style="fill:#000000;fill-opacity:1;stroke:none;stroke-width:1;stroke-linejoin:round;stop-color:#000000"
       id="path21736"
       d="m 95.405886,103.92848 c 0.306218,2.85908 0.476382,5.72589 0.347954,8.60197 -0.04984,1.11613 -0.164116,2.22845 -0.246177,3.34268 -7.93e-4,0.0124 0.175149,0.0232 0.175909,0.0107 v 0 c 0.08013,-1.11724 0.193471,-2.23258 0.240379,-3.3517 0.120652,-2.87843 -0.03813,-5.75709 -0.406802,-8.61244 -5.3e-4,-0.008 -0.111882,7.9e-4 -0.111263,0.009 z" />
    <path
       style="fill:#000000;fill-opacity:1;stroke:none;stroke-width:1;stroke-linejoin:round;stop-color:#000000"
       id="path21738"
       d="m 105.56074,107.13461 c -0.0615,2.614 -0.0127,5.23175 -0.14385,7.84407 -0.0367,0.73113 -0.10625,1.46025 -0.15937,2.19037 -5.3e-4,0.008 0.11478,0.0156 0.1153,0.007 v 0 c 0.27363,-3.34039 0.39945,-6.68974 0.31637,-10.04193 0,-0.009 -0.12845,-0.009 -0.12845,0 z" />
    <path
       style="fill:#000000;fill-opacity:1;stroke:none;stroke-width:1;stroke-linejoin:round;stop-color:#000000"
       id="path21740"
       d="m 120.70384,103.60499 c 0.86611,4.41254 0.88035,8.95068 0.49265,13.4183 -0.099,1.14064 -0.27489,2.27329 -0.41234,3.40993 -0.16292,0.84646 -0.32584,1.69293 -0.48876,2.53939 -0.002,0.01 0.13329,0.0325 0.13491,0.0229 v 0 c 0.18135,-0.84738 0.36271,-1.69476 0.54406,-2.54215 0.15049,-1.13918 0.33581,-2.27431 0.45148,-3.41756 0.4537,-4.48463 0.49998,-9.06013 -0.55811,-13.46766 -0.003,-0.0116 -0.16649,0.0252 -0.16389,0.0368 z" />
  </g>
</svg>
