<?xml version="1.0" encoding="UTF-8" standalone="no"?>
<!-- Created with Inkscape (http://www.inkscape.org/) -->

<svg
   width="125.89113mm"
   height="124.52942mm"
   viewBox="0 0 125.89113 124.52942"
   version="1.1"
   id="svg5"
   inkscape:version="1.2.2 (b0a8486541, 2022-12-01)"
   sodipodi:docname="prince.svg"
   xml:space="preserve"
   xmlns:inkscape="http://www.inkscape.org/namespaces/inkscape"
   xmlns:sodipodi="http://sodipodi.sourceforge.net/DTD/sodipodi-0.dtd"
   xmlns="http://www.w3.org/2000/svg"
   xmlns:svg="http://www.w3.org/2000/svg"><sodipodi:namedview
     id="namedview7"
     pagecolor="#ffffff"
     bordercolor="#666666"
     borderopacity="1.0"
     inkscape:showpageshadow="2"
     inkscape:pageopacity="0.0"
     inkscape:pagecheckerboard="0"
     inkscape:deskcolor="#d1d1d1"
     inkscape:document-units="mm"
     showgrid="false"
     inkscape:lockguides="false"
     inkscape:zoom="2.3786088"
     inkscape:cx="219.87642"
     inkscape:cy="241.94815"
     inkscape:window-width="1080"
     inkscape:window-height="1853"
     inkscape:window-x="0"
     inkscape:window-y="0"
     inkscape:window-maximized="1"
     inkscape:current-layer="layer1"
     showguides="true"><sodipodi:guide
       position="44.309128,52.904402"
       orientation="1,0"
       id="guide18290"
       inkscape:locked="false" /></sodipodi:namedview><defs
     id="defs2"><inkscape:path-effect
       effect="simplify"
       id="path-effect10438"
       is_visible="true"
       lpeversion="1"
       steps="1"
       threshold="0.0179452"
       smooth_angles="360"
       helper_size="0"
       simplify_individual_paths="false"
       simplify_just_coalesce="false" /><inkscape:path-effect
       effect="simplify"
       id="path-effect9291"
       is_visible="true"
       lpeversion="1"
       steps="1"
       threshold="0.0179452"
       smooth_angles="360"
       helper_size="0"
       simplify_individual_paths="false"
       simplify_just_coalesce="false" /><inkscape:path-effect
       effect="simplify"
       id="path-effect10438-0"
       is_visible="true"
       lpeversion="1"
       steps="1"
       threshold="0.0179452"
       smooth_angles="360"
       helper_size="0"
       simplify_individual_paths="false"
       simplify_just_coalesce="false" /></defs><g
     inkscape:label="Layer 1"
     inkscape:groupmode="layer"
     id="layer1"><path
       style="fill:#2a7fff;stroke:#000000;stroke-width:1;stroke-linecap:butt;stroke-linejoin:miter;stroke-dasharray:none;stroke-opacity:1"
       d="m 55.682418,72.547479 c 1.643317,-3.046347 1.803652,-8.89789 1.803652,-8.89789 l 5.891082,-0.401053 c 0,0 -0.600492,9.739102 5.009896,11.141699 13.942483,3.5808 6.94163,28.906225 6.051852,37.113645 -1.176074,12.09586 -6.572827,16.63216 -6.572827,16.63216 L 35.403852,127.7754 c 0,0 0.760826,-6.97388 0.841209,-17.27349 C 30.146702,78.123972 47.692127,83.410595 55.682418,72.547479 Z"
       id="path27402"
       sodipodi:nodetypes="ccccccccc" /><path
       style="fill:#ffaacc;stroke:#000000;stroke-width:0.867663;stroke-linecap:butt;stroke-linejoin:round;stroke-dasharray:none;stroke-opacity:1"
       d="m 59.92241,24.506393 c 8.220962,0 15.011953,9.794311 15.011953,18.872477 0,9.078166 -4.696061,22.628579 -15.508035,25.216167 C 52.077638,70.353769 44.553161,56.244706 43.409185,46.880545 42.265212,37.516386 48.341606,24.578471 59.92241,24.506393 Z"
       id="path1274"
       sodipodi:nodetypes="csssc" /><path
       style="fill:#ffcc00;stroke:#000000;stroke-width:0.867663;stroke-linecap:butt;stroke-linejoin:round;stroke-dasharray:none;stroke-opacity:1"
       d="M 76.518982,36.805878 C 75.446699,30.186954 67.777896,22.103136 56.838426,22.150599 c -12.432513,0.05394 -13.29424,14.301798 -13.830133,19.678035 5.750277,-3.305787 7.4298,-4.996891 16.736705,-5.642688 7.327526,-0.508449 12.753377,0.484078 11.338581,7.105177 0.607436,4.292913 8.302452,17.175263 5.435403,-6.485245 z"
       id="path1272"
       sodipodi:nodetypes="cscscc" /><path
       style="opacity:0.709769;fill:#000000;stroke:#000000;stroke-width:0.867663;stroke-linejoin:round;stroke-dasharray:none;paint-order:stroke fill markers;stop-color:#000000"
       id="path1597"
       d="m 59.212541,43.527819 c -0.211816,-0.193122 -0.423001,-0.39354 -0.528505,-0.668813 -0.06208,-0.162006 -0.05759,-0.270783 -0.06905,-0.438729 0.07424,-0.183395 0.09799,-0.278423 0.228014,-0.438438 0.06628,-0.0816 0.145863,-0.151552 0.222432,-0.223593 0.175718,-0.165329 0.321209,-0.288622 0.526893,-0.417133 0.09556,-0.0597 0.197959,-0.107716 0.296937,-0.16158 0.355103,-0.190099 0.741854,-0.31401 1.138437,-0.380397 0.09551,-0.01599 0.191092,-0.03359 0.287693,-0.04036 0.1054,-0.0074 0.211303,-0.0015 0.316959,-0.002 0.819268,0.127116 1.647136,0.176962 2.471358,0.257736 0.238994,0.03807 0.48065,0.07149 0.710785,0.149659 0.115663,0.03928 0.225224,0.0956 0.333051,0.152093 0.20451,0.11533 0.422597,0.209536 0.663355,0.174412 0.03643,-0.0054 0.07012,-0.02258 0.105166,-0.03386 0.158549,-0.07149 0.247045,-0.222415 0.363718,-0.342324 0.132173,-0.139834 0.251834,-0.192949 0.424915,-0.267348 0.119864,-0.0624 0.286613,-0.108652 0.352306,-0.238569 -0.0049,-0.127261 -0.07967,0.0225 -0.09089,0.03456 -0.01072,0.01158 -0.02395,0.02087 -0.03594,0.03129 -0.02352,0.01133 -0.0986,0.07528 -0.118521,0.03301 -0.05239,0.02553 -0.06563,0.07424 -0.08279,0.124971 -2.36e-4,0.0012 0.01683,0.006 0.01716,0.0047 v 0 c 0.01475,-0.0434 0.06,-0.07323 0.049,-0.123318 0.03158,0.06612 0.126447,0.01317 0.166396,-0.01485 0.01963,-0.0214 0.05637,-0.05391 0.05999,-0.08671 0.0012,-0.01133 -0.0122,-0.01981 -0.01444,-0.03095 -6.87e-4,-0.0031 0.0058,0.0049 0.0087,0.0038 0.0028,-0.001 0.0021,-0.01121 -0.0032,-0.0083 -0.122315,0.06461 -0.250299,0.113026 -0.378862,0.164191 -0.167235,0.07149 -0.323418,0.167019 -0.457242,0.291199 -0.103995,0.09631 -0.204426,0.209574 -0.34211,0.254923 -0.02443,0.0031 -0.0487,0.0083 -0.0733,0.0091 -0.126185,0.0044 -0.296222,-0.126141 -0.386933,-0.20108 -0.01922,-0.02054 -0.158005,-0.169277 -0.174015,-0.183961 -0.245472,-0.225085 -0.553189,-0.359263 -0.871083,-0.447044 -0.129736,-0.02978 -0.258327,-0.06508 -0.38921,-0.08932 -0.318896,-0.05909 -0.614034,-0.08378 -0.937599,-0.112275 -0.511173,-0.04502 -1.022872,-0.06904 -1.536142,-0.04148 -0.24554,0.02666 -0.419879,0.04045 -0.660737,0.08586 -0.447057,0.08426 -0.879658,0.223054 -1.287636,0.425576 -0.111461,0.0686 -0.227149,0.130744 -0.33439,0.205756 -0.406291,0.284173 -0.816358,0.670602 -0.976823,1.154528 -0.03739,0.112754 -0.04471,0.233324 -0.06708,0.349987 0.0049,0.100742 -0.0036,0.203026 0.01472,0.302241 0.07342,0.400471 0.327096,0.7659 0.686676,0.958983 0.06431,0.03452 0.136076,0.0529 0.204111,0.07935 0.01809,0.01183 0.185927,-0.243863 0.167845,-0.255733 z" /><circle
       id="path1599"
       style="fill:#000000;stroke:#000000;stroke-width:1.06439;stroke-dasharray:none"
       cx="44.064129"
       cy="81.402832"
       r="0" /><path
       style="opacity:0.709769;fill:#000000;stroke:#000000;stroke-width:0.867663;stroke-linejoin:round;stroke-dasharray:none;paint-order:stroke fill markers;stop-color:#000000"
       id="path1607"
       d="m 47.548063,42.999742 c 0.386656,-0.02468 0.766845,-0.09849 1.147261,-0.167149 0.348302,-0.06288 0.908478,-0.159489 1.241509,-0.230433 0.233331,-0.04971 0.464557,-0.1088 0.696837,-0.163198 0.238133,-0.05299 0.476612,-0.104451 0.714404,-0.15898 0.215183,-0.04932 0.428957,-0.104771 0.644491,-0.152558 0.592101,-0.131293 1.190616,-0.228625 1.787852,-0.332607 0.03941,-0.0078 0.07815,-0.02049 0.118225,-0.02335 0.263988,-0.01881 0.571472,0.0068 0.824938,0.08641 0.175067,0.0672 0.355723,0.132512 0.506598,0.247335 0.08761,0.06668 0.126217,0.115133 0.199922,0.194818 0.177745,0.197237 0.227067,0.264448 0.176649,0.524745 -0.05276,0.134181 -0.07349,0.217482 -0.05532,0.360945 0.0037,0.02261 0.0075,0.04519 0.01121,0.06779 4.71e-4,0.0033 0.04775,-0.0041 0.04722,-0.0075 v 0 c -0.0047,-0.0222 -0.0094,-0.04443 -0.01411,-0.06664 -0.03228,-0.148992 0.0181,-0.207134 0.08901,-0.334507 0.100816,-0.242388 0.0602,-0.43734 -0.059,-0.666336 -0.0788,-0.118053 -0.1002,-0.163575 -0.20656,-0.264555 -0.148847,-0.141328 -0.334236,-0.22911 -0.513399,-0.323488 -0.11528,-0.06321 -0.147473,-0.08596 -0.275376,-0.133443 -0.318492,-0.118262 -0.665471,-0.127298 -1.000121,-0.150025 -0.114468,-0.0054 -0.228787,-0.01557 -0.343368,-0.01634 -1.016173,-0.0068 -2.027825,0.179367 -3.007599,0.433497 -0.865035,0.237109 -0.49099,0.124669 -1.321995,0.390447 -0.529351,0.169306 -1.073417,0.313649 -1.563836,0.582096 -0.02143,0.01084 0.133121,0.313875 0.154541,0.302948 z" /><path
       style="fill:#ffffff;stroke:#000000;stroke-width:0.867663;stroke-linecap:butt;stroke-linejoin:miter;stroke-dasharray:none;stroke-opacity:1"
       d="m 58.282015,46.416678 c 0,0 1.400266,-2.296493 4.968268,-1.34045 3.568,0.956045 4.056806,2.091085 4.056806,2.091085 0,0 -1.340448,3.717337 -4.575122,3.717337 -3.234672,0 -4.449952,-4.467972 -4.449952,-4.467972 z"
       id="path1611" /><path
       style="opacity:0.709769;fill:#0000ff;stroke:#000000;stroke-width:0.867663;stroke-linejoin:round;stroke-dasharray:none;paint-order:stroke fill markers;stop-color:#000000"
       id="path1770"
       d="m 62.144789,49.937213 c -0.0122,-0.1157 -0.0189,-0.232104 -0.0365,-0.347098 -0.02532,-0.165321 -0.06849,-0.327642 -0.09222,-0.493199 -0.0577,-0.402686 -0.09758,-0.877887 -0.07577,-1.282997 0.0307,-0.57048 0.0924,-0.705825 0.230445,-1.236525 -0.107149,-0.08639 0.308298,-0.457025 0.435981,-0.327628 0.05122,0.05189 -0.05091,0.14792 -0.02752,0.216972 0.05228,0.154421 0.180167,0.273803 0.244437,0.423631 0.219411,0.511511 0.230836,0.758802 0.32814,1.304098 0.0012,0.109551 0.05369,0.792948 -0.07811,0.962627 -0.150534,0.19381 -0.520624,0.125353 -0.696046,0.09124 -0.421161,-0.08191 -0.705908,-0.19314 -1.108523,-0.32971 -0.02432,-0.01568 -0.246112,0.328268 -0.221789,0.343949 v 0 c 0.182573,0.08473 0.357677,0.187895 0.547722,0.254196 0.442973,0.154536 0.985204,0.260288 1.453863,0.158966 0.395162,-0.08543 0.835368,-0.474961 0.984489,-0.839883 0.09929,-0.242974 0.07072,-0.520177 0.106089,-0.780262 -0.122845,-0.769595 -0.0734,-0.986135 -0.516946,-1.656156 -0.359553,-0.543133 -0.711788,-0.829803 -1.413913,-0.821207 -0.494566,0.006 -0.715927,0.454549 -0.964779,0.771772 -0.07604,0.236108 -0.180414,0.464905 -0.228108,0.708322 -0.150327,0.76721 -0.05147,1.519864 0.211287,2.247632 0.06238,0.172764 0.136211,0.342222 0.225019,0.503008 0.06697,0.121268 0.1601,0.226126 0.240149,0.339191 0.01492,0.03201 0.467534,-0.178929 0.452618,-0.210937 z" /><path
       style="opacity:0.709769;fill:#0000ff;stroke:#000000;stroke-width:0.867663;stroke-linejoin:round;stroke-dasharray:none;paint-order:stroke fill markers;stop-color:#000000"
       id="path1772"
       d="m 61.962363,46.879637 c -0.132143,0.419196 -0.192974,0.855484 -0.218731,1.293294 -0.02566,0.435799 -0.03361,0.572609 0.06462,0.979926 0.02013,0.08351 0.05852,0.161548 0.08778,0.242317 0.05271,0.0075 0.112065,0.04912 0.158077,0.02239 0.07095,-0.0412 0.104808,-0.127287 0.145369,-0.198594 0.09142,-0.160676 0.283318,-0.624938 0.346731,-0.773238 0.0063,-0.02221 -0.307702,-0.113506 -0.314157,-0.09128 v 0 c -0.08304,0.300814 -0.154335,0.510821 -0.193404,0.814728 -0.0086,0.06642 -0.02635,0.137795 -0.0038,0.200829 0.01047,0.02949 0.0585,0.02245 0.08776,0.03363 0.110784,-0.22277 0.195994,-0.375239 0.263967,-0.634204 0.04637,-0.176669 0.07148,-0.358517 0.0953,-0.539608 0.05859,-0.445692 0.0765,-0.896064 -0.0122,-1.339027 6.86e-4,-0.03588 -0.506632,-0.04708 -0.507421,-0.01109 z" /><path
       style="opacity:0.709769;fill:#0000ff;stroke:#000000;stroke-width:0.867663;stroke-linejoin:round;stroke-dasharray:none;paint-order:stroke fill markers;stop-color:#000000"
       id="path1774"
       d="m 62.565708,47.10158 c -0.188287,0.326131 -0.277894,0.687203 -0.340836,1.055439 -0.05958,0.3486 -0.07738,0.489905 -0.0525,0.829136 0.0058,0.07753 0.0243,0.153581 0.03643,0.230368 0.05193,0.0075 0.110402,0.04912 0.155789,0.02277 0.09846,-0.05718 0.295676,-0.491485 0.314442,-0.533166 0.05964,-0.132519 0.108985,-0.269458 0.164715,-0.403675 0.156805,-0.377622 0.175831,-0.416191 0.334884,-0.778274 0.348336,-0.297329 0.170364,-0.112533 0.359577,-0.354209 0.01183,-0.0152 -0.01449,0.04199 -0.03296,0.04758 -0.08624,0.02603 -0.201814,-0.01945 -0.266797,0.04294 -0.07942,0.07625 -0.07466,0.207343 -0.104365,0.313348 -0.04369,0.155865 -0.0771,0.314427 -0.115638,0.471642 -0.0636,0.448042 -0.147266,0.894017 -0.1974,1.343993 -0.0038,0.03524 -0.02845,0.301727 -0.01716,0.372867 0.007,0.0447 0.02815,0.08603 0.04222,0.129028 0.123054,0.223597 0.31441,0.398972 0.485886,0.584674 0.0097,0.01195 0.180254,-0.126577 0.170451,-0.138632 v 0 c -0.189063,-0.156733 -0.384914,-0.303984 -0.569615,-0.465543 -0.0051,-0.02808 -0.02266,-0.05666 -0.01528,-0.08421 0.01158,-0.04323 0.04554,-0.0771 0.06885,-0.115329 0.04264,-0.06994 0.09061,-0.136797 0.128978,-0.209177 0.220303,-0.415723 0.369997,-0.865418 0.511664,-1.312254 0.02608,-0.15177 0.157652,-0.73171 0.08245,-0.923238 -0.05782,-0.147232 -0.165855,-0.28452 -0.300832,-0.366989 -0.113618,-0.06943 -0.372069,0.158034 -0.405541,0.21874 -0.05636,0.102245 -0.0607,0.225474 -0.09105,0.33821 -0.0658,0.123395 -0.138951,0.243146 -0.197397,0.370195 -0.129682,0.281902 -0.214416,0.544014 -0.2912,0.84338 -0.0067,0.02587 -0.119358,0.459299 -0.08501,0.562427 0.0106,0.03203 0.0608,0.0294 0.09119,0.04409 0.08034,-0.190807 0.148034,-0.341889 0.210674,-0.547522 0.04365,-0.143307 0.07657,-0.289677 0.112496,-0.435108 0.08469,-0.342695 0.162946,-0.686931 0.193296,-1.039486 0.008,-0.02689 -0.372404,-0.140926 -0.380463,-0.114024 z" /><path
       style="opacity:0.709769;fill:#0000ff;stroke:#000000;stroke-width:0.867663;stroke-linejoin:round;stroke-dasharray:none;paint-order:stroke fill markers;stop-color:#000000"
       id="path1776"
       d="m 62.319639,46.425132 c -0.137704,0.06622 0.112102,-0.16588 0.06157,-0.148289 -0.100916,0.03514 -0.188951,0.100928 -0.288471,0.139845 -0.02989,0.01158 -0.08094,-0.01809 -0.0957,0.01035 -0.05666,0.109453 -0.116919,0.749362 -0.120467,0.779485 -0.03348,0.398202 -0.09434,0.925995 -0.05927,1.325061 0.01823,0.207666 0.07103,0.411094 0.118853,0.614 0.03106,0.131791 0.100349,0.56791 0.319223,0.641511 0.07759,0.02608 0.15905,-0.0388 0.238576,-0.05818 0.02698,-0.09472 0.06458,-0.18701 0.08097,-0.284117 0.05149,-0.305571 0.02379,-0.628591 -0.02715,-0.932011 -0.01777,-0.105844 -0.0434,-0.210242 -0.06169,-0.315992 -0.0021,-0.03963 -0.0038,-0.07926 -0.0062,-0.118878 2e-6,-0.006 -0.08431,-0.006 -0.08431,-3.1e-5 v 0 c -0.0021,0.04076 -0.0041,0.08152 -0.0062,0.122266 -0.01752,0.198019 -0.0065,0.0919 -0.03467,0.318226 -0.0342,0.37452 -0.02316,0.75288 0.02638,1.125545 0.03977,0.02163 0.08119,0.08935 0.119322,0.06494 0.04969,-0.0318 0.03838,-0.112373 0.04612,-0.170859 0.018,-0.135848 0.01571,-0.273748 0.0308,-0.409946 0.02178,-0.19641 0.06546,-0.390359 0.07977,-0.587455 0.03655,-0.502768 0.0043,-0.833194 -0.02149,-1.332918 -0.03016,-0.279642 -0.04063,-0.612428 -0.152032,-0.881719 -0.03819,-0.09233 -0.06478,-0.226341 -0.161138,-0.25275 -0.119901,-0.03287 -0.250424,0.04547 -0.356076,0.111006 -0.04848,0.03007 -0.0023,0.210984 0.0031,0.240853 0,0.02475 0.349936,0.02475 0.349936,0 z" /><path
       style="opacity:0.709769;fill:#0000ff;stroke:#000000;stroke-width:0.867663;stroke-linejoin:round;stroke-dasharray:none;paint-order:stroke fill markers;stop-color:#000000"
       id="path1778"
       d="m 62.485008,47.356925 c -0.01823,0.06664 -0.04289,0.131822 -0.05471,0.199879 -0.01586,0.09133 -0.0196,0.184374 -0.02807,0.276694 -0.02288,0.249725 -0.04879,0.518793 -0.04136,0.769654 0.0038,0.13354 0.02402,0.26612 0.03408,0.399334 0.0086,0.11363 0.01456,0.227427 0.02186,0.341138 0.11342,0.0016 -0.02091,0.305378 0.09039,0.357655 0.03145,0.01476 0.07839,-0.0095 0.09663,-0.03908 0.02687,-0.04359 0.01619,-0.101174 0.02124,-0.152124 0.02229,-0.22575 0.01932,-0.297453 0.025,-0.531695 0.0046,-0.240251 -0.01134,-0.480661 -0.0038,-0.720899 0.01589,-0.271631 0.01,-0.138013 0.01817,-0.400838 4.72e-4,-0.0095 -0.134414,-0.01623 -0.134888,-0.0068 v 0 c -0.01146,0.132834 -0.01871,0.266078 -0.03297,0.398645 -0.02617,0.243092 -0.07554,0.484339 -0.06739,0.730432 0.0075,0.24731 -0.0016,0.306767 0.04575,0.541931 0.0122,0.06025 0.0086,0.131924 0.0497,0.177551 0.179144,0.198514 0.294449,-0.311149 0.296357,-0.335053 0.0188,-0.10455 0.122267,-0.6705 0.129491,-0.750283 0.02246,-0.248133 0.0015,-0.531636 -0.01859,-0.779688 -0.0075,-0.0924 -0.0122,-0.185358 -0.02807,-0.276696 -0.01183,-0.06806 -0.03647,-0.13325 -0.05471,-0.199877 0,-0.02575 -0.364101,-0.02575 -0.364101,0 z" /><path
       style="opacity:0.709769;fill:#0000ff;stroke:#000000;stroke-width:0.867663;stroke-linejoin:round;stroke-dasharray:none;paint-order:stroke fill markers;stop-color:#000000"
       id="path1780"
       d="m 62.46968,47.219637 c -0.05241,0.628118 -0.09164,1.259669 -0.01096,1.887725 0.02266,0.176314 0.06891,0.348812 0.09978,0.523869 0.02175,0.123128 0.03869,0.247059 0.05804,0.370589 0.02197,0.0485 0.01981,0.118854 0.06593,0.145495 0.02929,0.01695 0.07279,-0.02749 0.08179,-0.06011 0.01488,-0.05395 -0.01133,-0.111387 -0.01917,-0.166816 -0.03785,-0.269241 -0.09261,-0.534717 -0.148108,-0.800719 -0.01513,-0.05804 -0.0316,-0.115749 -0.04535,-0.174126 -0.0097,-0.04165 -0.03163,-0.11809 -0.0076,-0.127988 0.0099,-0.0041 0.01892,0.01 0.0284,0.01509 0.0023,0.001 0.01624,-0.03222 0.01389,-0.03322 v 0 c -0.02434,-10e-4 -0.04998,-0.01035 -0.07305,-0.0025 -0.122525,0.0418 -0.09277,0.263534 -0.10397,0.34529 0.02268,0.28397 0.05089,0.563379 0.162669,0.829576 0.05516,0.131352 0.110463,0.313157 0.309424,0.215012 0.06718,-0.03312 0.09454,-0.116193 0.141827,-0.174278 0.05278,-0.249386 0.153405,-0.696355 0.171139,-0.92829 0.04971,-0.650133 -0.06101,-1.305016 -0.254168,-1.923706 -0.0041,-0.03327 -0.474652,0.0259 -0.470469,0.05917 z" /><path
       style="opacity:0.709769;fill:#0000ff;stroke:#000000;stroke-width:0.867663;stroke-linejoin:round;stroke-dasharray:none;paint-order:stroke fill markers;stop-color:#000000"
       id="path1782"
       d="m 61.642799,49.391579 c -0.02202,0.180636 -0.03842,0.240461 -0.01387,0.439011 0.03722,0.301359 0.145841,0.643906 0.349976,0.876038 0.071,0.08075 0.166357,0.136246 0.249533,0.204366 0.305888,0.05028 0.398911,0.116845 0.69928,-0.06584 0.08835,-0.05372 0.147857,-0.146347 0.206218,-0.231692 0.11172,-0.163383 0.157692,-0.307894 0.170381,-0.501825 0.0041,-0.0644 -0.0091,-0.128741 -0.01371,-0.193107 -0.02156,-0.04214 -0.03461,-0.08988 -0.06471,-0.126435 -0.14631,-0.177764 -0.360399,0.04454 -0.444573,0.164469 -0.02866,0.04082 -0.04947,0.08661 -0.07419,0.129902 -0.06245,0.01975 -0.09781,0.409403 0.02438,0.212274 0.0078,-0.0657 0.0087,-0.03241 -0.0036,-0.09982 -4.72e-4,-0.0023 -0.03386,0.0038 -0.03343,0.0062 v 0 c 0.01539,0.05645 0.0117,0.0285 0.0122,0.08372 -0.0054,0.01647 -0.02936,0.06277 -0.02284,0.04671 0.02931,-0.07241 0.08597,-0.131531 0.11905,-0.201716 0.03181,-0.04873 0.219856,-0.340083 0.277037,-0.342283 0.05883,-0.0023 0.03424,0.116328 0.03423,0.120504 -0.0095,0.04932 -0.01305,0.100176 -0.02852,0.147954 -0.03236,0.100003 -0.129313,0.295719 -0.191687,0.376038 -0.0405,0.05215 -0.09608,0.09062 -0.142832,0.137269 -0.01582,0.01581 -0.02255,0.04731 -0.04475,0.0499 -0.03775,0.0044 -0.07296,-0.02135 -0.109428,-0.03203 -0.04625,-0.04536 -0.09796,-0.08579 -0.13875,-0.136142 -0.241378,-0.298002 -0.351254,-0.690468 -0.452074,-1.053267 6.89e-4,-0.02568 -0.362566,-0.03594 -0.363289,-0.01035 z" /><path
       style="opacity:0.709769;fill:#0000ff;stroke:#000000;stroke-width:0.867663;stroke-linejoin:round;stroke-dasharray:none;paint-order:stroke fill markers;stop-color:#000000"
       id="path1784"
       d="m 62.848392,48.922675 c -0.160758,0.32507 -0.319496,0.658087 -0.430486,1.004265 -0.03735,0.116463 -0.05406,0.238752 -0.08896,0.355971 -0.110475,0.370931 -0.06795,0.113531 -0.09424,0.292126 0.02533,-0.0117 0.05994,-0.01238 0.07603,-0.03527 0.02566,-0.0365 0.02266,-0.08652 0.03887,-0.128075 0.02354,-0.06038 0.04982,-0.119876 0.08012,-0.17717 0.09259,-0.175008 0.209266,-0.33944 0.324469,-0.499956 -0.0601,0.01396 0.139251,-0.162255 0.092,-0.173267 -0.01376,-0.0032 -0.02808,0.0032 -0.04211,0.0049 -0.0012,0.0012 0.01615,0.0186 0.01736,0.01736 v 0 c 0.0047,-0.0122 0.01855,-0.02431 0.01443,-0.03681 -0.01759,-0.05289 -0.197092,0.133363 -0.196354,0.110673 -0.203535,0.205606 -0.405628,0.441616 -0.451185,0.740106 -0.0095,0.06156 -0.02197,0.131032 0.006,0.18667 0.02856,0.05689 0.09881,0.0803 0.148215,0.120455 0.25396,-0.06483 0.175587,-0.01035 0.384488,-0.25895 0.08839,-0.105203 0.181652,-0.208343 0.251199,-0.326856 0.121835,-0.207619 0.254023,-0.586264 0.299547,-0.824369 0.01947,-0.101851 0.01403,-0.206914 0.02108,-0.310372 0.0044,-0.03185 -0.446056,-0.09329 -0.4504,-0.06143 z" /><path
       style="opacity:0.709769;fill:#0000ff;stroke:#000000;stroke-width:0.867663;stroke-linejoin:round;stroke-dasharray:none;paint-order:stroke fill markers;stop-color:#000000"
       id="path1786"
       d="m 62.342811,49.474931 c -0.038,0.12549 -0.05592,0.24847 -0.04417,0.379316 0.0075,0.08471 2.37e-4,0.161431 0.121638,0.167032 0.05619,0.0025 0.108418,-0.03001 0.162636,-0.04499 0.06095,-0.04859 0.126649,-0.09175 0.182812,-0.145812 0.339341,-0.326578 0.574948,-0.788746 0.778168,-1.208213 0.103342,-0.05017 0.148806,-0.162845 0.234606,-0.231446 0.01035,-0.0083 -0.0063,0.03405 -0.01973,0.03487 -0.09759,0.006 -0.205809,-0.06011 -0.292881,-0.01565 -0.07148,0.03649 -0.07127,0.143873 -0.102775,0.21767 -0.05223,0.122377 -0.09887,0.24707 -0.148311,0.370604 -0.29068,0.841524 -0.02672,0.04079 -0.272874,0.900404 -0.03771,0.131673 -0.08402,0.260748 -0.123393,0.391938 -0.02651,0.08839 -0.114997,0.389508 -0.132923,0.513311 -0.0036,0.02472 0.0031,0.04986 0.0046,0.07478 0.02474,-0.0075 0.05492,-0.0054 0.07423,-0.02253 0.02604,-0.02317 0.156488,-0.24751 0.162421,-0.257846 0.07031,-0.122414 0.134142,-0.247134 0.193239,-0.375224 0.01615,0.02479 0.01931,-0.08926 0.04544,-0.0709 0.0012,4.72e-4 0.0086,-0.01568 0.0074,-0.01621 v 0 c -0.05106,-0.0068 -0.08064,0.01589 -0.119975,0.05024 -0.102344,0.109391 -0.186213,0.224455 -0.25262,0.360045 -0.0265,0.05412 -0.104895,0.22536 -0.09267,0.301814 0.0051,0.03129 0.03835,0.05049 0.05752,0.07572 0.0317,-0.01524 0.06891,-0.02222 0.09511,-0.04568 0.128827,-0.115318 0.249825,-0.324475 0.326292,-0.464806 0.06728,-0.123481 0.123932,-0.252481 0.186976,-0.378186 0.304779,-0.607719 0.151172,-0.25229 0.393135,-0.888602 0.01476,-0.05783 0.180209,-0.584945 0.120196,-0.714366 -0.102948,-0.222023 -0.232608,-0.370237 -0.394283,-0.212418 -0.03489,0.03407 -0.06064,0.07859 -0.07644,0.124708 -0.02253,0.06575 -0.02443,0.13683 -0.03665,0.205248 -0.272336,0.455388 -0.556288,0.906545 -0.867781,1.336007 -0.01613,0.02284 -0.03198,0.04586 -0.04836,0.06849 -0.0028,0.0039 -0.01023,0.01623 -0.0094,0.01134 0.01485,-0.09639 0.02767,-0.08139 0.08252,-0.177809 0.05713,-0.100434 0.06589,-0.126299 0.111424,-0.228337 0.006,-0.0216 -0.299208,-0.106139 -0.305186,-0.08454 z" /><path
       style="fill:#ffffff;stroke:#000000;stroke-width:0.867663;stroke-linecap:butt;stroke-linejoin:miter;stroke-dasharray:none;stroke-opacity:1"
       d="m 55.249056,46.541348 c 0,0 -1.400264,-2.296493 -4.968266,-1.340449 -3.568001,0.956044 -4.056808,2.091085 -4.056808,2.091085 0,0 1.340448,3.717337 4.575123,3.717337 3.234673,0 4.449951,-4.467973 4.449951,-4.467973 z"
       id="path1611-6" /><path
       style="opacity:0.709769;fill:#0000ff;stroke:#000000;stroke-width:0.867663;stroke-linejoin:round;stroke-dasharray:none;paint-order:stroke fill markers;stop-color:#000000"
       id="path1770-7"
       d="m 51.386284,50.061883 c 0.0122,-0.1157 0.01889,-0.232103 0.03651,-0.347099 0.02532,-0.165321 0.06849,-0.327642 0.09222,-0.493199 0.05769,-0.402685 0.09758,-0.877886 0.07577,-1.282995 -0.0307,-0.570481 -0.0924,-0.705825 -0.230444,-1.236524 0.107149,-0.08639 -0.308298,-0.457029 -0.435982,-0.327632 -0.05122,0.05189 0.05091,0.147922 0.02754,0.216973 -0.05227,0.154421 -0.180168,0.273802 -0.244437,0.423632 -0.219412,0.51151 -0.230837,0.758803 -0.328141,1.304096 -0.0012,0.109552 -0.05369,0.792948 0.07811,0.96263 0.150534,0.193807 0.520623,0.125351 0.696045,0.09124 0.421161,-0.0819 0.705908,-0.19314 1.108522,-0.329709 0.02432,-0.01568 0.246114,0.328268 0.221794,0.343951 v 0 c -0.182579,0.08473 -0.35768,0.187892 -0.547727,0.254195 -0.442971,0.154536 -0.985202,0.260288 -1.453861,0.158964 -0.395162,-0.08543 -0.835367,-0.474961 -0.984489,-0.839881 -0.0993,-0.242976 -0.07073,-0.520176 -0.106089,-0.780264 0.122845,-0.769592 0.0734,-0.986135 0.516947,-1.656153 0.359553,-0.543136 0.711786,-0.829803 1.413912,-0.821207 0.494566,0.006 0.715924,0.454548 0.964779,0.77177 0.07604,0.236108 0.180413,0.464904 0.228109,0.708321 0.150326,0.767211 0.05147,1.519863 -0.21129,2.247631 -0.06238,0.172766 -0.13621,0.342221 -0.225018,0.50301 -0.06697,0.121269 -0.160099,0.226126 -0.240148,0.33919 -0.01492,0.03201 -0.467534,-0.178929 -0.452618,-0.210935 z" /><path
       style="opacity:0.709769;fill:#0000ff;stroke:#000000;stroke-width:0.867663;stroke-linejoin:round;stroke-dasharray:none;paint-order:stroke fill markers;stop-color:#000000"
       id="path1772-5"
       d="m 51.56871,47.004307 c 0.132143,0.419195 0.192973,0.855483 0.218729,1.293294 0.02565,0.435797 0.03361,0.572609 -0.06462,0.979924 -0.02013,0.08352 -0.05852,0.161547 -0.08778,0.242319 -0.05271,0.0075 -0.112065,0.04912 -0.158078,0.02239 -0.07095,-0.0412 -0.104809,-0.127287 -0.145371,-0.198594 -0.09142,-0.160677 -0.283316,-0.624938 -0.346728,-0.773241 -0.0063,-0.0222 0.3077,-0.113481 0.314155,-0.09128 v 0 c 0.08304,0.300813 0.154335,0.510819 0.193403,0.814726 0.0086,0.06642 0.02636,0.137796 0.0038,0.200827 -0.01047,0.02949 -0.05851,0.02245 -0.08776,0.03365 -0.110783,-0.22277 -0.195995,-0.37524 -0.263968,-0.634205 -0.04637,-0.176668 -0.07148,-0.358516 -0.0953,-0.539608 -0.0586,-0.445693 -0.0765,-0.896064 0.0122,-1.339028 -6.87e-4,-0.03588 0.50663,-0.04706 0.507419,-0.01109 z" /><path
       style="opacity:0.709769;fill:#0000ff;stroke:#000000;stroke-width:0.867663;stroke-linejoin:round;stroke-dasharray:none;paint-order:stroke fill markers;stop-color:#000000"
       id="path1774-3"
       d="m 50.965365,47.22625 c 0.188284,0.326132 0.277894,0.687203 0.340834,1.055439 0.05959,0.3486 0.07738,0.489905 0.0525,0.829137 -0.0058,0.07754 -0.0243,0.153578 -0.03644,0.230367 -0.05193,0.0075 -0.110402,0.04914 -0.155787,0.02277 -0.09846,-0.05717 -0.295672,-0.491483 -0.31444,-0.533167 -0.05965,-0.132518 -0.108985,-0.269458 -0.164717,-0.403674 -0.156804,-0.377621 -0.17583,-0.416192 -0.334885,-0.778274 -0.348335,-0.297329 -0.170363,-0.112533 -0.359577,-0.354208 -0.01183,-0.01519 0.01449,0.04199 0.03294,0.04758 0.08624,0.02603 0.201816,-0.01945 0.266798,0.04294 0.07943,0.07623 0.07466,0.207341 0.104364,0.313344 0.04369,0.155867 0.0771,0.314431 0.115638,0.471644 0.0636,0.448043 0.147268,0.894018 0.1974,1.343993 0.0038,0.03526 0.02845,0.301727 0.01716,0.372868 -0.007,0.0447 -0.02815,0.08603 -0.04222,0.129026 -0.123055,0.223599 -0.31441,0.398974 -0.485889,0.584677 -0.0097,0.01195 -0.180253,-0.126579 -0.17045,-0.138635 v 0 c 0.189064,-0.15673 0.384914,-0.303982 0.569616,-0.465541 0.0051,-0.02808 0.02266,-0.05666 0.01526,-0.08421 -0.01158,-0.04323 -0.04554,-0.0771 -0.06885,-0.11533 -0.04264,-0.06994 -0.09062,-0.136796 -0.128978,-0.209178 -0.220304,-0.41572 -0.369999,-0.865416 -0.511664,-1.312251 -0.02609,-0.151771 -0.157651,-0.731709 -0.08245,-0.923238 0.05782,-0.147232 0.165853,-0.284519 0.300831,-0.366989 0.113617,-0.06943 0.37207,0.158034 0.40554,0.218738 0.05636,0.102246 0.0607,0.225476 0.09105,0.338212 0.06579,0.123395 0.138951,0.243147 0.197399,0.370194 0.129682,0.281904 0.214414,0.544015 0.291198,0.843379 0.0067,0.02587 0.119359,0.4593 0.08501,0.562428 -0.0106,0.03205 -0.0608,0.02941 -0.09119,0.04409 -0.08034,-0.190806 -0.148033,-0.341888 -0.210674,-0.547522 -0.04364,-0.143305 -0.07657,-0.289676 -0.112496,-0.435106 -0.08469,-0.342695 -0.162947,-0.686932 -0.193299,-1.039487 -0.008,-0.02689 0.372404,-0.140925 0.380465,-0.114024 z" /><path
       style="opacity:0.709769;fill:#0000ff;stroke:#000000;stroke-width:0.867663;stroke-linejoin:round;stroke-dasharray:none;paint-order:stroke fill markers;stop-color:#000000"
       id="path1776-5"
       d="m 51.211432,46.549801 c 0.137705,0.06622 -0.112101,-0.16588 -0.06156,-0.148287 0.100915,0.03514 0.188951,0.100928 0.28847,0.139845 0.02989,0.01158 0.08094,-0.01809 0.0957,0.01035 0.05666,0.10944 0.116919,0.749361 0.120467,0.779483 0.03347,0.398201 0.09434,0.925994 0.05926,1.325062 -0.01825,0.207666 -0.07103,0.411094 -0.118865,0.614 -0.03106,0.131792 -0.100349,0.56791 -0.319223,0.641511 -0.07759,0.02609 -0.159052,-0.0388 -0.238575,-0.05818 -0.02699,-0.09472 -0.06458,-0.187011 -0.08094,-0.284118 -0.05147,-0.305569 -0.02378,-0.628589 0.02715,-0.932012 0.01777,-0.105843 0.0434,-0.21024 0.06169,-0.315992 0.0021,-0.03963 0.0038,-0.07926 0.0062,-0.118878 -2e-6,-0.006 0.08431,-0.006 0.08431,-3.2e-5 v 0 c 0.0021,0.04075 0.0041,0.08152 0.0062,0.122266 0.01753,0.198018 0.0065,0.0919 0.03467,0.318225 0.0342,0.374519 0.02316,0.752882 -0.02636,1.125545 -0.03977,0.02163 -0.08119,0.08935 -0.119322,0.06494 -0.04969,-0.0318 -0.03838,-0.112373 -0.04614,-0.170857 -0.01801,-0.135848 -0.01571,-0.27375 -0.0308,-0.409949 -0.02178,-0.196409 -0.06546,-0.390358 -0.07979,-0.587452 -0.03654,-0.502771 -0.0044,-0.833196 0.02149,-1.33292 0.03015,-0.279644 0.04063,-0.612429 0.152032,-0.88172 0.03819,-0.09232 0.06478,-0.22634 0.161137,-0.252749 0.119901,-0.03287 0.250426,0.04547 0.356079,0.111006 0.04848,0.03007 0.0023,0.210981 -0.0031,0.240854 0,0.02475 -0.349935,0.02475 -0.349935,0 z" /><path
       style="opacity:0.709769;fill:#0000ff;stroke:#000000;stroke-width:0.867663;stroke-linejoin:round;stroke-dasharray:none;paint-order:stroke fill markers;stop-color:#000000"
       id="path1778-6"
       d="m 51.046065,47.481596 c 0.01823,0.06663 0.04289,0.13182 0.0547,0.199877 0.01584,0.09133 0.0196,0.184375 0.02808,0.276694 0.02287,0.249726 0.04879,0.518793 0.04136,0.769655 -0.0038,0.133539 -0.02401,0.266121 -0.03409,0.399334 -0.0086,0.113617 -0.01456,0.227426 -0.02186,0.341137 -0.11342,0.0016 0.02089,0.30538 -0.09039,0.357654 -0.03145,0.01477 -0.07839,-0.0095 -0.09663,-0.03907 -0.02687,-0.04359 -0.01619,-0.101174 -0.02123,-0.152123 -0.02228,-0.225751 -0.01931,-0.297454 -0.025,-0.531695 -0.0046,-0.240251 0.01133,-0.48066 0.0038,-0.720898 -0.01589,-0.271632 -0.01,-0.138014 -0.01816,-0.400839 -4.73e-4,-0.0096 0.134413,-0.01624 0.134888,-0.0068 v 0 c 0.01146,0.132834 0.01872,0.266077 0.03297,0.398646 0.02618,0.243091 0.07554,0.484337 0.06739,0.730434 -0.0075,0.247305 0.0016,0.306763 -0.04574,0.541928 -0.0122,0.06025 -0.0086,0.131924 -0.04971,0.177551 -0.179144,0.198516 -0.294449,-0.311149 -0.296356,-0.335054 -0.01883,-0.10455 -0.122266,-0.670496 -0.129495,-0.750281 -0.02246,-0.248134 -0.0015,-0.531637 0.0186,-0.77969 0.0075,-0.0924 0.0122,-0.185357 0.02808,-0.276694 0.01183,-0.06807 0.03647,-0.133251 0.0547,-0.199878 0,-0.02575 0.364099,-0.02575 0.364099,0 z" /><path
       style="opacity:0.709769;fill:#0000ff;stroke:#000000;stroke-width:0.867663;stroke-linejoin:round;stroke-dasharray:none;paint-order:stroke fill markers;stop-color:#000000"
       id="path1780-2"
       d="m 51.061392,47.344306 c 0.05241,0.628118 0.09164,1.259668 0.01096,1.887727 -0.02266,0.176314 -0.06891,0.348811 -0.09978,0.523867 -0.02175,0.123128 -0.03869,0.247059 -0.05804,0.37059 -0.02197,0.0485 -0.01981,0.118853 -0.06593,0.145497 -0.02928,0.01695 -0.07279,-0.02749 -0.08178,-0.06011 -0.01488,-0.05396 0.01134,-0.111388 0.01917,-0.166817 0.03786,-0.26924 0.09259,-0.534718 0.148108,-0.800719 0.01513,-0.05805 0.0316,-0.115749 0.04535,-0.174127 0.0097,-0.04165 0.03164,-0.11809 0.0076,-0.127986 -0.0099,-0.0041 -0.01892,0.01 -0.0284,0.01509 -0.0023,10e-4 -0.01624,-0.03222 -0.01388,-0.0332 v 0 c 0.02434,-10e-4 0.05,-0.01035 0.07305,-0.0025 0.122525,0.0418 0.09277,0.263532 0.103971,0.345287 -0.02268,0.283974 -0.05089,0.563382 -0.16267,0.829578 -0.05516,0.131351 -0.110463,0.313156 -0.309424,0.215013 -0.06718,-0.03313 -0.09455,-0.116192 -0.141824,-0.174277 -0.05278,-0.249386 -0.153406,-0.696356 -0.171142,-0.928292 -0.0497,-0.650135 0.06101,-1.305015 0.254167,-1.923707 0.0041,-0.03327 0.474653,0.0259 0.47047,0.05917 z" /><path
       style="opacity:0.709769;fill:#0000ff;stroke:#000000;stroke-width:0.867663;stroke-linejoin:round;stroke-dasharray:none;paint-order:stroke fill markers;stop-color:#000000"
       id="path1782-9"
       d="m 51.888272,49.516249 c 0.02203,0.180638 0.03842,0.240461 0.01388,0.439009 -0.03722,0.301361 -0.145841,0.643907 -0.349977,0.876041 -0.07099,0.08072 -0.166355,0.136243 -0.249531,0.204366 -0.305888,0.05029 -0.398912,0.116845 -0.699281,-0.06584 -0.08835,-0.05373 -0.147856,-0.146348 -0.206217,-0.231692 -0.11172,-0.163383 -0.157693,-0.307894 -0.170381,-0.501827 -0.0041,-0.06439 0.0091,-0.128736 0.01371,-0.193106 0.02156,-0.04213 0.03461,-0.08988 0.06471,-0.126435 0.146312,-0.177763 0.360401,0.04454 0.444576,0.164471 0.02866,0.0408 0.04947,0.08661 0.07419,0.1299 0.06245,0.01975 0.09781,0.409405 -0.02438,0.212275 -0.0078,-0.0657 -0.0087,-0.03243 0.0036,-0.09983 4.73e-4,-0.0023 0.03387,0.0038 0.03343,0.0062 v 0 c -0.01539,0.05645 -0.0117,0.0285 -0.0122,0.08372 0.0054,0.01648 0.02936,0.06277 0.02284,0.04671 -0.0293,-0.07239 -0.08597,-0.131531 -0.119051,-0.201716 -0.0318,-0.04873 -0.219852,-0.340084 -0.277034,-0.342283 -0.05883,-0.0023 -0.03424,0.116327 -0.03423,0.120504 0.0095,0.04932 0.01305,0.100176 0.02851,0.147954 0.03237,0.100003 0.129314,0.295721 0.191687,0.376041 0.04051,0.05215 0.09609,0.09061 0.142831,0.137267 0.01582,0.01581 0.02255,0.04731 0.04475,0.04987 0.03776,0.0044 0.07296,-0.02135 0.109428,-0.03203 0.04625,-0.04536 0.09796,-0.08579 0.138746,-0.136142 0.241379,-0.298 0.351257,-0.690468 0.452075,-1.053266 -6.88e-4,-0.02569 0.362565,-0.03593 0.36329,-0.01035 z" /><path
       style="opacity:0.709769;fill:#0000ff;stroke:#000000;stroke-width:0.867663;stroke-linejoin:round;stroke-dasharray:none;paint-order:stroke fill markers;stop-color:#000000"
       id="path1784-1"
       d="m 50.68268,49.047345 c 0.160757,0.325071 0.319496,0.658086 0.430486,1.004265 0.03733,0.116463 0.05405,0.23875 0.08897,0.355971 0.110475,0.370931 0.06795,0.113543 0.09424,0.292124 -0.02533,-0.0117 -0.05994,-0.01238 -0.07604,-0.03527 -0.02566,-0.0365 -0.02266,-0.08652 -0.03887,-0.128076 -0.02354,-0.06038 -0.04982,-0.119876 -0.08012,-0.177168 -0.09257,-0.175011 -0.209268,-0.339442 -0.324471,-0.499956 0.06009,0.01396 -0.13925,-0.162255 -0.092,-0.173268 0.01376,-0.0032 0.02808,0.0032 0.04212,0.0049 0.0012,0.0012 -0.01615,0.01859 -0.01736,0.01736 v 0 c -0.0047,-0.0122 -0.01857,-0.02431 -0.01443,-0.03681 0.01759,-0.0529 0.19709,0.133365 0.196351,0.110673 0.203536,0.205604 0.405629,0.441614 0.451185,0.740105 0.0094,0.06156 0.02197,0.131032 -0.006,0.186673 -0.02856,0.0569 -0.09881,0.0803 -0.148213,0.120455 -0.25396,-0.06483 -0.17559,-0.01035 -0.38449,-0.258951 -0.0884,-0.105202 -0.181651,-0.208344 -0.251197,-0.326857 -0.121835,-0.207618 -0.254025,-0.586262 -0.299547,-0.824367 -0.01947,-0.101852 -0.01403,-0.206915 -0.02108,-0.310373 -0.0044,-0.03185 0.446055,-0.09329 0.450399,-0.06143 z" /><path
       style="opacity:0.709769;fill:#0000ff;stroke:#000000;stroke-width:0.867663;stroke-linejoin:round;stroke-dasharray:none;paint-order:stroke fill markers;stop-color:#000000"
       id="path1786-2"
       d="m 51.188261,49.5996 c 0.038,0.125489 0.05592,0.248472 0.04417,0.379317 -0.0075,0.08471 -2.36e-4,0.161431 -0.121638,0.16703 -0.05619,0.0025 -0.108418,-0.03001 -0.162633,-0.04502 -0.06095,-0.04862 -0.126651,-0.09175 -0.182813,-0.145809 -0.33934,-0.326577 -0.574948,-0.788747 -0.778168,-1.208215 -0.103342,-0.05014 -0.148808,-0.162845 -0.234607,-0.231444 -0.01035,-0.0083 0.0063,0.03405 0.01973,0.03487 0.09759,0.006 0.20581,-0.06011 0.292881,-0.01565 0.07148,0.03649 0.07127,0.143872 0.102775,0.217671 0.05223,0.122376 0.09887,0.247068 0.148311,0.370603 0.290679,0.841523 0.02672,0.04079 0.272874,0.900404 0.03771,0.131674 0.08402,0.260748 0.123381,0.391938 0.02651,0.08839 0.114997,0.389508 0.132924,0.513313 0.0036,0.02471 -0.0031,0.04985 -0.0046,0.07478 -0.02473,-0.0075 -0.05491,-0.0054 -0.07423,-0.02253 -0.02604,-0.02317 -0.156489,-0.247509 -0.162422,-0.257844 -0.07029,-0.122414 -0.134141,-0.247133 -0.193241,-0.375224 -0.01615,0.02481 -0.01931,-0.08926 -0.04544,-0.0709 -0.0012,4.73e-4 -0.0086,-0.01568 -0.0074,-0.01621 v 0 c 0.05106,-0.0068 0.08064,0.01587 0.119974,0.05023 0.102345,0.109392 0.186216,0.224458 0.252623,0.360048 0.0265,0.05412 0.104895,0.225358 0.09266,0.301813 -0.0051,0.03129 -0.03837,0.05049 -0.05752,0.07572 -0.03173,-0.01524 -0.06891,-0.02223 -0.09511,-0.04567 -0.128826,-0.115318 -0.249826,-0.324477 -0.326293,-0.464807 -0.06728,-0.123482 -0.123931,-0.252481 -0.186975,-0.378187 -0.30478,-0.607718 -0.151171,-0.252289 -0.393136,-0.888601 -0.01475,-0.05783 -0.180208,-0.584946 -0.120196,-0.714367 0.102973,-0.222025 0.232608,-0.370236 0.394286,-0.212418 0.03489,0.03406 0.06064,0.07859 0.07643,0.124707 0.02253,0.06575 0.02443,0.13683 0.03665,0.205247 0.272335,0.455389 0.556287,0.906544 0.867778,1.336008 0.01613,0.02284 0.03198,0.04586 0.04837,0.06849 0.0028,0.0038 0.0101,0.01623 0.0094,0.01133 -0.01485,-0.09639 -0.02767,-0.08139 -0.08252,-0.177808 -0.05714,-0.100435 -0.06589,-0.126301 -0.111437,-0.228339 -0.006,-0.0216 0.299207,-0.106138 0.305184,-0.08454 z" /><path
       style="opacity:0.709769;fill:#000000;stroke:#000000;stroke-width:0.867663;stroke-linejoin:round;stroke-dasharray:none;paint-order:stroke fill markers;stop-color:#000000"
       id="path1940"
       d="m 53.906507,60.723333 c 0.380738,0.492031 0.903141,0.862461 1.466258,1.121325 0.242229,0.111351 0.491583,0.211294 0.749182,0.27997 0.293053,0.07812 0.597291,0.105757 0.895936,0.158637 1.016994,-0.0437 1.301294,0.03991 2.201683,-0.310386 0.265757,-0.103392 0.510869,-0.254519 0.756905,-0.398682 0.376536,-0.22062 0.647282,-0.387542 0.895623,-0.740257 0.06191,-0.08792 0.08765,-0.196377 0.131466,-0.294564 -0.0165,-0.199362 -0.03381,-0.356218 -0.269347,-0.378975 -0.04788,-0.0046 -0.09579,0.0089 -0.143695,0.01328 -0.0054,0.002 0.02215,0.07636 0.02741,0.07444 v 0 c 0.02577,-0.0046 0.05121,-0.01505 0.07735,-0.01356 0.03265,0.002 0.141241,0.02474 0.144334,0.08242 0.002,0.03541 -0.03105,0.06373 -0.04657,0.09562 -0.06594,0.04759 -0.1259,0.104857 -0.197835,0.142804 -0.130611,0.06892 -0.268468,0.123658 -0.406535,0.176047 -0.194727,0.0739 -0.389041,0.152012 -0.591104,0.202493 -0.25744,0.06431 -0.521311,0.09995 -0.783482,0.140915 -0.690429,0.107852 -0.778297,0.107236 -1.395631,0.161886 -0.251311,-0.02237 -0.505539,-0.02284 -0.75393,-0.06711 -0.234517,-0.0418 -0.461272,-0.119839 -0.688912,-0.190022 -0.556828,-0.171685 -1.094937,-0.394364 -1.615707,-0.654823 -0.02818,-0.03206 -0.481583,0.366509 -0.453399,0.398568 z" /><path
       style="fill:#ffff00;stroke:#000000;stroke-width:0.867663;stroke-linecap:butt;stroke-linejoin:miter;stroke-dasharray:none;stroke-opacity:1"
       d="m 42.650891,37.477103 c 0,0 2.857796,-8.273248 16.20071,-8.694712 13.342915,-0.421461 17.859145,9.571914 19.385397,11.85418 l 0.555981,1.617825 c 0,0 -8.010961,-9.765043 -17.995274,-10.00919 -11.295407,-0.276212 -19.132743,6.445537 -19.132743,6.445537 z"
       id="path2007"
       sodipodi:nodetypes="czccscc" /><path
       style="fill:#ffffff;stroke:#000000;stroke-width:0.867663;stroke-linecap:butt;stroke-linejoin:miter;stroke-dasharray:none;stroke-opacity:1"
       d="m 60.846819,32.874058 -1.199545,-1.547621 1.373634,-2.089398 1.102642,1.982953 z"
       id="path2009" /><path
       style="fill:#ffffff;stroke:#000000;stroke-width:0.867663;stroke-linecap:butt;stroke-linejoin:miter;stroke-dasharray:none;stroke-opacity:1"
       d="m 66.340093,33.684789 -1.199547,-1.54762 1.373634,-2.089398 1.102642,1.982952 z"
       id="path2009-7" /><path
       style="fill:#ffffff;stroke:#000000;stroke-width:0.867663;stroke-linecap:butt;stroke-linejoin:miter;stroke-dasharray:none;stroke-opacity:1"
       d="m 55.417585,32.952328 -1.199545,-1.54762 1.373635,-2.089397 1.102641,1.98295 z"
       id="path2009-0" /><path
       style="fill:#ffffff;stroke:#000000;stroke-width:0.867663;stroke-linecap:butt;stroke-linejoin:miter;stroke-dasharray:none;stroke-opacity:1"
       d="m 48.598281,35.567318 -1.199546,-1.547621 1.373635,-2.089398 1.102641,1.982953 z"
       id="path2009-9" /><path
       style="fill:#ffffff;stroke:#000000;stroke-width:0.867663;stroke-linecap:butt;stroke-linejoin:miter;stroke-dasharray:none;stroke-opacity:1"
       d="m 72.697667,36.412675 -1.199545,-1.547622 1.373635,-2.089397 1.102642,1.982952 z"
       id="path2009-9-3" /><path
       style="fill:#ffffff;stroke:#000000;stroke-width:0.867663;stroke-linecap:butt;stroke-linejoin:miter;stroke-dasharray:none;stroke-opacity:1"
       d="m 56.156896,40.833193 -1.199545,-1.54762 1.373635,-2.089399 1.102641,1.982952 z"
       id="path2009-9-6" /><path
       style="opacity:1;fill:#ffff00;stroke:#000000;stroke-width:0.867663;stroke-linejoin:round;stroke-dasharray:none;paint-order:stroke fill markers;stop-color:#000000"
       id="path2120"
       d="m 49.698609,35.741244 c 0.482281,-0.02884 0.958979,-0.108997 1.437644,-0.168451 0.434056,-0.05391 0.700869,-0.06929 1.140208,-0.103317 0.51753,-0.02002 1.033279,-0.05856 1.550561,-0.01955 0.376424,0.02839 0.509045,0.02453 0.855279,0.123532 0.08223,0.02351 0.159607,0.0615 0.239408,0.09225 0.03796,0.03448 0.08349,0.06212 0.113864,0.103441 0.102467,0.139462 0.13052,0.374259 0.160631,0.53678 0.04919,0.265558 0.03509,0.19168 0.09803,0.454097 0.08451,0.296694 0.199504,0.540391 0.522079,0.61065 0.03272,-0.0051 0.06509,0.01387 0.0976,0.01035 0.0026,-2.37e-4 -0.02087,-0.02774 -0.02087,-0.02672 2.32e-4,0.0094 0.0062,0.0178 0.0091,0.02666 0.0961,0.271033 0.124733,0.236658 0.625118,-0.06734 0.04949,-0.03006 0.0083,-0.115477 0.01252,-0.173225 0.02501,-0.113223 0.08735,-0.412189 0.125969,-0.510405 0.04071,-0.10349 0.09647,-0.200612 0.151324,-0.297342 0.232491,-0.409879 0.453147,-0.632304 0.784957,-0.961158 0.451841,-0.403787 0.910769,-0.807263 1.400327,-1.165834 0.259939,-0.190388 0.378377,-0.257016 0.648301,-0.424575 0.31203,-0.173775 0.636614,-0.349389 0.988535,-0.42785 0.01773,-0.0038 0.457483,-0.07747 0.473078,-0.08008 0.254396,-0.03387 0.510711,-0.04949 0.765898,-0.07534 0.16003,-0.01621 0.322258,-0.04522 0.483917,-0.04199 0.22625,0.0031 0.600236,0.152423 0.808322,0.07087 -0.05195,-0.231211 0.06585,-0.03634 0.2875,-0.03792 0.04922,-2.34e-4 0.08251,-0.05383 0.125414,-0.07799 0.05763,-0.03244 0.117289,-0.06113 0.175929,-0.09169 0.158833,-0.09648 0.330184,-0.174003 0.505453,-0.235763 0.02922,-0.01035 0.106484,-0.02022 0.141069,-0.04789 -0.0054,-0.0035 -0.01,-0.01134 -0.01637,-0.01035 -0.02629,0.0047 -0.161453,0.07182 -0.188415,0.09086 -0.05072,0.08926 0.01685,0.175493 0.01955,0.266792 -0.0023,0.01804 -0.0046,0.03611 -0.0069,0.05418 -1.43e-4,0.002 0.02792,0.0038 0.02805,0.0021 v 0 c 0.001,-0.01902 0.0016,-0.03801 0.0026,-0.05702 -0.0041,-0.07963 -0.04713,-0.163694 -0.02745,-0.240345 0.07348,-0.0062 0.190934,-0.01636 0.233972,-0.08875 0.0117,-0.01981 0.01023,-0.04497 0.01523,-0.06744 -0.0117,-0.01661 -0.01682,-0.04122 -0.03527,-0.04984 -0.213396,-0.09946 -0.649642,0.09386 -0.841489,0.176174 -0.05975,0.03694 -0.12048,0.07232 -0.179228,0.110809 -0.04597,0.03011 -0.139787,0.04023 -0.134781,0.09492 0.0073,0.07939 0.09009,0.139198 0.159739,0.177962 0.02288,0.01274 0.02459,-0.04731 0.0285,-0.07319 0.01839,-0.121797 -0.0059,-0.126946 -0.05921,-0.239172 -0.01743,-0.02363 -0.03063,-0.05109 -0.05234,-0.07088 -0.02374,-0.02167 -0.05405,-0.03485 -0.08167,-0.05133 -0.223568,-0.13329 -0.47422,-0.202585 -0.731755,-0.235765 -0.131278,-0.0033 -0.262512,-0.0106 -0.393834,-0.01035 -0.433518,0.0015 -0.86527,0.07409 -1.29437,0.125421 -0.590063,0.100989 -1.162817,0.277097 -1.688542,0.569188 -0.118262,0.06957 -0.238781,0.13546 -0.3548,0.208719 -0.668145,0.421905 -1.277885,0.936534 -1.849726,1.479267 -0.115885,0.131039 -0.239078,0.255956 -0.34766,0.393106 -0.424958,0.536739 -0.730381,1.164975 -0.717536,1.860753 0.0068,0.07279 -0.04562,0.186958 0.02039,0.21832 0.680592,0.323277 0.65957,0.12926 0.538914,-0.197372 -0.100816,-0.204975 -0.217326,-0.343129 -0.457023,-0.358182 -0.03264,0.02336 0.01439,0.06201 0.03064,0.08986 0.0036,0.006 -0.0094,-0.01096 -0.0117,-0.01759 -0.02701,-0.07583 -0.04345,-0.170144 -0.05975,-0.245356 -0.10944,-0.577433 -0.143085,-1.097525 -0.579837,-1.545215 -0.107211,-0.07122 -0.205705,-0.157732 -0.321637,-0.213644 -0.560023,-0.270096 -1.19684,-0.271429 -1.802114,-0.278854 -0.205026,-0.0025 -0.410241,4.73e-4 -0.615038,0.0106 -0.214855,0.01047 -0.428871,0.03418 -0.643303,0.05126 -0.859839,0.115269 -1.728163,0.257764 -2.529746,0.60502 -0.0333,0.01674 0.203312,0.487817 0.236622,0.471084 z" /><path
       style="fill:none;stroke:#000000;stroke-width:0.867663;stroke-linecap:round;stroke-linejoin:round;stroke-dasharray:none;stroke-opacity:1"
       d="m 55.989385,51.990972 c -5.304353,4.289923 -2.253403,2.388765 0.02453,5.421934"
       id="path18288"
       sodipodi:nodetypes="cc" /><path
       style="opacity:1;fill:#1c241c;stroke:#000000;stroke-width:1;stroke-linecap:round;stroke-linejoin:round;stroke-dasharray:none;paint-order:stroke fill markers;stop-color:#000000"
       id="path27394"
       d="m 58.148031,58.60952 c 1.841299,0.231622 3.703601,0.101291 5.515909,-0.284678 0.638757,-0.136036 1.265539,-0.32322 1.898306,-0.484831 1.679425,-0.609184 3.395422,-1.301167 4.682395,-2.593805 0.786268,-0.789726 0.897575,-1.188646 1.372338,-2.138482 0.0117,-0.02654 -0.363593,-0.192093 -0.375298,-0.165555 v 0 c -0.496165,0.850932 -0.61772,1.221195 -1.417373,1.879502 -0.375594,0.309203 -0.795898,0.564084 -1.224764,0.793758 -1.422387,0.761746 -1.929199,0.822653 -3.4989,1.291397 -1.311371,0.328147 -2.232888,0.583787 -3.553169,0.820494 -0.864103,0.154919 -1.516698,0.213201 -2.370609,0.277757 -0.234637,0.01775 -0.47013,0.02323 -0.704625,0.04274 -0.152077,0.01265 -0.303096,0.0358 -0.454641,0.05371 -0.03592,0.0092 0.09451,0.517218 0.130431,0.507993 z" /><path
       style="opacity:1;fill:#1c241c;stroke:#000000;stroke-width:1;stroke-linecap:round;stroke-linejoin:round;stroke-dasharray:none;paint-order:stroke fill markers;stop-color:#000000"
       id="path27396"
       d="m 54.544957,58.257796 c -0.861343,0.763728 -1.936761,1.208398 -2.995266,1.623058 -1.591749,0.623551 -1.780201,0.652584 -3.485872,1.200623 -1.740083,0.509204 -3.481565,1.088009 -5.281417,1.358279 -0.708745,0.106426 -1.211754,0.185129 -1.805014,-0.314169 -0.218337,-0.183759 -0.314613,-0.4762 -0.471921,-0.714301 -0.242933,-1.388465 -0.187571,-0.669407 -0.141486,-2.158926 5.29e-4,-0.02924 -0.412986,-0.03776 -0.413589,-0.0085 v 0 c -0.02962,1.601878 -0.101806,0.820277 0.201697,2.346127 0.177385,0.298934 0.289857,0.64756 0.532149,0.8968 0.670248,0.68947 1.522592,0.832551 2.454804,0.850786 0.560144,0.01095 1.119037,-0.08355 1.671362,-0.177443 1.554689,-0.264297 2.362071,-0.569738 3.871603,-1.036746 1.914176,-0.732237 3.979191,-1.406758 5.542719,-2.794457 0.360223,-0.319712 0.442399,-0.472729 0.684192,-0.824662 0.01744,-0.02574 -0.346533,-0.272185 -0.363961,-0.246449 z" /><path
       style="opacity:1;fill:#1c241c;stroke:#000000;stroke-width:1;stroke-linecap:round;stroke-linejoin:round;stroke-dasharray:none;paint-order:stroke fill markers;stop-color:#000000"
       id="path27398"
       d="m 56.968805,64.965778 c -0.04221,1.597001 0.338875,3.136706 0.794025,4.658293 0.572235,1.91302 1.217043,3.739015 2.151446,5.510059 0.37007,0.701421 0.847455,1.340739 1.271183,2.011109 0.367387,0.386649 0.734774,0.773295 1.102164,1.159944 0.02016,0.03187 0.470929,-0.25336 0.45076,-0.285234 v 0 c -0.26461,-0.408398 -0.52922,-0.816795 -0.79383,-1.225193 -0.337933,-0.67564 -0.69968,-1.339887 -1.013801,-2.02692 -0.600966,-1.314421 -1.697794,-4.016457 -2.161228,-5.373968 -0.299264,-0.87661 -0.765058,-2.666042 -1.064315,-3.680751 -0.07696,-0.260964 -0.16497,-0.518541 -0.247457,-0.777811 -0.0021,-0.03457 -0.491101,-0.0041 -0.488947,0.03047 z" /><circle
       id="path27400"
       style="fill:#1c241c;stroke:#000000;stroke-width:0.264583"
       cx="65.028725"
       cy="24.655819"
       r="0.01399978" /></g></svg>
