<?xml version="1.0" encoding="UTF-8" standalone="no"?>
<!-- Created with Inkscape (http://www.inkscape.org/) -->

<svg
   width="125.89113mm"
   height="124.52942mm"
   viewBox="0 0 125.89113 124.52942"
   version="1.1"
   id="svg5"
   inkscape:version="1.2.2 (b0a8486541, 2022-12-01)"
   sodipodi:docname="good-princess-bride.svg"
   xmlns:inkscape="http://www.inkscape.org/namespaces/inkscape"
   xmlns:sodipodi="http://sodipodi.sourceforge.net/DTD/sodipodi-0.dtd"
   xmlns="http://www.w3.org/2000/svg"
   xmlns:svg="http://www.w3.org/2000/svg">
  <sodipodi:namedview
     id="namedview7"
     pagecolor="#ffffff"
     bordercolor="#666666"
     borderopacity="1.0"
     inkscape:showpageshadow="2"
     inkscape:pageopacity="0.0"
     inkscape:pagecheckerboard="0"
     inkscape:deskcolor="#d1d1d1"
     inkscape:document-units="mm"
     showgrid="false"
     inkscape:lockguides="false"
     inkscape:zoom="0.84096521"
     inkscape:cx="104.64167"
     inkscape:cy="440.56519"
     inkscape:window-width="1080"
     inkscape:window-height="1853"
     inkscape:window-x="0"
     inkscape:window-y="0"
     inkscape:window-maximized="1"
     inkscape:current-layer="layer1"
     showguides="true">
    <sodipodi:guide
       position="44.243247,60.543851"
       orientation="1,0"
       id="guide18290"
       inkscape:locked="false" />
  </sodipodi:namedview>
  <defs
     id="defs2">
    <inkscape:path-effect
       effect="simplify"
       id="path-effect10438"
       is_visible="true"
       lpeversion="1"
       steps="1"
       threshold="0.0179452"
       smooth_angles="360"
       helper_size="0"
       simplify_individual_paths="false"
       simplify_just_coalesce="false" />
    <inkscape:path-effect
       effect="simplify"
       id="path-effect9291"
       is_visible="true"
       lpeversion="1"
       steps="1"
       threshold="0.0179452"
       smooth_angles="360"
       helper_size="0"
       simplify_individual_paths="false"
       simplify_just_coalesce="false" />
    <inkscape:path-effect
       effect="simplify"
       id="path-effect10438-0"
       is_visible="true"
       lpeversion="1"
       steps="1"
       threshold="0.0179452"
       smooth_angles="360"
       helper_size="0"
       simplify_individual_paths="false"
       simplify_just_coalesce="false" />
  </defs>
  <g
     inkscape:label="Layer 1"
     inkscape:groupmode="layer"
     id="layer1">
    <path
       style="fill:#ffffff;stroke:#000000;stroke-width:1;stroke-linecap:butt;stroke-linejoin:miter;stroke-dasharray:none;stroke-opacity:1"
       d="m 56.759149,82.249114 c 0.860213,6.579324 1.720422,7.439091 -4.299721,10.578461 -6.020143,3.139373 -6.965662,7.826765 -7.825873,17.459265 -0.860213,9.6325 -5.871417,32.42901 -11.332379,40.08338 -5.46096,7.65438 64.799955,18.4481 61.0161,3.268 -3.783864,-15.18011 -7.395327,-28.8975 -12.297552,-40.59432 -4.902225,-11.69683 -11.351582,-9.63295 -15.006813,-21.544605 -3.655232,-11.911658 4.041567,-12.384643 -2.107208,-11.00857 -6.148772,1.376072 -8.146554,1.758389 -8.146554,1.758389 z"
       id="path2227" />
    <path
       style="fill:#ffaacc;stroke:#000000;stroke-width:1;stroke-linecap:butt;stroke-linejoin:round;stroke-dasharray:none;stroke-opacity:1"
       d="m 61.890426,38.032794 c 9.474838,0 17.301606,11.288161 17.301606,21.750948 0,10.462786 -5.412313,26.079938 -17.873353,29.062189 -8.469527,2.026978 -17.141653,-14.234028 -18.46011,-25.02643 -1.318453,-10.7924 5.684724,-25.703633 19.031857,-25.786707 z"
       id="path1274"
       sodipodi:nodetypes="csssc" />
    <path
       style="fill:#333333;stroke:#000000;stroke-width:1;stroke-linecap:butt;stroke-linejoin:round;stroke-dasharray:none;stroke-opacity:1"
       d="m 77.52271,66.739014 c 0,0 -3.343798,5.202625 -0.297318,11.444647 3.046481,6.242022 9.066122,9.364241 9.066122,9.364241 0,0 4.16242,-7.283031 2.601713,-13.525859 -1.560705,-6.242827 -5.94551,-9.661556 -5.94551,-9.661556 0,0 2.566542,-3.768801 1.484967,-10.445091 C 83.196855,46.286939 76.063576,34.803588 61.92131,35.716256 46.086588,36.738145 43.01416,51.800828 42.396533,57.997061 c 6.627319,-3.809992 8.563008,-5.759026 19.289422,-6.503322 8.445135,-0.586 14.698548,0.55791 13.067963,8.188873 -1.00676,4.711531 2.768792,7.056402 2.768792,7.056402 z"
       id="path1272"
       sodipodi:nodetypes="cscscsscssc" />
    <path
       style="opacity:0.709769;fill:#000000;stroke:#000000;stroke-width:1;stroke-linejoin:round;stroke-dasharray:none;paint-order:stroke fill markers;stop-color:#000000"
       id="path1597"
       d="m 61.072287,59.95541 c -0.244125,-0.222578 -0.48752,-0.453565 -0.609115,-0.770821 -0.07156,-0.186717 -0.06637,-0.312085 -0.07959,-0.505644 0.08557,-0.211369 0.112941,-0.320891 0.262791,-0.50531 0.0764,-0.09404 0.168112,-0.17467 0.256359,-0.257698 0.202516,-0.190544 0.370201,-0.332642 0.607254,-0.480754 0.110139,-0.06882 0.228153,-0.124148 0.342229,-0.186225 0.409262,-0.219094 0.855002,-0.361903 1.312073,-0.438415 0.110075,-0.01844 0.220237,-0.03872 0.331571,-0.04652 0.12147,-0.0085 0.243533,-0.0017 0.365303,-0.0022 0.944225,0.146502 1.898361,0.203951 2.848295,0.297045 0.275446,0.04387 0.553958,0.08241 0.819195,0.172485 0.133298,0.04527 0.259576,0.110179 0.383848,0.175292 0.235703,0.13292 0.487053,0.241494 0.764533,0.201012 0.042,-0.0062 0.08081,-0.02602 0.121219,-0.03902 0.182731,-0.0824 0.284723,-0.256337 0.419193,-0.394536 0.152331,-0.16116 0.290244,-0.222377 0.489724,-0.308125 0.138142,-0.07191 0.330328,-0.125234 0.406041,-0.274955 -0.0056,-0.146671 -0.09185,0.02592 -0.104737,0.03983 -0.01245,0.01343 -0.02762,0.02405 -0.04143,0.03608 -0.02711,0.0131 -0.11365,0.08675 -0.136586,0.03803 -0.06038,0.02943 -0.07564,0.08557 -0.09542,0.144027 -2.72e-4,0.0014 0.0194,0.007 0.01979,0.0055 v 0 c 0.017,-0.05002 0.06916,-0.0844 0.05648,-0.142121 0.03639,0.0762 0.145732,0.01517 0.191775,-0.0171 0.02262,-0.02467 0.06497,-0.06213 0.06913,-0.09994 0.0014,-0.01305 -0.01393,-0.02284 -0.01664,-0.03567 -7.93e-4,-0.0036 0.0066,0.0056 0.01,0.0044 0.0032,-0.0012 0.0024,-0.01297 -0.0038,-0.0096 -0.140978,0.07445 -0.288473,0.130257 -0.436645,0.189234 -0.192743,0.08241 -0.372749,0.192492 -0.526982,0.335613 -0.119858,0.110998 -0.235606,0.241538 -0.394289,0.293806 -0.02816,0.0035 -0.05613,0.0096 -0.08449,0.01057 -0.14543,0.005 -0.3414,-0.14538 -0.445948,-0.231748 -0.02214,-0.02366 -0.182103,-0.195097 -0.200555,-0.212018 -0.282913,-0.259419 -0.637563,-0.414061 -1.003943,-0.515232 -0.149523,-0.03431 -0.297728,-0.075 -0.448573,-0.102941 -0.367535,-0.0681 -0.707687,-0.09656 -1.080602,-0.129393 -0.58914,-0.05187 -1.178885,-0.07957 -1.770439,-0.04781 -0.282988,0.03074 -0.483918,0.04661 -0.761512,0.09895 -0.515245,0.09712 -1.013826,0.257074 -1.484031,0.490485 -0.128465,0.07905 -0.261794,0.150685 -0.385393,0.237137 -0.468258,0.327516 -0.94087,0.772884 -1.125808,1.330618 -0.04309,0.129948 -0.05154,0.268913 -0.07731,0.403369 0.0056,0.116113 -0.004,0.233994 0.01697,0.348341 0.08462,0.461551 0.376986,0.882715 0.79141,1.105247 0.07412,0.0398 0.156829,0.06097 0.235242,0.09147 0.02084,0.01368 0.214286,-0.281058 0.193445,-0.294738 z" />
    <circle
       id="path1599"
       style="fill:#000000;stroke:#000000;stroke-width:1;stroke-dasharray:none"
       cx="56.469883"
       cy="62.982071"
       r="0" />
    <path
       style="opacity:0.709769;fill:#000000;stroke:#000000;stroke-width:1;stroke-linejoin:round;stroke-dasharray:none;paint-order:stroke fill markers;stop-color:#000000"
       id="path1607"
       d="m 47.628716,59.346789 c 0.44563,-0.02843 0.883806,-0.113504 1.322245,-0.192643 0.401425,-0.07246 1.047041,-0.183815 1.430867,-0.265579 0.268917,-0.05729 0.535412,-0.125392 0.80312,-0.188088 0.274453,-0.06108 0.549306,-0.120396 0.823365,-0.183228 0.248003,-0.05685 0.494384,-0.120747 0.742791,-0.175828 0.682409,-0.151317 1.372211,-0.263495 2.060539,-0.383338 0.04542,-0.0089 0.09007,-0.02361 0.136261,-0.0269 0.304251,-0.02168 0.658635,0.0078 0.950759,0.0996 0.201769,0.07743 0.409979,0.152722 0.583865,0.285059 0.100961,0.07684 0.145468,0.132703 0.230414,0.224532 0.204857,0.227319 0.261701,0.304782 0.203592,0.604778 -0.0608,0.15465 -0.0847,0.250654 -0.06376,0.415999 0.0043,0.02606 0.0086,0.05209 0.01294,0.07813 5.44e-4,0.0039 0.05503,-0.0048 0.05443,-0.0086 v 0 c -0.0055,-0.02559 -0.01085,-0.05119 -0.01626,-0.07679 -0.03719,-0.171718 0.02085,-0.238728 0.102574,-0.385528 0.116189,-0.279357 0.06937,-0.504043 -0.068,-0.767966 -0.09082,-0.136066 -0.11549,-0.188525 -0.238064,-0.304907 -0.17155,-0.162883 -0.385216,-0.264054 -0.591705,-0.372828 -0.132855,-0.07285 -0.169967,-0.09906 -0.317377,-0.153796 -0.367068,-0.136301 -0.76697,-0.146711 -1.152662,-0.172906 -0.131914,-0.0063 -0.263681,-0.01795 -0.395738,-0.01882 -1.171163,-0.0077 -2.337113,0.206725 -3.466324,0.499616 -0.996972,0.273273 -0.565876,0.143678 -1.523629,0.45 -0.61009,0.195126 -1.237137,0.361485 -1.802355,0.670877 -0.02469,0.01259 0.153424,0.361747 0.178112,0.349154 z" />
    <path
       style="fill:#ffffff;stroke:#000000;stroke-width:1;stroke-linecap:butt;stroke-linejoin:miter;stroke-dasharray:none;stroke-opacity:1"
       d="m 59.999834,63.284883 c 0,0 1.613837,-2.646758 5.726038,-1.544897 4.1122,1.101862 4.675559,2.410021 4.675559,2.410021 0,0 -1.544896,4.284315 -5.272929,4.284315 -3.728032,0 -5.128668,-5.149439 -5.128668,-5.149439 z"
       id="path1611" />
    <path
       style="opacity:0.709769;fill:#0000ff;stroke:#000000;stroke-width:1;stroke-linejoin:round;stroke-dasharray:none;paint-order:stroke fill markers;stop-color:#000000"
       id="path1770"
       d="m 64.451765,67.342379 c -0.01403,-0.133347 -0.02176,-0.267504 -0.04206,-0.40004 -0.02918,-0.190536 -0.07894,-0.377615 -0.106278,-0.568422 -0.06649,-0.464105 -0.112459,-1.011784 -0.08733,-1.478682 0.03538,-0.657491 0.106484,-0.813478 0.265591,-1.425122 -0.123493,-0.09956 0.35532,-0.526732 0.50248,-0.377599 0.05902,0.0598 -0.05868,0.17048 -0.03173,0.250065 0.06025,0.177973 0.207648,0.315563 0.281719,0.488244 0.252878,0.589527 0.266044,0.874537 0.378189,1.503001 0.0014,0.126256 0.06187,0.91389 -0.09002,1.109449 -0.173494,0.22337 -0.60003,0.144473 -0.802208,0.105152 -0.485397,-0.0944 -0.813574,-0.222597 -1.277597,-0.379997 -0.02803,-0.01808 -0.283651,0.378336 -0.255619,0.396411 v 0 c 0.210422,0.09765 0.412233,0.216551 0.631265,0.292965 0.510535,0.178106 1.135468,0.299987 1.675608,0.183211 0.455433,-0.09846 0.962779,-0.547404 1.134644,-0.967983 0.114437,-0.280034 0.08151,-0.599514 0.122265,-0.89927 -0.141574,-0.886974 -0.0846,-1.136542 -0.595793,-1.908755 -0.414392,-0.625974 -0.820351,-0.956366 -1.629565,-0.946459 -0.57,0.007 -0.825121,0.523877 -1.11193,0.889484 -0.08764,0.27212 -0.20793,0.535812 -0.262899,0.816356 -0.173255,0.884227 -0.05933,1.751677 0.243514,2.590444 0.07189,0.199115 0.156985,0.394418 0.25934,0.579729 0.07719,0.13976 0.184517,0.260615 0.276776,0.390925 0.01719,0.03689 0.538843,-0.20622 0.521652,-0.243107 z" />
    <path
       style="opacity:0.709769;fill:#0000ff;stroke:#000000;stroke-width:1;stroke-linejoin:round;stroke-dasharray:none;paint-order:stroke fill markers;stop-color:#000000"
       id="path1772"
       d="m 64.241517,63.818454 c -0.152299,0.483132 -0.222407,0.985964 -0.252092,1.49055 -0.02956,0.502267 -0.03873,0.659944 0.07447,1.129387 0.0232,0.09625 0.06745,0.186185 0.101176,0.279276 0.06073,0.0086 0.129149,0.05661 0.182189,0.02581 0.08177,-0.04748 0.120788,-0.146701 0.167541,-0.228884 0.105351,-0.185182 0.326529,-0.720254 0.399614,-0.891175 0.0074,-0.02559 -0.354633,-0.130804 -0.362072,-0.105201 v 0 c -0.09571,0.346694 -0.177876,0.588732 -0.222901,0.938992 -0.0099,0.07654 -0.03038,0.158811 -0.0044,0.231458 0.01218,0.03399 0.06743,0.02586 0.101145,0.03878 0.127684,-0.256748 0.225888,-0.432472 0.304229,-0.730935 0.05345,-0.203614 0.08239,-0.413198 0.109825,-0.621911 0.06753,-0.513669 0.08817,-1.032732 -0.01394,-1.543258 7.92e-4,-0.04135 -0.583903,-0.05424 -0.584813,-0.01289 z" />
    <path
       style="opacity:0.709769;fill:#0000ff;stroke:#000000;stroke-width:1;stroke-linejoin:round;stroke-dasharray:none;paint-order:stroke fill markers;stop-color:#000000"
       id="path1774"
       d="m 64.936884,64.074248 c -0.217003,0.375874 -0.320279,0.792017 -0.39282,1.216417 -0.06867,0.401769 -0.08918,0.564626 -0.06051,0.955599 0.0066,0.08937 0.028,0.177003 0.04201,0.265503 0.05985,0.0087 0.127238,0.05662 0.179549,0.02624 0.11349,-0.06589 0.340771,-0.566447 0.3624,-0.614487 0.06875,-0.152731 0.125602,-0.310557 0.189837,-0.465244 0.180723,-0.435217 0.202651,-0.479669 0.385964,-0.896977 0.401463,-0.342679 0.196347,-0.129695 0.414419,-0.408233 0.0137,-0.01752 -0.0167,0.04839 -0.03798,0.05482 -0.09939,0.03 -0.232595,-0.02241 -0.307489,0.04949 -0.09153,0.08787 -0.08604,0.238967 -0.120281,0.361139 -0.05035,0.179638 -0.08885,0.362387 -0.133283,0.543578 -0.0733,0.516379 -0.169727,1.030375 -0.227508,1.548982 -0.0045,0.04062 -0.03278,0.347746 -0.01978,0.429739 0.0081,0.05151 0.03244,0.09914 0.04866,0.148705 0.141824,0.257702 0.362365,0.459826 0.559995,0.673851 0.01132,0.01389 0.207747,-0.145884 0.196449,-0.159776 v 0 c -0.2179,-0.180639 -0.443622,-0.350348 -0.656495,-0.536548 -0.0058,-0.03236 -0.02611,-0.0653 -0.0176,-0.09705 0.01338,-0.04983 0.05248,-0.08886 0.07933,-0.13292 0.04915,-0.08061 0.104446,-0.15766 0.148651,-0.24108 0.253904,-0.479131 0.426429,-0.997413 0.589703,-1.5124 0.03007,-0.17492 0.181697,-0.843313 0.09502,-1.064053 -0.06664,-0.169689 -0.191151,-0.327916 -0.346715,-0.422964 -0.130947,-0.08001 -0.428818,0.182137 -0.467394,0.252102 -0.06497,0.117834 -0.06995,0.259864 -0.104931,0.389796 -0.07584,0.142219 -0.160143,0.280232 -0.227503,0.426658 -0.149463,0.324899 -0.24712,0.626987 -0.335614,0.972012 -0.0076,0.02981 -0.137555,0.529354 -0.09798,0.64821 0.01229,0.03692 0.07007,0.03388 0.105108,0.05083 0.09261,-0.219909 0.170614,-0.394033 0.242808,-0.631031 0.05031,-0.165162 0.08825,-0.333858 0.129664,-0.50147 0.0976,-0.394964 0.1878,-0.791705 0.222779,-1.198031 0.0092,-0.031 -0.429203,-0.16242 -0.438493,-0.131414 z" />
    <path
       style="opacity:0.709769;fill:#0000ff;stroke:#000000;stroke-width:1;stroke-linejoin:round;stroke-dasharray:none;paint-order:stroke fill markers;stop-color:#000000"
       id="path1776"
       d="m 64.653286,63.294626 c -0.158708,0.07633 0.129193,-0.19118 0.07094,-0.170905 -0.116314,0.04049 -0.21777,0.116316 -0.332469,0.161174 -0.03445,0.01346 -0.09329,-0.02085 -0.110297,0.01199 -0.0653,0.126136 -0.134753,0.863657 -0.138847,0.898375 -0.03858,0.458935 -0.10872,1.067229 -0.06831,1.527161 0.02102,0.23934 0.08186,0.473795 0.136989,0.707649 0.0358,0.151892 0.115641,0.654529 0.367911,0.739355 0.08942,0.03007 0.183309,-0.0447 0.274964,-0.06705 0.0311,-0.10915 0.07444,-0.215534 0.0933,-0.327451 0.05933,-0.352177 0.02742,-0.724464 -0.03128,-1.074163 -0.02048,-0.121982 -0.05003,-0.242308 -0.07109,-0.364189 -0.0024,-0.04567 -0.0046,-0.09134 -0.007,-0.137013 3e-6,-0.0069 -0.09716,-0.0069 -0.09716,-3.7e-5 v 0 c -0.0024,0.04697 -0.0048,0.09395 -0.0071,0.14092 -0.02021,0.228222 -0.0075,0.105906 -0.03996,0.366761 -0.03942,0.431643 -0.02668,0.867713 0.03041,1.297216 0.04583,0.02494 0.09356,0.102988 0.137514,0.07485 0.05727,-0.03666 0.04423,-0.129517 0.05316,-0.196918 0.02075,-0.156567 0.01811,-0.315501 0.03551,-0.472473 0.0251,-0.226367 0.07543,-0.449897 0.09195,-0.677053 0.04212,-0.579453 0.0049,-0.960277 -0.02477,-1.536219 -0.03476,-0.322294 -0.04683,-0.705837 -0.17522,-1.016201 -0.04401,-0.106409 -0.07466,-0.260862 -0.185717,-0.291299 -0.138193,-0.03787 -0.28862,0.05241 -0.410386,0.127941 -0.05587,0.03466 -0.0027,0.243162 0.0036,0.277589 0,0.02852 0.403308,0.02852 0.403308,0 z" />
    <path
       style="opacity:0.709769;fill:#0000ff;stroke:#000000;stroke-width:1;stroke-linejoin:round;stroke-dasharray:none;paint-order:stroke fill markers;stop-color:#000000"
       id="path1778"
       d="m 64.843875,64.36854 c -0.02102,0.07679 -0.04942,0.151925 -0.06305,0.230363 -0.01828,0.105269 -0.0226,0.212496 -0.03235,0.318897 -0.02636,0.287814 -0.05624,0.597919 -0.04766,0.887044 0.0045,0.153905 0.02768,0.306708 0.03928,0.46024 0.0099,0.130955 0.01678,0.262114 0.02518,0.393169 0.130728,0.0019 -0.02409,0.351957 0.104179,0.412205 0.03625,0.01702 0.09036,-0.01093 0.111375,-0.04503 0.03096,-0.05024 0.01866,-0.116603 0.02448,-0.175325 0.02568,-0.260183 0.02227,-0.342822 0.0288,-0.612791 0.0053,-0.276894 -0.01314,-0.553973 -0.0044,-0.830851 0.01832,-0.313061 0.01147,-0.159064 0.02094,-0.461975 5.43e-4,-0.01098 -0.154914,-0.01871 -0.155461,-0.0077 v 0 c -0.01333,0.153094 -0.02157,0.306659 -0.03801,0.459448 -0.03017,0.280167 -0.08705,0.55821 -0.07766,0.84184 0.0087,0.285027 -0.0019,0.353554 0.05273,0.624585 0.01403,0.06943 0.0099,0.152045 0.05729,0.204631 0.206467,0.228793 0.33936,-0.358607 0.341558,-0.386156 0.02168,-0.120487 0.140918,-0.772763 0.149243,-0.864717 0.0259,-0.285979 0.0017,-0.612722 -0.02143,-0.898608 -0.0086,-0.106496 -0.01406,-0.213629 -0.03235,-0.318898 -0.01363,-0.07844 -0.04203,-0.153573 -0.06305,-0.230362 0,-0.02968 -0.419633,-0.02968 -0.419633,0 z" />
    <path
       style="opacity:0.709769;fill:#0000ff;stroke:#000000;stroke-width:1;stroke-linejoin:round;stroke-dasharray:none;paint-order:stroke fill markers;stop-color:#000000"
       id="path1780"
       d="m 64.826211,64.210311 c -0.06041,0.723921 -0.105609,1.451796 -0.01262,2.175646 0.02611,0.203205 0.07942,0.402013 0.11501,0.603769 0.02505,0.141913 0.04459,0.284741 0.06689,0.427112 0.02532,0.0559 0.02284,0.136974 0.07599,0.167688 0.03375,0.01953 0.08389,-0.03168 0.09426,-0.06927 0.01716,-0.06218 -0.01314,-0.128378 -0.02211,-0.19226 -0.04364,-0.310306 -0.106728,-0.616274 -0.170699,-0.922846 -0.01743,-0.0669 -0.03642,-0.133401 -0.05227,-0.200685 -0.01132,-0.048 -0.03646,-0.136105 -0.0088,-0.147508 0.01142,-0.0048 0.02181,0.01158 0.03273,0.01738 0.0027,0.0012 0.01871,-0.03714 0.01601,-0.03827 v 0 c -0.02806,-0.0012 -0.05761,-0.01205 -0.08418,-0.003 -0.141204,0.04817 -0.106926,0.303728 -0.119833,0.397953 0.02614,0.327284 0.05866,0.649309 0.187481,0.956106 0.06357,0.151386 0.127309,0.36092 0.356616,0.247807 0.07742,-0.03818 0.108974,-0.133907 0.163459,-0.200859 0.06082,-0.287423 0.176802,-0.802565 0.197242,-1.069876 0.05729,-0.749294 -0.07032,-1.504059 -0.292933,-2.217114 -0.0048,-0.03834 -0.547047,0.02985 -0.542226,0.06819 z" />
    <path
       style="opacity:0.709769;fill:#0000ff;stroke:#000000;stroke-width:1;stroke-linejoin:round;stroke-dasharray:none;paint-order:stroke fill markers;stop-color:#000000"
       id="path1782"
       d="m 63.873212,66.713522 c -0.02538,0.208188 -0.04427,0.277137 -0.01599,0.50597 0.0429,0.347324 0.168085,0.742115 0.403355,1.009655 0.08183,0.09305 0.19173,0.157024 0.287592,0.235535 0.352543,0.05795 0.459754,0.13466 0.805936,-0.07587 0.101814,-0.06192 0.170408,-0.16867 0.237671,-0.267032 0.128763,-0.188302 0.181743,-0.354854 0.196367,-0.578366 0.0048,-0.07422 -0.01056,-0.148374 -0.0158,-0.222558 -0.02486,-0.04857 -0.03989,-0.103591 -0.07457,-0.145719 -0.168626,-0.204876 -0.415368,0.05134 -0.512381,0.189555 -0.03302,0.04704 -0.05701,0.09981 -0.08551,0.149713 -0.07197,0.02277 -0.112732,0.471848 0.02811,0.244651 0.009,-0.07573 0.01007,-0.03736 -0.0041,-0.115041 -5.44e-4,-0.0027 -0.03904,0.0045 -0.03852,0.0072 v 0 c 0.01774,0.06507 0.01355,0.03284 0.01403,0.09648 -0.0062,0.01899 -0.03383,0.07234 -0.02632,0.05383 0.03377,-0.08344 0.09907,-0.151591 0.137215,-0.232481 0.03666,-0.05616 0.253388,-0.391954 0.31929,-0.394489 0.06779,-0.0027 0.03946,0.134062 0.03945,0.138878 -0.01096,0.05684 -0.01504,0.115446 -0.03286,0.170519 -0.03731,0.115247 -0.149037,0.340824 -0.220923,0.433394 -0.04668,0.06011 -0.11074,0.104451 -0.164617,0.158205 -0.01822,0.0182 -0.026,0.05453 -0.05157,0.05749 -0.04351,0.005 -0.08408,-0.02461 -0.126126,-0.03691 -0.0533,-0.0523 -0.112908,-0.09887 -0.15991,-0.156906 -0.278195,-0.343455 -0.40483,-0.795781 -0.521026,-1.213915 7.92e-4,-0.0296 -0.417866,-0.04141 -0.4187,-0.0118 z" />
    <path
       style="opacity:0.709769;fill:#0000ff;stroke:#000000;stroke-width:1;stroke-linejoin:round;stroke-dasharray:none;paint-order:stroke fill markers;stop-color:#000000"
       id="path1784"
       d="m 65.262685,66.173101 c -0.185277,0.37465 -0.368227,0.75846 -0.496146,1.157437 -0.04304,0.134231 -0.0623,0.275166 -0.102543,0.410265 -0.127326,0.427505 -0.07832,0.13086 -0.108605,0.33668 0.0292,-0.01355 0.06909,-0.01431 0.08762,-0.04066 0.02958,-0.04206 0.02611,-0.09971 0.0448,-0.147609 0.02714,-0.0696 0.05742,-0.13816 0.09235,-0.204191 0.106702,-0.201702 0.241186,-0.391213 0.373959,-0.576211 -0.06926,0.0161 0.16049,-0.187002 0.10603,-0.199693 -0.01586,-0.0037 -0.03236,0.0038 -0.04853,0.0056 -0.0014,0.0014 0.01861,0.02143 0.02001,0.02001 v 0 c 0.0055,-0.01415 0.0214,-0.02802 0.01662,-0.04243 -0.02029,-0.06096 -0.227151,0.153706 -0.2263,0.127559 -0.234579,0.236964 -0.467496,0.508971 -0.520001,0.852988 -0.01083,0.07094 -0.02532,0.151018 0.0069,0.215142 0.03291,0.06557 0.11388,0.09255 0.170821,0.138822 0.292694,-0.07471 0.20237,-0.01188 0.443131,-0.298446 0.101875,-0.121249 0.209358,-0.240119 0.289511,-0.376708 0.140418,-0.239286 0.292768,-0.675683 0.345235,-0.950103 0.02244,-0.117385 0.01618,-0.238475 0.02429,-0.357712 0.005,-0.03671 -0.514088,-0.10751 -0.519095,-0.07081 z" />
    <path
       style="opacity:0.709769;fill:#0000ff;stroke:#000000;stroke-width:1;stroke-linejoin:round;stroke-dasharray:none;paint-order:stroke fill markers;stop-color:#000000"
       id="path1786"
       d="m 64.679992,66.809587 c -0.04378,0.144629 -0.06445,0.286369 -0.05091,0.43717 0.0087,0.09763 2.72e-4,0.186053 0.14019,0.192507 0.06476,0.003 0.124959,-0.03458 0.18744,-0.05186 0.07024,-0.05602 0.145969,-0.105757 0.210696,-0.16805 0.391097,-0.376388 0.66264,-0.909047 0.896855,-1.392494 0.119109,-0.05781 0.171503,-0.187682 0.270389,-0.266745 0.01203,-0.0096 -0.0074,0.03924 -0.02274,0.04019 -0.112466,0.0069 -0.2372,-0.06927 -0.337551,-0.01803 -0.08237,0.04205 -0.08215,0.165817 -0.118458,0.250871 -0.0602,0.141044 -0.113953,0.284752 -0.170932,0.427128 -0.335014,0.969875 -0.03079,0.04702 -0.314492,1.037735 -0.04346,0.151756 -0.09684,0.300518 -0.142208,0.451717 -0.03057,0.101875 -0.132538,0.448918 -0.153197,0.591604 -0.0041,0.02848 0.0035,0.05746 0.0053,0.08619 0.02851,-0.0086 0.06329,-0.0062 0.08555,-0.02598 0.03002,-0.0267 0.180357,-0.28526 0.187196,-0.297172 0.08102,-0.141096 0.154599,-0.284827 0.222712,-0.432454 0.01861,0.02858 0.02227,-0.102892 0.05237,-0.08171 0.0014,5.45e-4 0.0099,-0.01808 0.0085,-0.01868 v 0 c -0.05886,-0.0078 -0.09294,0.01831 -0.13828,0.0579 -0.117962,0.126078 -0.214615,0.25869 -0.291151,0.414961 -0.03055,0.06237 -0.120893,0.259731 -0.106814,0.347846 0.0058,0.03608 0.04421,0.05818 0.06631,0.08727 0.03654,-0.01755 0.07942,-0.02562 0.109619,-0.05264 0.148476,-0.132904 0.287929,-0.373966 0.376058,-0.5357 0.07756,-0.142319 0.142836,-0.29099 0.215494,-0.435869 0.351265,-0.700409 0.174228,-0.290768 0.453098,-1.024133 0.017,-0.06665 0.207694,-0.674162 0.138522,-0.823322 -0.118665,-0.255888 -0.268086,-0.426706 -0.454421,-0.244817 -0.04021,0.03926 -0.06988,0.09058 -0.08809,0.143734 -0.02597,0.07577 -0.02816,0.157701 -0.04224,0.236552 -0.313874,0.524847 -0.641135,1.044814 -1.000136,1.539778 -0.01858,0.02633 -0.03686,0.05284 -0.05574,0.07894 -0.0033,0.0046 -0.0117,0.01869 -0.01085,0.01309 0.01711,-0.111102 0.03189,-0.0938 0.09511,-0.204927 0.06585,-0.115759 0.07593,-0.145564 0.128424,-0.263164 0.0069,-0.02489 -0.344843,-0.122318 -0.351732,-0.09744 z" />
    <path
       style="fill:#ffffff;stroke:#000000;stroke-width:1;stroke-linecap:butt;stroke-linejoin:miter;stroke-dasharray:none;stroke-opacity:1"
       d="m 56.504282,63.428568 c 0,0 -1.613836,-2.646759 -5.726037,-1.544897 -4.112201,1.101862 -4.67556,2.410021 -4.67556,2.410021 0,0 1.544897,4.284314 5.27293,4.284314 3.728032,0 5.128667,-5.149438 5.128667,-5.149438 z"
       id="path1611-6" />
    <path
       style="opacity:0.709769;fill:#0000ff;stroke:#000000;stroke-width:1;stroke-linejoin:round;stroke-dasharray:none;paint-order:stroke fill markers;stop-color:#000000"
       id="path1770-7"
       d="m 52.052351,67.486063 c 0.01403,-0.133346 0.02176,-0.267504 0.04206,-0.400039 0.02918,-0.190537 0.07894,-0.377615 0.106279,-0.568422 0.06649,-0.464105 0.112459,-1.011784 0.08733,-1.478682 -0.03538,-0.657491 -0.106485,-0.813479 -0.265592,-1.425122 0.123493,-0.09956 -0.35532,-0.526733 -0.502479,-0.3776 -0.05902,0.0598 0.05868,0.170481 0.03173,0.250065 -0.06025,0.177974 -0.207648,0.315563 -0.28172,0.488245 -0.252878,0.589526 -0.266044,0.874537 -0.378189,1.503 -0.0014,0.126257 -0.06187,0.91389 0.09002,1.10945 0.173494,0.223369 0.600029,0.144473 0.802208,0.105152 0.485396,-0.0944 0.813574,-0.222598 1.277596,-0.379997 0.02803,-0.01808 0.283651,0.378336 0.25562,0.396411 v 0 c -0.210423,0.09765 -0.412233,0.21655 -0.631265,0.292965 -0.510535,0.178106 -1.135468,0.299987 -1.675608,0.18321 -0.455433,-0.09846 -0.962779,-0.547404 -1.134645,-0.967982 -0.114436,-0.280035 -0.08151,-0.599514 -0.122264,-0.899271 0.141574,-0.886973 0.0846,-1.136542 0.595793,-1.908754 0.414392,-0.625974 0.82035,-0.956367 1.629564,-0.946459 0.57,0.007 0.825121,0.523877 1.111931,0.889484 0.08764,0.272119 0.20793,0.535811 0.262899,0.816356 0.173255,0.884227 0.05933,1.751676 -0.243515,2.590443 -0.07189,0.199116 -0.156985,0.394419 -0.259339,0.57973 -0.07719,0.13976 -0.184518,0.260615 -0.276776,0.390925 -0.01719,0.03689 -0.538843,-0.20622 -0.521652,-0.243108 z" />
    <path
       style="opacity:0.709769;fill:#0000ff;stroke:#000000;stroke-width:1;stroke-linejoin:round;stroke-dasharray:none;paint-order:stroke fill markers;stop-color:#000000"
       id="path1772-5"
       d="m 52.2626,63.962139 c 0.152299,0.483131 0.222407,0.985963 0.252091,1.490549 0.02955,0.502267 0.03873,0.659945 -0.07447,1.129387 -0.0232,0.09625 -0.06745,0.186185 -0.101176,0.279276 -0.06073,0.0086 -0.129148,0.05661 -0.182188,0.02581 -0.08177,-0.04748 -0.120788,-0.146701 -0.167541,-0.228884 -0.105351,-0.185183 -0.326529,-0.720254 -0.399614,-0.891175 -0.0074,-0.02559 0.354633,-0.130804 0.362072,-0.105201 v 0 c 0.09571,0.346694 0.177875,0.588732 0.222901,0.938992 0.0099,0.07654 0.03038,0.158811 0.0044,0.231458 -0.01218,0.03399 -0.06743,0.02586 -0.101145,0.03878 -0.127684,-0.256748 -0.225888,-0.432473 -0.304229,-0.730935 -0.05345,-0.203614 -0.08239,-0.413198 -0.109825,-0.621912 -0.06753,-0.513668 -0.08817,-1.032732 0.01394,-1.543257 -7.92e-4,-0.04135 0.583903,-0.05424 0.584813,-0.01289 z" />
    <path
       style="opacity:0.709769;fill:#0000ff;stroke:#000000;stroke-width:1;stroke-linejoin:round;stroke-dasharray:none;paint-order:stroke fill markers;stop-color:#000000"
       id="path1774-3"
       d="m 51.567232,64.217932 c 0.217004,0.375875 0.32028,0.792018 0.39282,1.216418 0.06868,0.401768 0.08918,0.564626 0.06051,0.955599 -0.0066,0.08937 -0.028,0.177003 -0.04201,0.265503 -0.05984,0.0087 -0.127238,0.05662 -0.179548,0.02624 -0.113491,-0.06589 -0.340771,-0.566447 -0.3624,-0.614487 -0.06875,-0.15273 -0.125602,-0.310557 -0.189838,-0.465244 -0.180722,-0.435216 -0.202651,-0.479669 -0.385964,-0.896976 -0.401462,-0.342679 -0.196346,-0.129696 -0.414419,-0.408233 -0.0137,-0.01752 0.0167,0.04839 0.03798,0.05482 0.09939,0.03 0.232595,-0.02241 0.307488,0.04949 0.09154,0.08786 0.08605,0.238967 0.120282,0.361138 0.05035,0.179639 0.08885,0.362388 0.133282,0.543579 0.0733,0.516379 0.169728,1.030376 0.227509,1.548982 0.0045,0.04063 0.03278,0.347747 0.01977,0.429739 -0.0081,0.05151 -0.03244,0.09914 -0.04866,0.148705 -0.141824,0.257702 -0.362365,0.459827 -0.559996,0.673852 -0.01132,0.0139 -0.207747,-0.145885 -0.196448,-0.159777 v 0 c 0.2179,-0.180638 0.443622,-0.350347 0.656495,-0.536548 0.0058,-0.03236 0.02611,-0.0653 0.0176,-0.09705 -0.01338,-0.04983 -0.05248,-0.08886 -0.07933,-0.132919 -0.04914,-0.08061 -0.104446,-0.157662 -0.14865,-0.241082 -0.253904,-0.47913 -0.42643,-0.997413 -0.589704,-1.512399 -0.03007,-0.17492 -0.181696,-0.843312 -0.09502,-1.064053 0.06664,-0.169689 0.19115,-0.327915 0.346714,-0.422964 0.130948,-0.08001 0.428819,0.182137 0.467395,0.252102 0.06497,0.117834 0.06995,0.259865 0.10493,0.389796 0.07584,0.142219 0.160143,0.280233 0.227504,0.426658 0.149463,0.324899 0.247119,0.626987 0.335614,0.972013 0.0076,0.02981 0.137554,0.529353 0.09798,0.64821 -0.0123,0.03692 -0.07007,0.03388 -0.105109,0.05083 -0.09261,-0.219908 -0.170613,-0.394033 -0.242807,-0.631031 -0.05031,-0.165162 -0.08825,-0.333858 -0.129664,-0.50147 -0.0976,-0.394963 -0.1878,-0.791705 -0.22278,-1.198031 -0.0092,-0.031 0.429203,-0.16242 0.438494,-0.131413 z" />
    <path
       style="opacity:0.709769;fill:#0000ff;stroke:#000000;stroke-width:1;stroke-linejoin:round;stroke-dasharray:none;paint-order:stroke fill markers;stop-color:#000000"
       id="path1776-5"
       d="m 51.850831,63.43831 c 0.158707,0.07633 -0.129193,-0.191179 -0.07094,-0.170904 0.116314,0.04049 0.21777,0.116316 0.332468,0.161174 0.03445,0.01346 0.09329,-0.02085 0.110298,0.01199 0.0653,0.126136 0.134753,0.863657 0.138846,0.898374 0.03858,0.458935 0.108721,1.067229 0.06832,1.527162 -0.02102,0.23934 -0.08186,0.473795 -0.136989,0.707648 -0.0358,0.151893 -0.115641,0.654529 -0.367911,0.739356 -0.08942,0.03007 -0.183309,-0.0447 -0.274964,-0.06705 -0.0311,-0.10915 -0.07444,-0.215534 -0.0933,-0.327451 -0.05933,-0.352177 -0.02741,-0.724464 0.03128,-1.074164 0.02048,-0.121982 0.05003,-0.242307 0.07109,-0.364188 0.0025,-0.04567 0.0046,-0.09134 0.007,-0.137013 -3e-6,-0.0069 0.09716,-0.0069 0.09716,-3.8e-5 v 0 c 0.0024,0.04697 0.0048,0.09395 0.0071,0.140921 0.02021,0.228222 0.0075,0.105905 0.03996,0.366761 0.03942,0.431643 0.02668,0.867713 -0.0304,1.297215 -0.04583,0.02494 -0.09356,0.102989 -0.137515,0.07485 -0.05727,-0.03666 -0.04423,-0.129517 -0.05317,-0.196918 -0.02075,-0.156567 -0.01811,-0.315501 -0.03551,-0.472473 -0.0251,-0.226367 -0.07543,-0.449897 -0.09195,-0.677053 -0.04212,-0.579453 -0.005,-0.960276 0.02477,-1.536219 0.03476,-0.322294 0.04683,-0.705837 0.17522,-1.016201 0.04401,-0.106409 0.07466,-0.260862 0.185716,-0.291299 0.138194,-0.03787 0.28862,0.05241 0.410387,0.127941 0.05587,0.03466 0.0027,0.243161 -0.0036,0.277589 0,0.02852 -0.403307,0.02852 -0.403307,0 z" />
    <path
       style="opacity:0.709769;fill:#0000ff;stroke:#000000;stroke-width:1;stroke-linejoin:round;stroke-dasharray:none;paint-order:stroke fill markers;stop-color:#000000"
       id="path1778-6"
       d="m 51.660241,64.512225 c 0.02102,0.07679 0.04942,0.151925 0.06305,0.230363 0.01827,0.105268 0.0226,0.212496 0.03235,0.318896 0.02636,0.287815 0.05624,0.59792 0.04766,0.887045 -0.0045,0.153905 -0.02768,0.306708 -0.03928,0.46024 -0.0099,0.130954 -0.01678,0.262114 -0.02518,0.393168 -0.130728,0.0019 0.02409,0.351957 -0.104179,0.412206 -0.03625,0.01702 -0.09036,-0.01093 -0.111375,-0.04503 -0.03096,-0.05024 -0.01866,-0.116602 -0.02448,-0.175325 -0.02568,-0.260182 -0.02227,-0.342822 -0.0288,-0.61279 -0.0053,-0.276895 0.01314,-0.553973 0.0044,-0.830851 -0.01832,-0.313061 -0.01147,-0.159065 -0.02094,-0.461976 -5.44e-4,-0.01098 0.154914,-0.01871 0.155461,-0.0077 v 0 c 0.01333,0.153093 0.02157,0.306658 0.03801,0.459448 0.03017,0.280167 0.08705,0.55821 0.07766,0.84184 -0.0087,0.285026 0.0019,0.353553 -0.05273,0.624585 -0.01403,0.06943 -0.0099,0.152045 -0.05729,0.204631 -0.206466,0.228793 -0.339359,-0.358607 -0.341557,-0.386156 -0.02168,-0.120487 -0.140919,-0.772763 -0.149244,-0.864717 -0.02589,-0.285979 -0.0017,-0.612722 0.02143,-0.898609 0.0086,-0.106496 0.01406,-0.213628 0.03235,-0.318898 0.01363,-0.07844 0.04203,-0.153572 0.06305,-0.230361 0,-0.02968 0.419633,-0.02968 0.419633,0 z" />
    <path
       style="opacity:0.709769;fill:#0000ff;stroke:#000000;stroke-width:1;stroke-linejoin:round;stroke-dasharray:none;paint-order:stroke fill markers;stop-color:#000000"
       id="path1780-2"
       d="m 51.677906,64.353996 c 0.06041,0.72392 0.105609,1.451795 0.01262,2.175645 -0.02611,0.203206 -0.07942,0.402013 -0.115011,0.60377 -0.02505,0.141913 -0.04459,0.284741 -0.06689,0.427112 -0.02532,0.0559 -0.02284,0.136974 -0.07599,0.167688 -0.03375,0.01953 -0.08389,-0.03168 -0.09426,-0.06927 -0.01716,-0.06218 0.01314,-0.128378 0.02211,-0.19226 0.04365,-0.310306 0.106728,-0.616274 0.170699,-0.922847 0.01743,-0.0669 0.03642,-0.1334 0.05227,-0.200684 0.01132,-0.048 0.03646,-0.136105 0.0088,-0.147508 -0.01142,-0.0048 -0.02181,0.01158 -0.03273,0.01738 -0.0027,0.0012 -0.01871,-0.03714 -0.01601,-0.03827 v 0 c 0.02806,-0.0012 0.05761,-0.01204 0.08418,-0.003 0.141204,0.04817 0.106925,0.303728 0.119833,0.397952 -0.02614,0.327285 -0.05866,0.64931 -0.187481,0.956107 -0.06357,0.151385 -0.127309,0.36092 -0.356616,0.247807 -0.07742,-0.03818 -0.108974,-0.133907 -0.163459,-0.200859 -0.06082,-0.287423 -0.176802,-0.802565 -0.197242,-1.069876 -0.05729,-0.749295 0.07032,-1.504059 0.292932,-2.217115 0.0048,-0.03834 0.547048,0.02985 0.542227,0.06819 z" />
    <path
       style="opacity:0.709769;fill:#0000ff;stroke:#000000;stroke-width:1;stroke-linejoin:round;stroke-dasharray:none;paint-order:stroke fill markers;stop-color:#000000"
       id="path1782-9"
       d="m 52.630904,66.857207 c 0.02538,0.208188 0.04427,0.277136 0.01599,0.505969 -0.0429,0.347324 -0.168085,0.742116 -0.403356,1.009656 -0.08183,0.09304 -0.191729,0.157023 -0.287592,0.235534 -0.352542,0.05796 -0.459753,0.134661 -0.805936,-0.07587 -0.101813,-0.06192 -0.170408,-0.16867 -0.23767,-0.267031 -0.128764,-0.188303 -0.181743,-0.354854 -0.196367,-0.578367 -0.0048,-0.07421 0.01056,-0.148373 0.0158,-0.222557 0.02486,-0.04857 0.03989,-0.103592 0.07457,-0.145719 0.168626,-0.204877 0.415369,0.05134 0.512382,0.189555 0.03301,0.04704 0.05701,0.09981 0.08551,0.149713 0.07197,0.02277 0.112733,0.471848 -0.02811,0.244651 -0.009,-0.07573 -0.01007,-0.03736 0.0041,-0.115041 5.44e-4,-0.0027 0.03904,0.0045 0.03852,0.0072 v 0 c -0.01774,0.06507 -0.01355,0.03284 -0.01403,0.09648 0.0062,0.01899 0.03383,0.07234 0.02633,0.05383 -0.03377,-0.08345 -0.09907,-0.151591 -0.137217,-0.232481 -0.03666,-0.05616 -0.253386,-0.391955 -0.319289,-0.39449 -0.06779,-0.0027 -0.03946,0.134063 -0.03945,0.138878 0.01096,0.05684 0.01504,0.115447 0.03286,0.170519 0.0373,0.115248 0.149037,0.340825 0.220923,0.433395 0.04668,0.06011 0.110741,0.104451 0.164617,0.158204 0.01822,0.0182 0.026,0.05453 0.05157,0.05749 0.04351,0.005 0.08408,-0.02461 0.126127,-0.03691 0.0533,-0.0523 0.112908,-0.09887 0.15991,-0.156906 0.278195,-0.343455 0.40483,-0.795781 0.521026,-1.213915 -7.92e-4,-0.02961 0.417865,-0.04141 0.4187,-0.0118 z" />
    <path
       style="opacity:0.709769;fill:#0000ff;stroke:#000000;stroke-width:1;stroke-linejoin:round;stroke-dasharray:none;paint-order:stroke fill markers;stop-color:#000000"
       id="path1784-1"
       d="m 51.241432,66.316785 c 0.185276,0.37465 0.368226,0.75846 0.496146,1.157437 0.04304,0.134232 0.0623,0.275166 0.102543,0.410265 0.127325,0.427505 0.07832,0.130861 0.108605,0.33668 -0.0292,-0.01355 -0.06909,-0.01431 -0.08762,-0.04065 -0.02958,-0.04206 -0.02611,-0.09971 -0.0448,-0.14761 -0.02713,-0.0696 -0.05742,-0.13816 -0.09235,-0.20419 -0.106703,-0.201703 -0.241186,-0.391213 -0.373959,-0.576211 0.06926,0.0161 -0.16049,-0.187003 -0.106031,-0.199694 0.01586,-0.0037 0.03236,0.0038 0.04854,0.0056 0.0014,0.0014 -0.01861,0.02143 -0.02001,0.02001 v 0 c -0.0055,-0.01415 -0.0214,-0.02802 -0.01662,-0.04243 0.02029,-0.06097 0.227151,0.153706 0.226299,0.127559 0.23458,0.236964 0.467497,0.508971 0.520001,0.852987 0.01083,0.07094 0.02532,0.151019 -0.0069,0.215144 -0.03291,0.06557 -0.113879,0.09255 -0.17082,0.138822 -0.292694,-0.07471 -0.20237,-0.01189 -0.443131,-0.298446 -0.101875,-0.12125 -0.209358,-0.240121 -0.289511,-0.37671 -0.140418,-0.239285 -0.292769,-0.675682 -0.345235,-0.950103 -0.02244,-0.117384 -0.01618,-0.238474 -0.02429,-0.357711 -0.005,-0.03671 0.514088,-0.107511 0.519095,-0.07081 z" />
    <path
       style="opacity:0.709769;fill:#0000ff;stroke:#000000;stroke-width:1;stroke-linejoin:round;stroke-dasharray:none;paint-order:stroke fill markers;stop-color:#000000"
       id="path1786-2"
       d="m 51.824125,66.953272 c 0.04378,0.144628 0.06445,0.286368 0.05091,0.43717 -0.0087,0.09763 -2.72e-4,0.186053 -0.14019,0.192506 -0.06476,0.003 -0.12496,-0.03458 -0.18744,-0.05186 -0.07024,-0.05602 -0.145969,-0.105756 -0.210697,-0.16805 -0.391096,-0.376387 -0.662639,-0.909047 -0.896854,-1.392493 -0.11911,-0.05781 -0.171504,-0.187683 -0.27039,-0.266746 -0.01203,-0.0096 0.0074,0.03924 0.02274,0.04019 0.112465,0.0069 0.237199,-0.06927 0.337551,-0.01803 0.08237,0.04205 0.08215,0.165816 0.118457,0.25087 0.0602,0.141044 0.113953,0.284752 0.170932,0.427129 0.335014,0.969874 0.03079,0.04702 0.314492,1.037735 0.04346,0.151756 0.09684,0.300518 0.142208,0.451717 0.03057,0.101874 0.132539,0.448917 0.153197,0.591604 0.0041,0.02848 -0.0035,0.05746 -0.0053,0.08619 -0.02851,-0.0086 -0.06329,-0.0062 -0.08555,-0.02598 -0.03002,-0.0267 -0.180356,-0.28526 -0.187195,-0.297172 -0.08102,-0.141096 -0.154599,-0.284826 -0.222713,-0.432454 -0.01861,0.02859 -0.02227,-0.102893 -0.05237,-0.08171 -0.0014,5.45e-4 -0.0099,-0.01808 -0.0085,-0.01868 v 0 c 0.05886,-0.0078 0.09294,0.0183 0.13828,0.0579 0.117963,0.126078 0.214616,0.25869 0.291152,0.414961 0.03055,0.06237 0.120893,0.259731 0.106814,0.347845 -0.0058,0.03608 -0.04421,0.05818 -0.06631,0.08727 -0.03654,-0.01755 -0.07941,-0.02562 -0.109618,-0.05264 -0.148476,-0.132904 -0.287929,-0.373966 -0.376059,-0.5357 -0.07755,-0.142319 -0.142835,-0.29099 -0.215494,-0.435869 -0.351264,-0.700408 -0.174228,-0.290768 -0.453097,-1.024133 -0.017,-0.06665 -0.207694,-0.674162 -0.138523,-0.823322 0.118666,-0.255888 0.268086,-0.426706 0.454422,-0.244817 0.04021,0.03926 0.06988,0.09058 0.08809,0.143734 0.02597,0.07577 0.02816,0.157701 0.04224,0.236552 0.313874,0.524847 0.641135,1.044813 1.000136,1.539778 0.01858,0.02633 0.03686,0.05284 0.05575,0.07894 0.0033,0.0046 0.0117,0.01869 0.01085,0.01309 -0.01711,-0.111103 -0.03189,-0.0938 -0.09511,-0.204928 -0.06585,-0.115759 -0.07593,-0.145564 -0.128424,-0.263164 -0.0069,-0.02489 0.344843,-0.122318 0.351731,-0.09744 z" />
    <path
       style="opacity:0.709769;fill:#000000;stroke:#000000;stroke-width:1;stroke-linejoin:round;stroke-dasharray:none;paint-order:stroke fill markers;stop-color:#000000"
       id="path1940"
       d="m 54.956965,79.773619 c 0.438807,0.567078 1.040888,0.994005 1.689895,1.292352 0.279172,0.128335 0.566559,0.243521 0.863447,0.322673 0.33775,0.09004 0.688391,0.121886 1.032587,0.182831 1.172107,-0.05038 1.499769,0.04599 2.537488,-0.357726 0.306291,-0.119161 0.588786,-0.29334 0.87235,-0.45949 0.433966,-0.254269 0.746007,-0.44665 1.032223,-0.853162 0.07135,-0.10133 0.101011,-0.226329 0.151519,-0.339494 -0.01901,-0.229766 -0.03897,-0.410547 -0.310428,-0.436775 -0.05518,-0.0053 -0.110407,0.01018 -0.165611,0.01531 -0.0061,0.0022 0.02554,0.08802 0.0316,0.08578 v 0 c 0.02971,-0.0053 0.05902,-0.01735 0.08915,-0.01563 0.03762,0.0022 0.162783,0.0285 0.166349,0.095 0.0022,0.0408 -0.03579,0.07346 -0.05368,0.1102 -0.076,0.05486 -0.145104,0.120846 -0.228009,0.164585 -0.150531,0.07942 -0.309415,0.142523 -0.468541,0.202898 -0.224427,0.08516 -0.448378,0.175197 -0.68126,0.233378 -0.296705,0.07412 -0.600824,0.115207 -0.902982,0.162407 -0.795733,0.124303 -0.897004,0.123581 -1.608495,0.186576 -0.289641,-0.02578 -0.582644,-0.02632 -0.868919,-0.07735 -0.270287,-0.04817 -0.531628,-0.138112 -0.793987,-0.219002 -0.641757,-0.197871 -1.261939,-0.454515 -1.862138,-0.754699 -0.03248,-0.03695 -0.555034,0.422411 -0.522553,0.459359 z" />
    <path
       style="fill:#ffff00;stroke:#000000;stroke-width:1;stroke-linecap:butt;stroke-linejoin:miter;stroke-dasharray:none;stroke-opacity:1"
       d="m 43.1797,53.608055 c 0,0 3.293672,-9.535099 18.671676,-10.020846 15.378005,-0.485745 20.583058,11.031841 22.342094,13.662202 l 0.640789,1.864581 c 0,0 -9.232815,-11.254427 -20.739956,-11.535814 -13.018205,-0.318339 -22.050909,7.428624 -22.050909,7.428624 z"
       id="path2007"
       sodipodi:nodetypes="czccscc" />
    <path
       style="fill:#ffffff;stroke:#000000;stroke-width:1;stroke-linecap:butt;stroke-linejoin:miter;stroke-dasharray:none;stroke-opacity:1"
       d="m 62.955826,47.676715 -1.382502,-1.783667 1.583145,-2.408077 1.270818,2.285395 z"
       id="path2009" />
    <path
       style="fill:#ffffff;stroke:#000000;stroke-width:1;stroke-linecap:butt;stroke-linejoin:miter;stroke-dasharray:none;stroke-opacity:1"
       d="m 69.286944,48.6111 -1.382503,-1.783667 1.583145,-2.408076 1.270819,2.285395 z"
       id="path2009-7" />
    <path
       style="fill:#ffffff;stroke:#000000;stroke-width:1;stroke-linecap:butt;stroke-linejoin:miter;stroke-dasharray:none;stroke-opacity:1"
       d="m 56.698515,47.766923 -1.382502,-1.783667 1.583144,-2.408076 1.270819,2.285395 z"
       id="path2009-0" />
    <path
       style="fill:#ffffff;stroke:#000000;stroke-width:1;stroke-linecap:butt;stroke-linejoin:miter;stroke-dasharray:none;stroke-opacity:1"
       d="m 48.839116,50.780757 -1.382503,-1.783667 1.583145,-2.408077 1.270818,2.285395 z"
       id="path2009-9" />
    <path
       style="fill:#ffffff;stroke:#000000;stroke-width:1;stroke-linecap:butt;stroke-linejoin:miter;stroke-dasharray:none;stroke-opacity:1"
       d="M 76.614192,51.755049 75.23169,49.971381 76.814835,47.563305 78.085653,49.8487 Z"
       id="path2009-9-3" />
    <path
       style="fill:#ffffff;stroke:#000000;stroke-width:1;stroke-linecap:butt;stroke-linejoin:miter;stroke-dasharray:none;stroke-opacity:1"
       d="m 57.550587,56.849793 -1.382502,-1.783666 1.583145,-2.408077 1.270818,2.285395 z"
       id="path2009-9-6" />
    <path
       style="opacity:1;fill:#ffff00;stroke:#000000;stroke-width:1;stroke-linejoin:round;stroke-dasharray:none;paint-order:stroke fill markers;stop-color:#000000"
       id="path2120"
       d="m 50.107268,50.981209 c 0.555841,-0.03325 1.105245,-0.12562 1.656917,-0.194142 0.50026,-0.06213 0.807767,-0.07986 1.314114,-0.119091 0.596466,-0.02306 1.190877,-0.06748 1.787056,-0.02254 0.433838,0.0327 0.586687,0.02828 0.985729,0.142381 0.09477,0.02708 0.18395,0.07089 0.275922,0.106322 0.04375,0.03974 0.09624,0.07159 0.131232,0.119221 0.118092,0.160734 0.150428,0.431342 0.185131,0.618651 0.0567,0.306061 0.04045,0.220915 0.112969,0.523358 0.09739,0.341944 0.229933,0.622812 0.601707,0.703787 0.03772,-0.0058 0.07501,0.01599 0.112477,0.01186 0.0031,-2.73e-4 -0.02407,-0.03197 -0.02404,-0.03079 2.67e-4,0.01085 0.0071,0.02051 0.01061,0.03074 0.110764,0.31237 0.143758,0.272754 0.720462,-0.07762 0.05703,-0.03464 0.0096,-0.133096 0.01441,-0.199646 0.02882,-0.130498 0.100662,-0.475057 0.145185,-0.588254 0.04691,-0.119282 0.111167,-0.231208 0.174403,-0.342694 0.267951,-0.472395 0.522262,-0.728743 0.904679,-1.107756 0.520758,-0.465371 1.049682,-0.930387 1.613909,-1.343648 0.299584,-0.219427 0.436089,-0.296218 0.747181,-0.489332 0.359621,-0.20028 0.733712,-0.402678 1.139309,-0.493107 0.02042,-0.0045 0.527259,-0.08928 0.545233,-0.0923 0.293197,-0.03905 0.588605,-0.05703 0.882713,-0.08683 0.184438,-0.01868 0.371411,-0.05212 0.557725,-0.04841 0.260759,0.0036 0.691786,0.17567 0.931609,0.08168 -0.05987,-0.266476 0.0759,-0.04189 0.331351,-0.04372 0.05673,-2.72e-4 0.0951,-0.06204 0.144544,-0.08988 0.06641,-0.03739 0.135172,-0.07046 0.202761,-0.105688 0.183059,-0.111201 0.380545,-0.200544 0.582546,-0.271723 0.03368,-0.01186 0.122725,-0.0233 0.162586,-0.05519 -0.0063,-0.0039 -0.01155,-0.01316 -0.01887,-0.01184 -0.0303,0.0055 -0.18608,0.08277 -0.217152,0.104725 -0.05845,0.102889 0.01942,0.202259 0.02254,0.307482 -0.0027,0.0208 -0.0053,0.04163 -0.008,0.06244 -1.66e-4,0.0022 0.03216,0.0046 0.03233,0.0024 v 0 c 0.0012,-0.02193 0.0019,-0.04382 0.0031,-0.06572 -0.0048,-0.09176 -0.05431,-0.18866 -0.03164,-0.277 0.08469,-0.0071 0.220055,-0.01885 0.269656,-0.102286 0.01357,-0.02284 0.0117,-0.05183 0.01755,-0.07774 -0.01355,-0.01915 -0.01938,-0.04753 -0.04064,-0.05744 -0.245944,-0.114639 -0.748728,0.108172 -0.969837,0.203044 -0.06886,0.04258 -0.138852,0.08335 -0.206563,0.127715 -0.05298,0.03471 -0.161106,0.04634 -0.155338,0.109402 0.0084,0.09149 0.103831,0.160427 0.184104,0.205103 0.02638,0.01469 0.02833,-0.05453 0.03284,-0.08436 0.02121,-0.140367 -0.0067,-0.146309 -0.06823,-0.275653 -0.0201,-0.02723 -0.03531,-0.05888 -0.06032,-0.08169 -0.02737,-0.02497 -0.06229,-0.04017 -0.09413,-0.05915 -0.257667,-0.15362 -0.546548,-0.233484 -0.843364,-0.271725 -0.1513,-0.0039 -0.302551,-0.0123 -0.453901,-0.01178 -0.49964,0.0017 -0.997242,0.08539 -1.491791,0.14455 -0.680062,0.116388 -1.340172,0.319362 -1.946083,0.656003 -0.136305,0.08019 -0.2752,0.156119 -0.408915,0.240553 -0.77005,0.486254 -1.47279,1.079375 -2.13185,1.704888 -0.133562,0.151023 -0.275541,0.294995 -0.400685,0.453063 -0.489773,0.618603 -0.841781,1.342659 -0.826976,2.144558 0.0078,0.08388 -0.05258,0.215474 0.0235,0.251618 0.784397,0.372587 0.760167,0.148975 0.621109,-0.227476 -0.116181,-0.236237 -0.250474,-0.395464 -0.526727,-0.412812 -0.03761,0.02692 0.01659,0.07147 0.03531,0.10358 0.0041,0.007 -0.01078,-0.01264 -0.01348,-0.02029 -0.03113,-0.08741 -0.05009,-0.196096 -0.06887,-0.28278 -0.126137,-0.665503 -0.16491,-1.264923 -0.668275,-1.780894 -0.123565,-0.08208 -0.237081,-0.18179 -0.370694,-0.246229 -0.64544,-0.311293 -1.379385,-0.31283 -2.076977,-0.321386 -0.236299,-0.0029 -0.472813,5.45e-4 -0.708845,0.01224 -0.247624,0.01218 -0.494282,0.03939 -0.741421,0.05908 -0.990982,0.13285 -1.991745,0.297078 -2.915588,0.697298 -0.03839,0.01928 0.234322,0.562219 0.272713,0.542936 z" />
    <path
       style="fill:none;stroke:#000000;stroke-width:1;stroke-linecap:round;stroke-linejoin:round;stroke-dasharray:none;stroke-opacity:1"
       d="m 57.357527,69.709381 c -6.113385,4.944231 -2.597096,2.753104 0.02827,6.248899"
       id="path18288"
       sodipodi:nodetypes="cc" />
  </g>
</svg>
