<?xml version="1.0" encoding="UTF-8" standalone="no"?>
<!-- Created with Inkscape (http://www.inkscape.org/) -->

<svg
   width="125.89113mm"
   height="124.52942mm"
   viewBox="0 0 125.89113 124.52942"
   version="1.1"
   id="svg5"
   inkscape:version="1.2.2 (b0a8486541, 2022-12-01)"
   sodipodi:docname="riding-a-unicorn.svg"
   xml:space="preserve"
   xmlns:inkscape="http://www.inkscape.org/namespaces/inkscape"
   xmlns:sodipodi="http://sodipodi.sourceforge.net/DTD/sodipodi-0.dtd"
   xmlns="http://www.w3.org/2000/svg"
   xmlns:svg="http://www.w3.org/2000/svg"><sodipodi:namedview
     id="namedview7"
     pagecolor="#ffffff"
     bordercolor="#666666"
     borderopacity="1.0"
     inkscape:showpageshadow="2"
     inkscape:pageopacity="0.0"
     inkscape:pagecheckerboard="0"
     inkscape:deskcolor="#d1d1d1"
     inkscape:document-units="mm"
     showgrid="false"
     inkscape:lockguides="false"
     inkscape:zoom="1.1893044"
     inkscape:cx="278.73436"
     inkscape:cy="330.02484"
     inkscape:window-width="1080"
     inkscape:window-height="1853"
     inkscape:window-x="0"
     inkscape:window-y="0"
     inkscape:window-maximized="1"
     inkscape:current-layer="layer1"
     showguides="true"><sodipodi:guide
       position="44.243247,60.543851"
       orientation="1,0"
       id="guide18290"
       inkscape:locked="false" /></sodipodi:namedview><defs
     id="defs2"><inkscape:path-effect
       effect="simplify"
       id="path-effect10438"
       is_visible="true"
       lpeversion="1"
       steps="1"
       threshold="0.0179452"
       smooth_angles="360"
       helper_size="0"
       simplify_individual_paths="false"
       simplify_just_coalesce="false" /><inkscape:path-effect
       effect="simplify"
       id="path-effect9291"
       is_visible="true"
       lpeversion="1"
       steps="1"
       threshold="0.0179452"
       smooth_angles="360"
       helper_size="0"
       simplify_individual_paths="false"
       simplify_just_coalesce="false" /><inkscape:path-effect
       effect="simplify"
       id="path-effect10438-0"
       is_visible="true"
       lpeversion="1"
       steps="1"
       threshold="0.0179452"
       smooth_angles="360"
       helper_size="0"
       simplify_individual_paths="false"
       simplify_just_coalesce="false" /></defs><g
     inkscape:label="Layer 1"
     inkscape:groupmode="layer"
     id="layer1"><path
       style="fill:#ff00ff;stroke:#000000;stroke-width:0.704258;stroke-linecap:butt;stroke-linejoin:miter;stroke-dasharray:none;stroke-opacity:1"
       d="m 73.245777,55.942959 c 0.605811,4.633537 1.21162,5.239034 -3.028112,7.44996 -4.23973,2.210927 -4.90562,5.512059 -5.511429,12.295819 -0.605812,6.783757 -4.13499,22.838379 -7.980914,28.229032 -3.845922,5.39064 45.635848,12.99221 42.971058,2.30151 C 97.031554,95.528581 94.48815,85.86799 91.035728,77.630418 87.5833,69.392839 83.041291,70.846341 80.467066,62.457468 c -2.574223,-8.388875 2.846305,-8.721978 -1.484017,-7.752869 -4.330319,0.969109 -5.737272,1.23836 -5.737272,1.23836 z"
       id="path2227" /><path
       style="fill:#ffaacc;stroke:#000000;stroke-width:0.704258;stroke-linecap:butt;stroke-linejoin:round;stroke-dasharray:none;stroke-opacity:1"
       d="m 76.859517,24.803281 c 6.672728,0 12.184788,7.949772 12.184788,15.318269 0,7.368497 -3.811663,18.366993 -12.587444,20.467267 C 70.492132,62.016331 64.384722,50.564394 63.456188,42.963763 62.527657,35.363134 67.459698,24.861785 76.859517,24.803281 Z"
       id="path1274"
       sodipodi:nodetypes="csssc" /><path
       style="fill:#333333;stroke:#000000;stroke-width:0.704258;stroke-linecap:butt;stroke-linejoin:round;stroke-dasharray:none;stroke-opacity:1"
       d="m 87.868672,45.019852 c 0,0 -2.354895,3.663989 -0.209388,8.05998 2.145506,4.39599 6.384884,6.594837 6.384884,6.594837 0,0 2.931415,-5.12913 1.832273,-9.525688 -1.09914,-4.396559 -4.187168,-6.804225 -4.187168,-6.804225 0,0 1.807508,-2.654204 1.045801,-7.356034 C 91.864731,30.616324 86.841065,22.529087 76.881268,23.171841 65.729545,23.891513 63.565765,34.499523 63.130795,38.863266 c 4.667341,-2.683216 6.030564,-4.055838 13.584722,-4.580014 5.94755,-0.412694 10.351564,0.392913 9.203213,5.767076 -0.709018,3.318132 1.949942,4.969524 1.949942,4.969524 z"
       id="path1272"
       sodipodi:nodetypes="cscscsscssc" /><path
       style="opacity:0.709769;fill:#000000;stroke:#000000;stroke-width:0.704258;stroke-linejoin:round;stroke-dasharray:none;paint-order:stroke fill markers;stop-color:#000000"
       id="path1597"
       d="m 76.283336,40.242448 c -0.171925,-0.156752 -0.343338,-0.319426 -0.428973,-0.542857 -0.05039,-0.131496 -0.04674,-0.219787 -0.05605,-0.356104 0.06026,-0.148857 0.07954,-0.225989 0.185073,-0.355868 0.0538,-0.06623 0.118393,-0.123011 0.180542,-0.181485 0.142625,-0.134193 0.260716,-0.234266 0.427664,-0.338575 0.07756,-0.04846 0.160678,-0.08743 0.241016,-0.13115 0.288227,-0.154298 0.602142,-0.254873 0.924038,-0.308758 0.07752,-0.01298 0.155104,-0.02726 0.233512,-0.03276 0.08555,-0.006 0.171509,-0.0012 0.257267,-0.0016 0.664977,0.103176 1.336935,0.143635 2.005933,0.209197 0.193985,0.0309 0.39013,0.05803 0.576925,0.121474 0.09388,0.03188 0.182808,0.0776 0.270328,0.12345 0.165995,0.09361 0.34301,0.170074 0.538427,0.141565 0.02957,-0.0044 0.05691,-0.01833 0.08536,-0.02748 0.12869,-0.05803 0.20052,-0.180528 0.29522,-0.277855 0.107281,-0.113499 0.204407,-0.156611 0.344892,-0.216999 0.09729,-0.05065 0.232636,-0.08819 0.285957,-0.19364 -0.004,-0.103294 -0.06467,0.01826 -0.07377,0.02805 -0.0087,0.0094 -0.01944,0.01694 -0.02917,0.0254 -0.01909,0.0092 -0.08003,0.0611 -0.0962,0.02679 -0.04252,0.02072 -0.05327,0.06026 -0.0672,0.101435 -1.91e-4,9.58e-4 0.01366,0.0049 0.01393,0.0038 v 0 c 0.01197,-0.03523 0.0487,-0.05944 0.03977,-0.100094 0.02563,0.05367 0.102633,0.01069 0.135059,-0.01205 0.01593,-0.01737 0.04575,-0.04376 0.04869,-0.07038 9.57e-4,-0.0092 -0.0099,-0.01608 -0.01172,-0.02512 -5.58e-4,-0.0025 0.0047,0.004 0.0071,0.0031 0.0023,-8.44e-4 0.0017,-0.0091 -0.0026,-0.0067 -0.09928,0.05244 -0.203161,0.09174 -0.307512,0.13327 -0.13574,0.05803 -0.26251,0.135564 -0.371131,0.236358 -0.08441,0.07817 -0.165927,0.170105 -0.277681,0.206914 -0.01983,0.0025 -0.03953,0.0067 -0.0595,0.0074 -0.102421,0.0036 -0.240435,-0.102385 -0.314063,-0.163211 -0.0156,-0.01667 -0.128248,-0.137398 -0.141243,-0.149316 -0.199243,-0.182696 -0.449008,-0.291604 -0.707034,-0.362854 -0.105303,-0.02417 -0.209677,-0.05282 -0.315911,-0.0725 -0.258839,-0.04796 -0.498394,-0.068 -0.761023,-0.09113 -0.414905,-0.03654 -0.830237,-0.05604 -1.246844,-0.03367 -0.199298,0.02164 -0.340804,0.03283 -0.536302,0.06969 -0.362864,0.06839 -0.713994,0.181047 -1.045139,0.345428 -0.09047,0.05568 -0.18437,0.106122 -0.271415,0.167007 -0.329775,0.230655 -0.662615,0.544309 -0.79286,0.937098 -0.03035,0.09152 -0.03629,0.189383 -0.05445,0.284075 0.004,0.08177 -0.0029,0.164791 0.01195,0.245321 0.05959,0.325051 0.265495,0.62166 0.557356,0.77838 0.0522,0.02802 0.110449,0.04294 0.165671,0.06441 0.01468,0.0096 0.150912,-0.197937 0.136235,-0.207571 z" /><circle
       id="path1599"
       style="fill:#000000;stroke:#000000;stroke-width:0.86394;stroke-dasharray:none"
       cx="63.987789"
       cy="70.984558"
       r="0" /><path
       style="opacity:0.709769;fill:#000000;stroke:#000000;stroke-width:0.704258;stroke-linejoin:round;stroke-dasharray:none;paint-order:stroke fill markers;stop-color:#000000"
       id="path1607"
       d="m 66.815601,39.813822 c 0.313838,-0.02003 0.622427,-0.07994 0.9312,-0.13567 0.282707,-0.05104 0.737387,-0.129453 1.007699,-0.187036 0.189388,-0.04035 0.377068,-0.08831 0.565603,-0.132463 0.193286,-0.04301 0.386853,-0.08478 0.579862,-0.12904 0.174658,-0.04003 0.348173,-0.08504 0.523116,-0.123827 0.480592,-0.106567 0.96639,-0.185569 1.45115,-0.269968 0.03199,-0.0063 0.06343,-0.01663 0.09596,-0.01895 0.214272,-0.01527 0.463848,0.0055 0.669579,0.07014 0.142097,0.05454 0.288731,0.107556 0.411192,0.200755 0.07111,0.05412 0.102447,0.09345 0.162271,0.158128 0.144271,0.160092 0.184304,0.214645 0.143381,0.425921 -0.04282,0.108911 -0.05965,0.176524 -0.0449,0.292969 0.003,0.01835 0.0061,0.03668 0.0091,0.05502 3.82e-4,0.0027 0.03876,-0.0033 0.03833,-0.0061 v 0 c -0.0038,-0.01802 -0.0076,-0.03606 -0.01145,-0.05409 -0.0262,-0.120933 0.01469,-0.168125 0.07225,-0.27151 0.08183,-0.19674 0.04886,-0.354977 -0.04789,-0.540847 -0.06396,-0.09582 -0.08133,-0.132769 -0.167659,-0.214732 -0.120815,-0.114712 -0.27129,-0.185962 -0.416712,-0.262566 -0.09357,-0.05131 -0.1197,-0.06977 -0.223515,-0.108312 -0.258511,-0.09599 -0.540145,-0.103324 -0.811771,-0.121771 -0.09291,-0.0044 -0.1857,-0.01264 -0.278702,-0.01326 -0.8248,-0.0055 -1.64593,0.145588 -2.441185,0.351858 -0.702125,0.192455 -0.398523,0.10119 -1.073027,0.316915 -0.42966,0.137421 -0.871263,0.25458 -1.269323,0.472471 -0.01739,0.0088 0.108051,0.254764 0.125437,0.245895 z" /><path
       style="fill:#ffffff;stroke:#000000;stroke-width:0.704258;stroke-linecap:butt;stroke-linejoin:miter;stroke-dasharray:none;stroke-opacity:1"
       d="m 75.528054,42.587255 c 0,0 1.136557,-1.864 4.032606,-1.088006 2.896047,0.775995 3.292797,1.697276 3.292797,1.697276 0,0 -1.088004,3.01726 -3.7135,3.01726 -2.625494,0 -3.611903,-3.62653 -3.611903,-3.62653 z"
       id="path1611" /><path
       style="opacity:0.709769;fill:#0000ff;stroke:#000000;stroke-width:0.704258;stroke-linejoin:round;stroke-dasharray:none;paint-order:stroke fill markers;stop-color:#000000"
       id="path1770"
       d="m 78.663361,45.444776 c -0.0099,-0.09391 -0.01534,-0.188392 -0.02963,-0.28173 -0.02055,-0.134186 -0.05559,-0.265938 -0.07485,-0.400316 -0.04683,-0.326849 -0.0792,-0.712556 -0.0615,-1.041373 0.02492,-0.463043 0.075,-0.572899 0.187046,-1.003653 -0.08697,-0.07012 0.250237,-0.370955 0.353874,-0.265927 0.04157,0.04212 -0.04132,0.120063 -0.02234,0.17611 0.04243,0.12534 0.146237,0.222239 0.198403,0.34385 0.17809,0.415179 0.187363,0.615899 0.266342,1.0585 9.58e-4,0.08892 0.04358,0.643614 -0.0634,0.781338 -0.122184,0.15731 -0.422576,0.101746 -0.564961,0.07406 -0.341845,-0.06648 -0.572966,-0.156766 -0.899758,-0.267616 -0.01974,-0.01273 -0.199762,0.266446 -0.18002,0.279174 v 0 c 0.14819,0.06877 0.290317,0.152509 0.444571,0.206324 0.359549,0.125432 0.799663,0.211268 1.180061,0.129028 0.320742,-0.06934 0.678045,-0.385513 0.799082,-0.68171 0.08059,-0.197215 0.0574,-0.422213 0.08611,-0.633317 -0.09971,-0.624659 -0.05958,-0.800419 -0.419591,-1.344256 -0.291839,-0.440846 -0.577739,-0.673528 -1.147634,-0.666551 -0.401426,0.0049 -0.581098,0.368945 -0.783085,0.626426 -0.06172,0.191642 -0.146437,0.37735 -0.185149,0.574925 -0.122016,0.622723 -0.04178,1.233632 0.171496,1.824341 0.05063,0.140228 0.110559,0.277772 0.182642,0.408278 0.05436,0.09843 0.129949,0.18354 0.194922,0.275312 0.01211,0.02598 0.379485,-0.145232 0.367378,-0.171212 z" /><path
       style="opacity:0.709769;fill:#0000ff;stroke:#000000;stroke-width:0.704258;stroke-linejoin:round;stroke-dasharray:none;paint-order:stroke fill markers;stop-color:#000000"
       id="path1772"
       d="m 78.515291,42.963026 c -0.107257,0.34025 -0.156632,0.694373 -0.177538,1.049731 -0.02083,0.353726 -0.02728,0.464771 0.05245,0.795379 0.01634,0.06778 0.0475,0.131124 0.07125,0.196682 0.04278,0.0061 0.09096,0.03987 0.128307,0.01817 0.05759,-0.03344 0.08507,-0.103315 0.117992,-0.161193 0.0742,-0.130416 0.229961,-0.507245 0.281432,-0.627616 0.0051,-0.01803 -0.249753,-0.09213 -0.254993,-0.07409 v 0 c -0.0674,0.244162 -0.125269,0.414619 -0.15698,0.661292 -0.007,0.05391 -0.02139,0.111844 -0.0031,0.163007 0.0085,0.02394 0.04748,0.01822 0.07123,0.0273 0.08992,-0.180816 0.159083,-0.304571 0.214255,-0.514766 0.03764,-0.143397 0.05802,-0.290998 0.07735,-0.437985 0.04756,-0.361756 0.06209,-0.72731 -0.0099,-1.086851 5.57e-4,-0.02912 -0.411219,-0.03821 -0.411859,-0.009 z" /><path
       style="opacity:0.709769;fill:#0000ff;stroke:#000000;stroke-width:0.704258;stroke-linejoin:round;stroke-dasharray:none;paint-order:stroke fill markers;stop-color:#000000"
       id="path1774"
       d="m 79.005009,43.143171 c -0.152827,0.264712 -0.225559,0.557784 -0.276647,0.856671 -0.04836,0.282949 -0.06281,0.397642 -0.04261,0.672987 0.0047,0.06293 0.01972,0.124657 0.02957,0.186983 0.04215,0.0061 0.08961,0.03987 0.126449,0.01848 0.07992,-0.04641 0.239992,-0.398925 0.255224,-0.432756 0.04841,-0.107562 0.08846,-0.218712 0.133695,-0.327652 0.127274,-0.306505 0.142717,-0.337811 0.271816,-0.631703 0.282735,-0.241334 0.13828,-0.09134 0.291859,-0.287502 0.0096,-0.01234 -0.01176,0.03408 -0.02675,0.03862 -0.07,0.02113 -0.163807,-0.01579 -0.216552,0.03485 -0.06446,0.06189 -0.0606,0.168295 -0.08471,0.254336 -0.03546,0.126511 -0.06258,0.255212 -0.09386,0.382819 -0.05162,0.363663 -0.119532,0.725649 -0.160224,1.090882 -0.0031,0.0286 -0.02309,0.244903 -0.01393,0.302646 0.0057,0.03628 0.02285,0.06983 0.03427,0.104728 0.09988,0.181488 0.255198,0.323835 0.394381,0.474564 0.0079,0.0097 0.146307,-0.102739 0.13835,-0.112524 v 0 c -0.153457,-0.127216 -0.312424,-0.246735 -0.462341,-0.377868 -0.0041,-0.02279 -0.01839,-0.04599 -0.0124,-0.06835 0.0094,-0.03509 0.03696,-0.06258 0.05588,-0.09361 0.03461,-0.05677 0.07355,-0.111034 0.104688,-0.169783 0.178814,-0.337431 0.300316,-0.702436 0.415303,-1.06512 0.02117,-0.123188 0.127962,-0.593909 0.06692,-0.749367 -0.04693,-0.119504 -0.13462,-0.230937 -0.244177,-0.297875 -0.09222,-0.05635 -0.301998,0.128272 -0.329166,0.177545 -0.04575,0.08299 -0.04927,0.183011 -0.0739,0.274516 -0.05341,0.100156 -0.112782,0.197355 -0.160221,0.300477 -0.10526,0.228812 -0.174036,0.441561 -0.236359,0.684548 -0.0054,0.021 -0.09688,0.372801 -0.069,0.456507 0.0086,0.026 0.04935,0.02386 0.07402,0.03579 0.06521,-0.154873 0.120155,-0.277502 0.170998,-0.444409 0.03543,-0.116318 0.06215,-0.235123 0.09131,-0.353165 0.06874,-0.278156 0.132259,-0.557563 0.156893,-0.843722 0.0065,-0.02183 -0.30227,-0.114386 -0.308811,-0.09255 z" /><path
       style="opacity:0.709769;fill:#0000ff;stroke:#000000;stroke-width:0.704258;stroke-linejoin:round;stroke-dasharray:none;paint-order:stroke fill markers;stop-color:#000000"
       id="path1776"
       d="m 78.805282,42.594117 c -0.111771,0.05375 0.09099,-0.13464 0.04997,-0.120362 -0.08191,0.02852 -0.153366,0.08192 -0.234144,0.113508 -0.02426,0.0094 -0.0657,-0.01468 -0.07768,0.0084 -0.04599,0.08884 -0.0949,0.608237 -0.09778,0.632687 -0.02717,0.323209 -0.07657,0.751604 -0.04811,1.075515 0.0148,0.168557 0.05765,0.333674 0.09647,0.498367 0.02521,0.106971 0.08145,0.460957 0.259104,0.520697 0.06298,0.02117 0.129097,-0.03149 0.193646,-0.04722 0.0219,-0.07688 0.05242,-0.151791 0.06572,-0.23061 0.04179,-0.248024 0.01931,-0.51021 -0.02204,-0.756488 -0.01442,-0.08591 -0.03523,-0.170647 -0.05007,-0.256482 -0.0017,-0.03217 -0.0031,-0.06433 -0.005,-0.09649 10e-7,-0.0049 -0.06843,-0.0049 -0.06843,-2.5e-5 v 0 c -0.0017,0.03308 -0.0033,0.06617 -0.005,0.09924 -0.01422,0.160727 -0.0053,0.07459 -0.02814,0.258295 -0.02776,0.303988 -0.0188,0.611092 0.02141,0.913574 0.03228,0.01756 0.0659,0.07252 0.09685,0.05271 0.04033,-0.02581 0.03115,-0.09121 0.03743,-0.138681 0.01461,-0.110264 0.01275,-0.222194 0.025,-0.332742 0.01768,-0.159421 0.05313,-0.316844 0.06475,-0.476821 0.02967,-0.408083 0.0035,-0.676281 -0.01744,-1.081893 -0.02448,-0.226978 -0.03298,-0.497091 -0.1234,-0.715667 -0.031,-0.07494 -0.05258,-0.183715 -0.130792,-0.20515 -0.09732,-0.02668 -0.203262,0.03691 -0.289017,0.0901 -0.03935,0.02441 -0.0019,0.17125 0.0025,0.195494 0,0.02009 0.284034,0.02009 0.284034,0 z" /><path
       style="opacity:0.709769;fill:#0000ff;stroke:#000000;stroke-width:0.704258;stroke-linejoin:round;stroke-dasharray:none;paint-order:stroke fill markers;stop-color:#000000"
       id="path1778"
       d="m 78.939507,43.350428 c -0.0148,0.05409 -0.03481,0.106996 -0.04441,0.162236 -0.01287,0.07413 -0.01591,0.149651 -0.02278,0.224585 -0.01857,0.202695 -0.0396,0.42109 -0.03357,0.624707 0.0031,0.10839 0.0195,0.216002 0.02766,0.324128 0.007,0.09223 0.01182,0.184596 0.01774,0.276892 0.09206,0.0013 -0.01697,0.247867 0.07337,0.290299 0.02553,0.01198 0.06363,-0.0077 0.07843,-0.03172 0.02181,-0.03538 0.01314,-0.08212 0.01724,-0.123475 0.01809,-0.183235 0.01568,-0.241434 0.02029,-0.431562 0.0037,-0.195005 -0.0092,-0.390139 -0.0031,-0.585134 0.0129,-0.220475 0.0081,-0.112021 0.01475,-0.325349 3.83e-4,-0.0077 -0.1091,-0.01317 -0.109485,-0.0055 v 0 c -0.0093,0.107818 -0.01519,0.215968 -0.02676,0.323569 -0.02124,0.197311 -0.06131,0.393125 -0.0547,0.592872 0.0061,0.200734 -0.0013,0.248994 0.03713,0.43987 0.0099,0.0489 0.007,0.107079 0.04034,0.144113 0.145406,0.161129 0.238996,-0.252551 0.240545,-0.271953 0.01526,-0.08486 0.09924,-0.544226 0.105104,-0.608984 0.01823,-0.201403 0.0012,-0.431514 -0.01509,-0.632851 -0.0061,-0.075 -0.0099,-0.15045 -0.02278,-0.224587 -0.0096,-0.05524 -0.0296,-0.108155 -0.04441,-0.162234 0,-0.0209 -0.295531,-0.0209 -0.295531,0 z" /><path
       style="opacity:0.709769;fill:#0000ff;stroke:#000000;stroke-width:0.704258;stroke-linejoin:round;stroke-dasharray:none;paint-order:stroke fill markers;stop-color:#000000"
       id="path1780"
       d="m 78.927066,43.238995 c -0.04254,0.509826 -0.07438,1.022438 -0.0089,1.532214 0.01839,0.143109 0.05593,0.283121 0.08099,0.42521 0.01765,0.09994 0.0314,0.200531 0.04711,0.300797 0.01783,0.03937 0.01608,0.09647 0.05351,0.118094 0.02377,0.01376 0.05908,-0.02231 0.06639,-0.04879 0.01208,-0.04379 -0.0092,-0.09041 -0.01556,-0.1354 -0.03072,-0.218536 -0.07517,-0.434015 -0.120215,-0.649922 -0.01228,-0.04711 -0.02565,-0.09395 -0.03681,-0.141333 -0.0079,-0.03381 -0.02567,-0.09585 -0.0062,-0.103884 0.008,-0.0033 0.01536,0.0081 0.02305,0.01225 0.0019,8.44e-4 0.01318,-0.02615 0.01127,-0.02696 v 0 c -0.01976,-8.45e-4 -0.04057,-0.0084 -0.05929,-0.002 -0.09945,0.03393 -0.0753,0.213903 -0.08439,0.280262 0.01841,0.230491 0.04131,0.457279 0.132034,0.673344 0.04477,0.106615 0.08966,0.254181 0.251151,0.174519 0.05453,-0.02688 0.07674,-0.09431 0.115117,-0.141456 0.04284,-0.20242 0.124515,-0.565212 0.138909,-0.753468 0.04035,-0.527695 -0.04952,-1.059245 -0.206301,-1.561419 -0.0033,-0.027 -0.385262,0.02102 -0.381867,0.04803 z" /><path
       style="opacity:0.709769;fill:#0000ff;stroke:#000000;stroke-width:0.704258;stroke-linejoin:round;stroke-dasharray:none;paint-order:stroke fill markers;stop-color:#000000"
       id="path1782"
       d="m 78.255909,45.0019 c -0.01787,0.146617 -0.03118,0.195176 -0.01126,0.356333 0.03021,0.244605 0.118375,0.522641 0.284066,0.711056 0.05763,0.06554 0.135027,0.110587 0.202539,0.165878 0.248281,0.04081 0.323785,0.09484 0.567586,-0.05344 0.07171,-0.0436 0.120012,-0.118786 0.167382,-0.188058 0.09068,-0.132614 0.127994,-0.249909 0.138293,-0.407318 0.0033,-0.05227 -0.0074,-0.104495 -0.01113,-0.156739 -0.0175,-0.0342 -0.02809,-0.07295 -0.05252,-0.102624 -0.118756,-0.144286 -0.292526,0.03615 -0.360848,0.133495 -0.02326,0.03313 -0.04015,0.0703 -0.06022,0.105438 -0.05069,0.01603 -0.07939,0.332301 0.01979,0.172297 0.0063,-0.05333 0.0071,-0.02631 -0.0029,-0.08102 -3.83e-4,-0.0019 -0.02748,0.0031 -0.02713,0.005 v 0 c 0.01249,0.04582 0.0095,0.02313 0.0099,0.06795 -0.0044,0.01337 -0.02383,0.05095 -0.01854,0.03791 0.02379,-0.05877 0.06978,-0.10676 0.09663,-0.163727 0.02582,-0.03955 0.178451,-0.276036 0.224863,-0.277822 0.04775,-0.0019 0.02779,0.09442 0.02778,0.09781 -0.0077,0.04003 -0.01059,0.08131 -0.02315,0.12009 -0.02627,0.08117 -0.10496,0.240027 -0.155587,0.30522 -0.03287,0.04233 -0.07799,0.07355 -0.115933,0.111417 -0.01284,0.01283 -0.0183,0.0384 -0.03632,0.0405 -0.03064,0.0036 -0.05922,-0.01733 -0.08882,-0.026 -0.03754,-0.03682 -0.07951,-0.06963 -0.112619,-0.110503 -0.19592,-0.24188 -0.285103,-0.560434 -0.366936,-0.854908 5.59e-4,-0.02084 -0.294285,-0.02917 -0.294872,-0.0084 z" /><path
       style="opacity:0.709769;fill:#0000ff;stroke:#000000;stroke-width:0.704258;stroke-linejoin:round;stroke-dasharray:none;paint-order:stroke fill markers;stop-color:#000000"
       id="path1784"
       d="m 79.234456,44.621304 c -0.130483,0.26385 -0.259326,0.534151 -0.349414,0.815134 -0.03032,0.09453 -0.04388,0.193788 -0.07221,0.288932 -0.08967,0.301074 -0.05515,0.09215 -0.07649,0.23711 0.02056,-0.0095 0.04865,-0.01005 0.06171,-0.02863 0.02083,-0.02963 0.01839,-0.07023 0.03155,-0.103955 0.01911,-0.04901 0.04044,-0.0973 0.06503,-0.143804 0.07515,-0.142049 0.169856,-0.275514 0.263363,-0.4058 -0.04878,0.01133 0.113026,-0.131698 0.07467,-0.140636 -0.01117,-0.0026 -0.02279,0.0026 -0.03418,0.004 -9.57e-4,9.57e-4 0.01311,0.0151 0.01409,0.01409 v 0 c 0.0038,-0.0099 0.01506,-0.01973 0.01171,-0.02988 -0.01428,-0.04293 -0.159974,0.108247 -0.159375,0.08983 -0.165204,0.166885 -0.329237,0.358448 -0.366215,0.600724 -0.0077,0.04997 -0.01783,0.106355 0.0049,0.151515 0.02318,0.04618 0.0802,0.06518 0.120302,0.09777 0.206132,-0.05262 0.142519,-0.0084 0.312078,-0.210183 0.07174,-0.08539 0.147442,-0.169106 0.203891,-0.2653 0.09889,-0.168518 0.206184,-0.475854 0.243134,-0.669117 0.0158,-0.08267 0.01139,-0.167947 0.01711,-0.251921 0.0036,-0.02585 -0.362051,-0.07572 -0.365577,-0.04986 z" /><path
       style="opacity:0.709769;fill:#0000ff;stroke:#000000;stroke-width:0.704258;stroke-linejoin:round;stroke-dasharray:none;paint-order:stroke fill markers;stop-color:#000000"
       id="path1786"
       d="m 78.82409,45.069555 c -0.03084,0.101856 -0.04539,0.201676 -0.03585,0.30788 0.0061,0.06876 1.92e-4,0.131029 0.09873,0.135575 0.04561,0.002 0.088,-0.02436 0.132007,-0.03652 0.04947,-0.03944 0.102798,-0.07447 0.148384,-0.118352 0.275433,-0.265074 0.466669,-0.640203 0.631617,-0.980673 0.08388,-0.04072 0.120782,-0.132177 0.190423,-0.187858 0.0084,-0.0067 -0.0051,0.02764 -0.01601,0.0283 -0.07921,0.0049 -0.167049,-0.04879 -0.237723,-0.0127 -0.05802,0.02962 -0.05785,0.116778 -0.08342,0.176677 -0.04239,0.09933 -0.08025,0.20054 -0.12038,0.300809 -0.235937,0.683042 -0.02169,0.03311 -0.221484,0.730833 -0.03061,0.106875 -0.0682,0.211642 -0.100155,0.318125 -0.02152,0.07174 -0.09334,0.316153 -0.10789,0.416641 -0.0029,0.02006 0.0025,0.04047 0.0037,0.0607 0.02008,-0.0061 0.04458,-0.0044 0.06025,-0.01829 0.02114,-0.01881 0.127017,-0.200897 0.131833,-0.209286 0.05707,-0.09936 0.108879,-0.200592 0.156847,-0.304559 0.01311,0.02012 0.01567,-0.07245 0.03688,-0.05755 9.57e-4,3.83e-4 0.007,-0.01273 0.006,-0.01316 v 0 c -0.04144,-0.0055 -0.06545,0.0129 -0.09738,0.04078 -0.08307,0.08879 -0.151144,0.182184 -0.205045,0.292239 -0.02151,0.04393 -0.08514,0.182918 -0.07522,0.244974 0.0041,0.0254 0.03113,0.04098 0.04669,0.06146 0.02573,-0.01237 0.05593,-0.01804 0.0772,-0.03708 0.104565,-0.0936 0.202776,-0.263367 0.264842,-0.37727 0.05461,-0.100226 0.100592,-0.204932 0.151763,-0.306963 0.247381,-0.493269 0.122702,-0.204777 0.319097,-0.721254 0.01198,-0.04694 0.146271,-0.474784 0.09756,-0.579831 -0.08356,-0.18021 -0.188802,-0.300511 -0.320029,-0.172414 -0.02832,0.02765 -0.04922,0.06379 -0.06204,0.101222 -0.01829,0.05337 -0.01983,0.111061 -0.02975,0.166594 -0.221048,0.369626 -0.451524,0.735818 -0.704354,1.0844 -0.01309,0.01854 -0.02596,0.03722 -0.03925,0.05559 -0.0023,0.0032 -0.0083,0.01317 -0.0076,0.0092 0.01205,-0.07824 0.02246,-0.06606 0.06698,-0.144322 0.04637,-0.08152 0.05348,-0.102514 0.09044,-0.185335 0.0049,-0.01753 -0.242859,-0.08615 -0.247711,-0.06862 z" /><path
       style="fill:#ffffff;stroke:#000000;stroke-width:0.704258;stroke-linecap:butt;stroke-linejoin:miter;stroke-dasharray:none;stroke-opacity:1"
       d="m 73.066285,42.688446 c 0,0 -1.136556,-1.864 -4.032605,-1.088005 -2.896048,0.775994 -3.292799,1.697276 -3.292799,1.697276 0,0 1.088005,3.01726 3.713501,3.01726 2.625495,0 3.611903,-3.626531 3.611903,-3.626531 z"
       id="path1611-6" /><path
       style="opacity:0.709769;fill:#0000ff;stroke:#000000;stroke-width:0.704258;stroke-linejoin:round;stroke-dasharray:none;paint-order:stroke fill markers;stop-color:#000000"
       id="path1770-7"
       d="m 69.930979,45.545967 c 0.0099,-0.09391 0.01533,-0.188391 0.02963,-0.28173 0.02055,-0.134187 0.05559,-0.265938 0.07485,-0.400316 0.04683,-0.326849 0.0792,-0.712556 0.0615,-1.041372 -0.02492,-0.463044 -0.075,-0.572899 -0.187045,-1.003652 0.08697,-0.07012 -0.250237,-0.370958 -0.353875,-0.26593 -0.04157,0.04212 0.04132,0.120064 0.02235,0.176111 -0.04243,0.125339 -0.146238,0.222237 -0.198403,0.34385 -0.178091,0.415179 -0.187364,0.6159 -0.266343,1.058499 -9.57e-4,0.08892 -0.04358,0.643614 0.0634,0.78134 0.122184,0.157308 0.422575,0.101744 0.56496,0.07406 0.341845,-0.06648 0.572966,-0.156766 0.899757,-0.267615 0.01974,-0.01273 0.199764,0.266446 0.180024,0.279175 v 0 c -0.148194,0.06877 -0.290319,0.152507 -0.444575,0.206323 -0.359547,0.125433 -0.799661,0.211269 -1.180059,0.129027 -0.320742,-0.06934 -0.678044,-0.385513 -0.799082,-0.681708 -0.0806,-0.197217 -0.05741,-0.422213 -0.08611,-0.633319 0.09971,-0.624657 0.05958,-0.800419 0.419592,-1.344254 0.291839,-0.440848 0.577737,-0.673528 1.147633,-0.666551 0.401426,0.0049 0.581096,0.368944 0.783085,0.626425 0.06172,0.191642 0.146436,0.377349 0.185149,0.574924 0.122016,0.622724 0.04178,1.233631 -0.171498,1.82434 -0.05063,0.14023 -0.110558,0.277772 -0.182641,0.40828 -0.05436,0.09843 -0.129948,0.18354 -0.194921,0.275311 -0.01211,0.02598 -0.379485,-0.145232 -0.367378,-0.17121 z" /><path
       style="opacity:0.709769;fill:#0000ff;stroke:#000000;stroke-width:0.704258;stroke-linejoin:round;stroke-dasharray:none;paint-order:stroke fill markers;stop-color:#000000"
       id="path1772-5"
       d="m 70.079049,43.064217 c 0.107257,0.340249 0.156631,0.694372 0.177537,1.049731 0.02082,0.353725 0.02728,0.464771 -0.05245,0.795378 -0.01634,0.06779 -0.0475,0.131123 -0.07125,0.196683 -0.04278,0.0061 -0.09096,0.03987 -0.128308,0.01817 -0.05759,-0.03344 -0.08507,-0.103315 -0.117993,-0.161193 -0.0742,-0.130417 -0.22996,-0.507245 -0.28143,-0.627618 -0.0051,-0.01802 0.249752,-0.09211 0.254991,-0.07409 v 0 c 0.0674,0.244162 0.12527,0.414618 0.15698,0.661291 0.007,0.05391 0.0214,0.111845 0.0031,0.163006 -0.0085,0.02394 -0.04749,0.01822 -0.07123,0.02731 -0.08992,-0.180816 -0.159084,-0.304572 -0.214256,-0.514767 -0.03764,-0.143396 -0.05802,-0.290997 -0.07735,-0.437985 -0.04756,-0.361756 -0.06209,-0.72731 0.0099,-1.086852 -5.57e-4,-0.02912 0.411218,-0.0382 0.411858,-0.009 z" /><path
       style="opacity:0.709769;fill:#0000ff;stroke:#000000;stroke-width:0.704258;stroke-linejoin:round;stroke-dasharray:none;paint-order:stroke fill markers;stop-color:#000000"
       id="path1774-3"
       d="m 69.589331,43.244362 c 0.152825,0.264713 0.225559,0.557784 0.276645,0.856671 0.04837,0.282949 0.06281,0.397642 0.04261,0.672988 -0.0047,0.06294 -0.01972,0.124655 -0.02958,0.186982 -0.04215,0.0061 -0.08961,0.03989 -0.126448,0.01848 -0.07992,-0.0464 -0.239989,-0.398923 -0.255222,-0.432757 -0.04842,-0.107561 -0.08846,-0.218711 -0.133696,-0.327651 -0.127274,-0.306504 -0.142717,-0.337811 -0.271817,-0.631703 -0.282734,-0.241334 -0.138279,-0.09134 -0.291859,-0.287501 -0.0096,-0.01233 0.01176,0.03408 0.02674,0.03862 0.07,0.02113 0.163808,-0.01579 0.216552,0.03485 0.06447,0.06187 0.0606,0.168293 0.08471,0.254333 0.03546,0.126513 0.06258,0.255215 0.09386,0.38282 0.05162,0.363664 0.119533,0.72565 0.160224,1.090882 0.0031,0.02862 0.02309,0.244904 0.01393,0.302647 -0.0057,0.03628 -0.02285,0.06983 -0.03427,0.104727 -0.09988,0.181489 -0.255198,0.323836 -0.394382,0.474566 -0.0079,0.0097 -0.146307,-0.102741 -0.13835,-0.112526 v 0 c 0.153458,-0.127214 0.312424,-0.246734 0.462342,-0.377867 0.0041,-0.02279 0.01839,-0.04599 0.01239,-0.06835 -0.0094,-0.03509 -0.03696,-0.06258 -0.05588,-0.09361 -0.03461,-0.05677 -0.07355,-0.111034 -0.104688,-0.169784 -0.178814,-0.337429 -0.300318,-0.702435 -0.415303,-1.065118 -0.02118,-0.123189 -0.127961,-0.593908 -0.06692,-0.749367 0.04693,-0.119504 0.134618,-0.230936 0.244176,-0.297875 0.09222,-0.05635 0.301999,0.128272 0.329166,0.177544 0.04575,0.08299 0.04927,0.183012 0.0739,0.274517 0.0534,0.100156 0.112783,0.197356 0.160223,0.300476 0.10526,0.228814 0.174034,0.441562 0.236358,0.684548 0.0054,0.021 0.09688,0.372801 0.069,0.456507 -0.0086,0.02601 -0.04935,0.02387 -0.07402,0.03579 -0.06521,-0.154872 -0.120154,-0.277501 -0.170998,-0.444409 -0.03542,-0.116316 -0.06215,-0.235122 -0.09131,-0.353163 -0.06874,-0.278156 -0.132259,-0.557564 -0.156895,-0.843723 -0.0065,-0.02183 0.30227,-0.114385 0.308813,-0.09255 z" /><path
       style="opacity:0.709769;fill:#0000ff;stroke:#000000;stroke-width:0.704258;stroke-linejoin:round;stroke-dasharray:none;paint-order:stroke fill markers;stop-color:#000000"
       id="path1776-5"
       d="m 69.789057,42.695307 c 0.111771,0.05375 -0.09099,-0.13464 -0.04997,-0.12036 0.08191,0.02852 0.153366,0.08192 0.234143,0.113508 0.02426,0.0094 0.0657,-0.01468 0.07768,0.0084 0.04599,0.08883 0.0949,0.608236 0.09778,0.632685 0.02717,0.323209 0.07657,0.751604 0.0481,1.075516 -0.01481,0.168557 -0.05765,0.333674 -0.09648,0.498367 -0.02521,0.106972 -0.08145,0.460957 -0.259104,0.520697 -0.06298,0.02118 -0.129098,-0.03149 -0.193645,-0.04722 -0.02191,-0.07688 -0.05242,-0.151792 -0.0657,-0.230611 -0.04178,-0.248022 -0.0193,-0.510208 0.02204,-0.756488 0.01442,-0.08591 0.03523,-0.170646 0.05007,-0.256482 0.0017,-0.03217 0.0031,-0.06433 0.005,-0.09649 -2e-6,-0.0049 0.06843,-0.0049 0.06843,-2.6e-5 v 0 c 0.0017,0.03308 0.0033,0.06617 0.005,0.09924 0.01423,0.160726 0.0053,0.07459 0.02814,0.258294 0.02776,0.303987 0.0188,0.611094 -0.0214,0.913574 -0.03228,0.01756 -0.0659,0.07252 -0.09685,0.05271 -0.04033,-0.02581 -0.03115,-0.09121 -0.03745,-0.13868 -0.01462,-0.110264 -0.01275,-0.222195 -0.025,-0.332744 -0.01768,-0.15942 -0.05313,-0.316843 -0.06476,-0.476819 -0.02966,-0.408085 -0.0036,-0.676282 0.01744,-1.081894 0.02447,-0.226979 0.03298,-0.497092 0.1234,-0.715668 0.031,-0.07493 0.05258,-0.183714 0.130791,-0.205149 0.09732,-0.02668 0.203264,0.03691 0.289019,0.0901 0.03935,0.02441 0.0019,0.171248 -0.0025,0.195495 0,0.02009 -0.284032,0.02009 -0.284032,0 z" /><path
       style="opacity:0.709769;fill:#0000ff;stroke:#000000;stroke-width:0.704258;stroke-linejoin:round;stroke-dasharray:none;paint-order:stroke fill markers;stop-color:#000000"
       id="path1778-6"
       d="m 69.654833,43.45162 c 0.0148,0.05408 0.03481,0.106994 0.0444,0.162234 0.01286,0.07413 0.01591,0.149652 0.02279,0.224585 0.01856,0.202696 0.0396,0.42109 0.03357,0.624708 -0.0031,0.10839 -0.01949,0.216003 -0.02767,0.324128 -0.007,0.09222 -0.01182,0.184596 -0.01774,0.276892 -0.09206,0.0013 0.01696,0.247868 -0.07337,0.290298 -0.02553,0.01199 -0.06363,-0.0077 -0.07843,-0.03171 -0.02181,-0.03538 -0.01314,-0.08212 -0.01723,-0.123474 -0.01808,-0.183236 -0.01567,-0.241435 -0.02029,-0.431562 -0.0037,-0.195005 0.0092,-0.390139 0.0031,-0.585133 -0.0129,-0.220476 -0.0081,-0.112022 -0.01474,-0.32535 -3.84e-4,-0.0078 0.109099,-0.01318 0.109485,-0.0055 v 0 c 0.0093,0.107818 0.01519,0.215967 0.02676,0.32357 0.02125,0.19731 0.06131,0.393123 0.0547,0.592873 -0.0061,0.200731 0.0013,0.248991 -0.03713,0.439868 -0.0099,0.0489 -0.007,0.107079 -0.04035,0.144113 -0.145406,0.16113 -0.238996,-0.252551 -0.240544,-0.271954 -0.01528,-0.08486 -0.09924,-0.544223 -0.105107,-0.608982 -0.01823,-0.201404 -0.0012,-0.431515 0.0151,-0.632853 0.0061,-0.075 0.0099,-0.150449 0.02279,-0.224585 0.0096,-0.05525 0.0296,-0.108156 0.0444,-0.162235 0,-0.0209 0.295529,-0.0209 0.295529,0 z" /><path
       style="opacity:0.709769;fill:#0000ff;stroke:#000000;stroke-width:0.704258;stroke-linejoin:round;stroke-dasharray:none;paint-order:stroke fill markers;stop-color:#000000"
       id="path1780-2"
       d="m 69.667273,43.340185 c 0.04254,0.509826 0.07438,1.022438 0.0089,1.532216 -0.01839,0.143109 -0.05593,0.28312 -0.08099,0.425208 -0.01765,0.09994 -0.0314,0.200531 -0.04711,0.300798 -0.01783,0.03937 -0.01608,0.09647 -0.05351,0.118096 -0.02377,0.01376 -0.05908,-0.02231 -0.06638,-0.04879 -0.01208,-0.0438 0.0092,-0.09041 0.01556,-0.1354 0.03073,-0.218535 0.07515,-0.434016 0.120215,-0.649922 0.01228,-0.04712 0.02565,-0.09395 0.03681,-0.141334 0.0079,-0.03381 0.02568,-0.09585 0.0062,-0.103883 -0.008,-0.0033 -0.01536,0.0081 -0.02305,0.01225 -0.0019,8.45e-4 -0.01318,-0.02615 -0.01127,-0.02695 v 0 c 0.01976,-8.45e-4 0.04058,-0.0084 0.05929,-0.002 0.09945,0.03393 0.0753,0.213902 0.08439,0.28026 -0.01841,0.230494 -0.04131,0.457282 -0.132034,0.673346 -0.04477,0.106614 -0.08966,0.25418 -0.251151,0.17452 -0.05453,-0.02689 -0.07674,-0.09431 -0.115115,-0.141456 -0.04284,-0.20242 -0.124515,-0.565213 -0.138911,-0.753469 -0.04034,-0.527697 0.04952,-1.059245 0.2063,-1.56142 0.0033,-0.027 0.385263,0.02102 0.381868,0.04803 z" /><path
       style="opacity:0.709769;fill:#0000ff;stroke:#000000;stroke-width:0.704258;stroke-linejoin:round;stroke-dasharray:none;paint-order:stroke fill markers;stop-color:#000000"
       id="path1782-9"
       d="m 70.338429,45.103091 c 0.01788,0.146619 0.03118,0.195176 0.01127,0.356332 -0.03021,0.244606 -0.118375,0.522641 -0.284067,0.711058 -0.05762,0.06552 -0.135025,0.110585 -0.202537,0.165878 -0.248281,0.04082 -0.323786,0.09484 -0.567587,-0.05344 -0.07171,-0.04361 -0.120011,-0.118787 -0.167381,-0.188058 -0.09068,-0.132614 -0.127995,-0.249909 -0.138293,-0.407319 -0.0033,-0.05226 0.0074,-0.104492 0.01113,-0.156739 0.0175,-0.0342 0.02809,-0.07295 0.05252,-0.102624 0.118758,-0.144285 0.292528,0.03615 0.36085,0.133497 0.02326,0.03312 0.04015,0.0703 0.06022,0.105436 0.05069,0.01603 0.07939,0.332303 -0.01979,0.172298 -0.0063,-0.05333 -0.0071,-0.02632 0.0029,-0.08103 3.84e-4,-0.0019 0.02749,0.0031 0.02713,0.005 v 0 c -0.01249,0.04582 -0.0095,0.02313 -0.0099,0.06795 0.0044,0.01338 0.02383,0.05095 0.01854,0.03791 -0.02378,-0.05876 -0.06978,-0.10676 -0.09663,-0.163727 -0.02581,-0.03955 -0.178448,-0.276037 -0.224861,-0.277822 -0.04775,-0.0019 -0.02779,0.09442 -0.02778,0.09781 0.0077,0.04003 0.01059,0.08131 0.02314,0.12009 0.02627,0.08117 0.10496,0.240029 0.155587,0.305222 0.03288,0.04233 0.07799,0.07355 0.115932,0.111416 0.01284,0.01283 0.0183,0.0384 0.03632,0.04048 0.03065,0.0036 0.05922,-0.01733 0.08882,-0.026 0.03754,-0.03682 0.07951,-0.06963 0.112616,-0.110502 0.195921,-0.241879 0.285106,-0.560434 0.366937,-0.854907 -5.58e-4,-0.02085 0.294284,-0.02916 0.294873,-0.0084 z" /><path
       style="opacity:0.709769;fill:#0000ff;stroke:#000000;stroke-width:0.704258;stroke-linejoin:round;stroke-dasharray:none;paint-order:stroke fill markers;stop-color:#000000"
       id="path1784-1"
       d="m 69.359883,44.722495 c 0.130482,0.263851 0.259326,0.53415 0.349414,0.815134 0.0303,0.09453 0.04387,0.193787 0.07221,0.288932 0.08967,0.301074 0.05515,0.09216 0.07649,0.237109 -0.02056,-0.0095 -0.04865,-0.01005 -0.06172,-0.02863 -0.02083,-0.02963 -0.01839,-0.07023 -0.03155,-0.103956 -0.01911,-0.04901 -0.04044,-0.0973 -0.06503,-0.143802 -0.07514,-0.142052 -0.169857,-0.275516 -0.263364,-0.405801 0.04877,0.01133 -0.113025,-0.131698 -0.07467,-0.140637 0.01117,-0.0026 0.02279,0.0026 0.03419,0.004 9.58e-4,9.57e-4 -0.01311,0.01509 -0.01409,0.01409 v 0 c -0.0038,-0.0099 -0.01507,-0.01973 -0.01171,-0.02988 0.01428,-0.04294 0.159972,0.108249 0.159372,0.08983 0.165205,0.166883 0.329238,0.358446 0.366215,0.600723 0.0076,0.04997 0.01783,0.106355 -0.0049,0.151517 -0.02318,0.04618 -0.0802,0.06518 -0.120301,0.09777 -0.206132,-0.05262 -0.142521,-0.0084 -0.31208,-0.210183 -0.07175,-0.08539 -0.147441,-0.169107 -0.203889,-0.265301 -0.09889,-0.168518 -0.206185,-0.475853 -0.243134,-0.669116 -0.0158,-0.08267 -0.01139,-0.167947 -0.01711,-0.251921 -0.0036,-0.02585 0.36205,-0.07572 0.365576,-0.04986 z" /><path
       style="opacity:0.709769;fill:#0000ff;stroke:#000000;stroke-width:0.704258;stroke-linejoin:round;stroke-dasharray:none;paint-order:stroke fill markers;stop-color:#000000"
       id="path1786-2"
       d="m 69.770249,45.170745 c 0.03084,0.101856 0.04539,0.201678 0.03585,0.307881 -0.0061,0.06876 -1.91e-4,0.131029 -0.09873,0.135574 -0.04561,0.002 -0.088,-0.02436 -0.132005,-0.03654 -0.04947,-0.03946 -0.102799,-0.07447 -0.148384,-0.118349 -0.275433,-0.265074 -0.466669,-0.640204 -0.631617,-0.980675 -0.08388,-0.0407 -0.120784,-0.132177 -0.190424,-0.187857 -0.0084,-0.0067 0.0051,0.02764 0.01601,0.0283 0.07921,0.0049 0.16705,-0.04879 0.237723,-0.0127 0.05802,0.02962 0.05785,0.116777 0.08342,0.176677 0.04239,0.09933 0.08025,0.200539 0.12038,0.300809 0.235936,0.683041 0.02169,0.03311 0.221484,0.730833 0.03061,0.106876 0.0682,0.211642 0.100145,0.318125 0.02152,0.07174 0.09334,0.316153 0.107891,0.416642 0.0029,0.02006 -0.0025,0.04046 -0.0037,0.0607 -0.02007,-0.0061 -0.04457,-0.0044 -0.06025,-0.01829 -0.02114,-0.01881 -0.127018,-0.200896 -0.131834,-0.209285 -0.05705,-0.09936 -0.108878,-0.200591 -0.156848,-0.304559 -0.01311,0.02014 -0.01567,-0.07245 -0.03688,-0.05755 -9.57e-4,3.84e-4 -0.007,-0.01273 -0.006,-0.01316 v 0 c 0.04144,-0.0055 0.06545,0.01288 0.09738,0.04077 0.08307,0.08879 0.151146,0.182186 0.205047,0.292241 0.02151,0.04393 0.08514,0.182917 0.07521,0.244973 -0.0041,0.0254 -0.03114,0.04098 -0.04669,0.06146 -0.02575,-0.01237 -0.05593,-0.01804 -0.0772,-0.03707 -0.104565,-0.0936 -0.202777,-0.263369 -0.264843,-0.377271 -0.05461,-0.100227 -0.100592,-0.204932 -0.151763,-0.306964 -0.247381,-0.493268 -0.122701,-0.204776 -0.319097,-0.721253 -0.01197,-0.04694 -0.14627,-0.474784 -0.09756,-0.579832 0.08358,-0.180211 0.188801,-0.30051 0.320031,-0.172414 0.02832,0.02765 0.04922,0.06379 0.06204,0.101222 0.01829,0.05337 0.01983,0.111061 0.02975,0.166593 0.221047,0.369627 0.451523,0.735817 0.704352,1.084401 0.01309,0.01854 0.02596,0.03722 0.03926,0.05559 0.0023,0.0031 0.0082,0.01317 0.0076,0.0092 -0.01205,-0.07824 -0.02246,-0.06606 -0.06698,-0.144322 -0.04638,-0.08152 -0.05348,-0.102515 -0.09045,-0.185336 -0.0049,-0.01753 0.242858,-0.08615 0.247709,-0.06862 z" /><path
       style="opacity:0.709769;fill:#000000;stroke:#000000;stroke-width:0.704258;stroke-linejoin:round;stroke-dasharray:none;paint-order:stroke fill markers;stop-color:#000000"
       id="path1940"
       d="m 71.976575,54.199572 c 0.309034,0.399368 0.733054,0.700036 1.190121,0.910149 0.19661,0.09038 0.399004,0.171501 0.60809,0.227244 0.237863,0.06341 0.484805,0.08584 0.727207,0.128761 0.825466,-0.03547 1.056224,0.03239 1.787045,-0.251932 0.215708,-0.08392 0.414658,-0.206586 0.614359,-0.323599 0.305624,-0.179071 0.525381,-0.314557 0.726952,-0.600846 0.05025,-0.07136 0.07114,-0.159394 0.106708,-0.23909 -0.01339,-0.161816 -0.02744,-0.289132 -0.218622,-0.307603 -0.03886,-0.0037 -0.07775,0.0072 -0.116633,0.01078 -0.0044,0.0016 0.01798,0.06198 0.02225,0.06042 v 0 c 0.02092,-0.0037 0.04157,-0.01222 0.06278,-0.01101 0.0265,0.0016 0.114641,0.02008 0.117152,0.0669 0.0016,0.02874 -0.0252,0.05173 -0.0378,0.07761 -0.05352,0.03863 -0.102189,0.08511 -0.160577,0.11591 -0.106013,0.05594 -0.217908,0.10037 -0.329973,0.142893 -0.158055,0.05998 -0.315774,0.123384 -0.479783,0.164358 -0.208957,0.0522 -0.423134,0.08113 -0.635931,0.114377 -0.560402,0.08754 -0.631722,0.08704 -1.132795,0.131398 -0.203982,-0.01816 -0.410332,-0.01854 -0.611944,-0.05447 -0.190351,-0.03393 -0.374402,-0.09727 -0.559171,-0.154235 -0.451962,-0.139352 -0.88873,-0.320095 -1.311425,-0.531502 -0.02287,-0.02602 -0.390887,0.297485 -0.368011,0.323507 z" /><path
       style="fill:#ffff00;stroke:#000000;stroke-width:0.704258;stroke-linecap:butt;stroke-linejoin:miter;stroke-dasharray:none;stroke-opacity:1"
       d="m 63.682347,35.772276 c 0,0 2.319594,-6.715167 13.149669,-7.057258 10.830076,-0.342088 14.495775,7.769258 15.734592,9.621711 l 0.451274,1.313144 c 0,0 -6.502276,-7.926016 -14.606267,-8.124184 -9.16817,-0.224193 -15.52952,5.231665 -15.52952,5.231665 z"
       id="path2007"
       sodipodi:nodetypes="czccscc" /><path
       style="fill:#ffffff;stroke:#000000;stroke-width:0.704258;stroke-linecap:butt;stroke-linejoin:miter;stroke-dasharray:none;stroke-opacity:1"
       d="m 77.609834,31.595084 -0.973637,-1.256161 1.114941,-1.695907 0.894984,1.609508 z"
       id="path2009" /><path
       style="fill:#ffffff;stroke:#000000;stroke-width:0.704258;stroke-linecap:butt;stroke-linejoin:miter;stroke-dasharray:none;stroke-opacity:1"
       d="m 82.068573,32.253132 -0.973639,-1.25616 1.114941,-1.695907 0.894984,1.609507 z"
       id="path2009-7" /><path
       style="fill:#ffffff;stroke:#000000;stroke-width:0.704258;stroke-linecap:butt;stroke-linejoin:miter;stroke-dasharray:none;stroke-opacity:1"
       d="m 73.203075,31.658614 -0.973638,-1.256161 1.114942,-1.695906 0.894983,1.609506 z"
       id="path2009-0" /><path
       style="fill:#ffffff;stroke:#000000;stroke-width:0.704258;stroke-linecap:butt;stroke-linejoin:miter;stroke-dasharray:none;stroke-opacity:1"
       d="m 67.668034,33.781129 -0.973638,-1.256161 1.114941,-1.695907 0.894984,1.609508 z"
       id="path2009-9" /><path
       style="fill:#ffffff;stroke:#000000;stroke-width:0.704258;stroke-linecap:butt;stroke-linejoin:miter;stroke-dasharray:none;stroke-opacity:1"
       d="m 87.228841,34.467282 -0.973638,-1.256162 1.114942,-1.695906 0.894984,1.609507 z"
       id="path2009-9-3" /><path
       style="fill:#ffffff;stroke:#000000;stroke-width:0.704258;stroke-linecap:butt;stroke-linejoin:miter;stroke-dasharray:none;stroke-opacity:1"
       d="m 73.803153,38.055294 -0.973637,-1.25616 1.114941,-1.695908 0.894984,1.609508 z"
       id="path2009-9-6" /><path
       style="opacity:1;fill:#ffff00;stroke:#000000;stroke-width:0.704258;stroke-linejoin:round;stroke-dasharray:none;paint-order:stroke fill markers;stop-color:#000000"
       id="path2120"
       d="m 68.56114,33.9223 c 0.391454,-0.02341 0.778377,-0.08847 1.166896,-0.136727 0.352311,-0.04376 0.568876,-0.05624 0.925475,-0.08386 0.420065,-0.01625 0.838684,-0.04753 1.258548,-0.01587 0.305533,0.02304 0.413178,0.01991 0.694206,0.100267 0.06674,0.01908 0.129549,0.04992 0.194321,0.07488 0.03081,0.02799 0.06777,0.05042 0.09242,0.08396 0.08317,0.113198 0.10594,0.303776 0.13038,0.43569 0.03993,0.215546 0.02848,0.155581 0.07957,0.368578 0.06859,0.240818 0.161932,0.43862 0.423757,0.495648 0.02656,-0.0041 0.05283,0.01126 0.07922,0.0084 0.0021,-1.93e-4 -0.01694,-0.02252 -0.01694,-0.02169 1.88e-4,0.0076 0.005,0.01445 0.0074,0.02164 0.078,0.21999 0.101242,0.192089 0.507391,-0.05466 0.04017,-0.0244 0.0067,-0.09373 0.01016,-0.140602 0.0203,-0.0919 0.0709,-0.334563 0.102246,-0.414282 0.03304,-0.084 0.0783,-0.162831 0.122825,-0.241344 0.188707,-0.332688 0.367807,-0.513224 0.637128,-0.780146 0.366747,-0.327742 0.739246,-0.655233 1.136607,-0.946275 0.210985,-0.154533 0.307118,-0.208613 0.526208,-0.344616 0.253266,-0.141048 0.516722,-0.283589 0.802367,-0.347274 0.01439,-0.0031 0.371326,-0.06288 0.383984,-0.065 0.206486,-0.02749 0.41453,-0.04017 0.621658,-0.06115 0.129892,-0.01316 0.261568,-0.0367 0.392782,-0.03408 0.183641,0.0025 0.487195,0.123717 0.656093,0.05752 -0.04217,-0.187667 0.05345,-0.0295 0.233356,-0.03078 0.03995,-1.9e-4 0.06697,-0.04369 0.101795,-0.0633 0.04678,-0.02633 0.0952,-0.04962 0.142797,-0.07442 0.12892,-0.07831 0.268001,-0.141234 0.410262,-0.191363 0.02372,-0.0084 0.08643,-0.01641 0.114502,-0.03887 -0.0044,-0.0028 -0.0081,-0.0092 -0.01329,-0.0084 -0.02134,0.0038 -0.131047,0.05829 -0.152931,0.07375 -0.04117,0.07245 0.01368,0.142443 0.01587,0.216548 -0.0019,0.01464 -0.0037,0.02931 -0.0056,0.04398 -1.16e-4,0.0016 0.02266,0.0031 0.02277,0.0017 v 0 c 8.45e-4,-0.01544 0.0013,-0.03085 0.0021,-0.04628 -0.0033,-0.06463 -0.03825,-0.132866 -0.02228,-0.195081 0.05964,-0.005 0.154976,-0.01328 0.189909,-0.07204 0.0095,-0.01608 0.0083,-0.0365 0.01236,-0.05474 -0.0095,-0.01348 -0.01365,-0.03346 -0.02863,-0.04045 -0.173208,-0.08073 -0.527297,0.07618 -0.683014,0.142996 -0.0485,0.02998 -0.09779,0.0587 -0.145474,0.08994 -0.03731,0.02444 -0.113461,0.03265 -0.109398,0.07704 0.0059,0.06444 0.07312,0.112983 0.129656,0.144447 0.01857,0.01034 0.01996,-0.0384 0.02313,-0.05941 0.01493,-0.09886 -0.0048,-0.103039 -0.04806,-0.19413 -0.01415,-0.01918 -0.02486,-0.04147 -0.04248,-0.05753 -0.01927,-0.01759 -0.04387,-0.02829 -0.06629,-0.04166 -0.181464,-0.108188 -0.384911,-0.164433 -0.593945,-0.191364 -0.106555,-0.0027 -0.213074,-0.0086 -0.319664,-0.0084 -0.351875,0.0012 -0.702316,0.06014 -1.050605,0.101801 -0.478938,0.08197 -0.943826,0.224912 -1.370543,0.461994 -0.09599,0.05647 -0.193812,0.109949 -0.287981,0.169411 -0.542315,0.342449 -1.037224,0.760159 -1.501372,1.200681 -0.09406,0.10636 -0.194053,0.207752 -0.282186,0.319073 -0.344926,0.435656 -0.59283,0.945578 -0.582404,1.510322 0.0055,0.05908 -0.03703,0.151748 0.01655,0.177204 0.552418,0.262395 0.535355,0.104917 0.437422,-0.160201 -0.08183,-0.166373 -0.176398,-0.278509 -0.370953,-0.290727 -0.02649,0.01896 0.01168,0.05033 0.02487,0.07294 0.0029,0.0049 -0.0076,-0.0089 -0.0095,-0.01428 -0.02192,-0.06155 -0.03527,-0.138101 -0.0485,-0.199149 -0.08883,-0.468686 -0.116138,-0.890831 -0.470638,-1.254208 -0.08702,-0.05781 -0.166965,-0.128027 -0.261064,-0.173409 -0.454555,-0.21923 -0.971442,-0.220312 -1.462726,-0.226338 -0.166414,-0.002 -0.332981,3.84e-4 -0.499209,0.0086 -0.174392,0.0085 -0.348103,0.02774 -0.522152,0.04161 -0.697907,0.09356 -1.402702,0.20922 -2.053325,0.491078 -0.02703,0.01359 0.165023,0.395947 0.19206,0.382366 z" /><path
       style="fill:none;stroke:#000000;stroke-width:0.704258;stroke-linecap:round;stroke-linejoin:round;stroke-dasharray:none;stroke-opacity:1"
       d="m 73.667189,47.111756 c -4.305397,3.482012 -1.829025,1.938894 0.01991,4.400834"
       id="path18288"
       sodipodi:nodetypes="cc" /><path
       style="fill:#de87cd;stroke:#000000;stroke-width:0.86394;stroke-linecap:butt;stroke-linejoin:miter;stroke-dasharray:none;stroke-opacity:1"
       d="m 31.640004,125.41816 c 10.489373,-32.448551 9.353451,-10.33193 11.81231,-36.718823 0.623149,-8.449295 -0.277038,-11.219681 -0.277038,-11.219681 0,0 -8.793899,2.563169 -10.17909,4.986686 -1.38519,2.423534 -10.802239,6.371134 -12.118357,0.969268 -1.316121,-5.401879 4.223893,-18.49174 5.747227,-22.854531 1.523336,-4.362788 0.346111,-6.648166 0.346111,-6.648166 0,0 0.138145,-10.525951 11.49521,-10.941884 11.357066,-0.415934 19.943747,6.371128 23.544496,27.215814 3.600739,20.844689 20.359675,28.323973 37.11712,35.456417 8.465507,3.60314 14.541887,22.32658 14.541887,22.32658 l -79.21943,0.0422 z"
       id="path24846"
       sodipodi:nodetypes="cccssscsssccc" /><g
       id="g24978"
       transform="matrix(1.002941,0,0,1.2972282,-8.7008459,-45.304195)"><path
         style="fill:#ffffff;stroke:#000000;stroke-width:0.6936;stroke-linecap:butt;stroke-linejoin:miter;stroke-dasharray:none;stroke-opacity:1"
         d="m 45.709751,80.013478 c 0,0 1.119357,-1.835791 3.971579,-1.07154 2.85222,0.764251 3.242966,1.67159 3.242966,1.67159 0,0 -1.071539,2.971599 -3.657302,2.971599 -2.585762,0 -3.557243,-3.571649 -3.557243,-3.571649 z"
         id="path1611-2" /><path
         style="opacity:0.709769;fill:#0000ff;stroke:#000000;stroke-width:0.6936;stroke-linejoin:round;stroke-dasharray:none;paint-order:stroke fill markers;stop-color:#000000"
         id="path1770-0"
         d="m 48.79761,82.827756 c -0.0097,-0.09249 -0.0151,-0.185541 -0.02918,-0.277468 -0.02024,-0.132155 -0.05475,-0.261913 -0.07372,-0.394257 -0.04612,-0.321903 -0.078,-0.701773 -0.06057,-1.025614 0.02454,-0.456035 0.07386,-0.564228 0.184215,-0.988464 -0.08566,-0.06906 0.24645,-0.365341 0.348519,-0.261902 0.04094,0.04148 -0.0407,0.118245 -0.022,0.173445 0.04179,0.123442 0.144024,0.218875 0.1954,0.338646 0.175396,0.408896 0.184528,0.606578 0.262312,1.042481 9.36e-4,0.08757 0.04292,0.633874 -0.06244,0.769514 -0.120335,0.154929 -0.416181,0.100206 -0.556411,0.07294 -0.336672,-0.06547 -0.564295,-0.154394 -0.886142,-0.263566 -0.01944,-0.01254 -0.196739,0.262414 -0.177296,0.27495 v 0 c 0.145948,0.06773 0.285924,0.1502 0.437844,0.203201 0.354107,0.123534 0.787561,0.208071 1.162202,0.127075 0.315888,-0.06829 0.667784,-0.379679 0.786989,-0.671393 0.07937,-0.194231 0.05653,-0.415823 0.08481,-0.623733 -0.0982,-0.615206 -0.05868,-0.788306 -0.413242,-1.323912 -0.287422,-0.434176 -0.568995,-0.663336 -1.130266,-0.656464 -0.395351,0.0048 -0.572304,0.363361 -0.771234,0.616946 -0.06079,0.188742 -0.144221,0.371639 -0.182347,0.566224 -0.12017,0.613299 -0.04115,1.214963 0.168901,1.796732 0.04986,0.138106 0.108886,0.273568 0.179878,0.4021 0.05354,0.09694 0.127982,0.180762 0.191972,0.271145 0.01192,0.02559 0.373742,-0.143034 0.361818,-0.16862 z" /><path
         style="opacity:0.709769;fill:#0000ff;stroke:#000000;stroke-width:0.6936;stroke-linejoin:round;stroke-dasharray:none;paint-order:stroke fill markers;stop-color:#000000"
         id="path1776-2"
         d="m 48.937384,80.020236 c -0.11008,0.05294 0.08961,-0.132602 0.04921,-0.11854 -0.08067,0.02809 -0.151045,0.08068 -0.2306,0.11179 -0.02389,0.0093 -0.06471,-0.01446 -0.0765,0.0083 -0.04529,0.08749 -0.09346,0.599032 -0.0963,0.623112 -0.02676,0.318318 -0.07541,0.74023 -0.04738,1.059239 0.01457,0.166006 0.05678,0.328624 0.09501,0.490825 0.02483,0.105352 0.08021,0.453981 0.255183,0.512817 0.06202,0.02085 0.127143,-0.03101 0.190715,-0.04651 0.02157,-0.07571 0.05163,-0.149494 0.06472,-0.22712 0.04115,-0.24427 0.01902,-0.502488 -0.0217,-0.745039 -0.0142,-0.08461 -0.0347,-0.168065 -0.04931,-0.252601 -0.0017,-0.03168 -0.0031,-0.06336 -0.0049,-0.09503 2e-6,-0.0048 -0.06739,-0.0048 -0.06739,-2.5e-5 v 0 c -0.0017,0.03258 -0.0033,0.06517 -0.0049,0.09774 -0.01401,0.158295 -0.0052,0.07346 -0.02771,0.254386 -0.02734,0.299387 -0.01851,0.601844 0.02109,0.899748 0.03179,0.0173 0.0649,0.07143 0.09538,0.05191 0.03972,-0.02542 0.03068,-0.08983 0.03687,-0.136582 0.01439,-0.108595 0.01256,-0.218831 0.02463,-0.327707 0.01741,-0.157008 0.05232,-0.312049 0.06377,-0.469604 0.02922,-0.401908 0.0034,-0.666047 -0.01718,-1.065521 -0.02411,-0.223543 -0.03248,-0.489568 -0.121532,-0.704837 -0.03053,-0.0738 -0.05178,-0.180934 -0.128813,-0.202045 -0.09585,-0.02627 -0.200186,0.03635 -0.284643,0.08874 -0.03875,0.02404 -0.0019,0.168657 0.0025,0.192535 0,0.01978 0.279735,0.01978 0.279735,0 z" /><path
         style="opacity:0.709769;fill:#0000ff;stroke:#000000;stroke-width:0.6936;stroke-linejoin:round;stroke-dasharray:none;paint-order:stroke fill markers;stop-color:#000000"
         id="path1780-3"
         d="m 49.057325,80.655355 c -0.0419,0.502111 -0.07325,1.006965 -0.0088,1.509027 0.01811,0.140943 0.05508,0.278836 0.07977,0.418775 0.01738,0.09843 0.03093,0.197496 0.0464,0.296244 0.01756,0.03877 0.01584,0.09501 0.0527,0.116308 0.02341,0.01355 0.05818,-0.02197 0.06538,-0.04805 0.0119,-0.04313 -0.0091,-0.08904 -0.01533,-0.133351 -0.03026,-0.215229 -0.07403,-0.427448 -0.118396,-0.640087 -0.01209,-0.0464 -0.02526,-0.09253 -0.03625,-0.139194 -0.0078,-0.0333 -0.02529,-0.0944 -0.0061,-0.102312 0.0079,-0.0033 0.01513,0.008 0.0227,0.01206 0.0019,8.32e-4 0.01298,-0.02576 0.0111,-0.02655 v 0 c -0.01946,-8.32e-4 -0.03996,-0.0083 -0.05839,-0.002 -0.09794,0.03341 -0.07416,0.210666 -0.08311,0.27602 0.01813,0.227004 0.04069,0.45036 0.130036,0.663155 0.04409,0.105001 0.0883,0.250334 0.24735,0.171878 0.0537,-0.02648 0.07558,-0.09288 0.113374,-0.139316 0.04219,-0.199356 0.122631,-0.556658 0.136808,-0.742065 0.03974,-0.51971 -0.04877,-1.043215 -0.203179,-1.53779 -0.0033,-0.02659 -0.379432,0.0207 -0.376088,0.0473 z" /></g><path
       style="fill:#0000ff;stroke:#000000;stroke-width:0.86394;stroke-linecap:butt;stroke-linejoin:miter;stroke-dasharray:none;stroke-opacity:1"
       d="M 29.521057,59.441374 7.0847135,40.951137 33.952917,52.239877 c 0,0 1.870197,0.207216 0.27704,3.462604 -1.593158,3.255389 -3.947608,3.947603 -3.947608,3.947603 l 0.831114,0.277041 z"
       id="path24848" /><path
       style="opacity:1;fill:#00ffcc;stroke:#000000;stroke-width:1.01536;stroke-linecap:round;stroke-linejoin:round;stroke-dasharray:none;paint-order:stroke fill markers;stop-color:#000000"
       id="path25901"
       d="m 46.989161,49.566016 c 0.517255,0.227412 1.055835,0.411452 1.551764,0.682234 1.665983,0.909631 3.734212,2.38162 5.217382,3.471793 2.570658,1.889504 3.828769,2.823887 6.0734,5.094992 0.796606,0.805999 1.50562,1.694099 2.258431,2.541149 0.764044,1.261118 2.481081,3.314136 1.24632,4.913723 -0.229338,0.297098 -0.619769,0.42349 -0.929653,0.635234 -0.01577,0.01507 0.197224,0.238044 0.212991,0.222984 v 0 c 0.349491,-0.247649 0.780314,-0.408932 1.048475,-0.742946 1.417523,-1.765633 0.08354,-3.952401 -0.747524,-5.58285 -0.72633,-0.908624 -1.393853,-1.867551 -2.17899,-2.72587 -1.74279,-1.905241 -3.959028,-3.815021 -6.016526,-5.367589 -1.500778,-1.13247 -3.788632,-2.675888 -5.55757,-3.482225 -0.563822,-0.25701 -1.182928,-0.369435 -1.77439,-0.554152 -0.06318,-0.02857 -0.467291,0.86495 -0.40411,0.893523 z" /><path
       style="opacity:1;fill:#00ffcc;stroke:#000000;stroke-width:1.01536;stroke-linecap:round;stroke-linejoin:round;stroke-dasharray:none;paint-order:stroke fill markers;stop-color:#000000"
       id="path25903"
       d="m 39.874053,44.824983 c 2.923625,-0.693651 5.471551,0.291436 8.170411,1.388636 1.068536,0.434403 5.343255,2.386341 6.418501,2.87421 3.30469,1.552441 1.785496,0.784638 4.574191,2.270245 0.02937,0.02496 0.382456,-0.390441 0.353083,-0.415409 v 0 c -2.634646,-1.760892 -1.180874,-0.875756 -4.397582,-2.594904 -2.069635,-1.011802 -4.288344,-2.143784 -6.429795,-2.995685 -2.421955,-0.963494 -5.422573,-2.167583 -8.083056,-1.527361 -0.434046,0.104449 -0.815861,0.362748 -1.22379,0.544122 -0.03225,0.0437 0.585783,0.499848 0.618037,0.456146 z" /><path
       style="opacity:1;fill:#00ffcc;stroke:#000000;stroke-width:1.01536;stroke-linecap:round;stroke-linejoin:round;stroke-dasharray:none;paint-order:stroke fill markers;stop-color:#000000"
       id="path25905"
       d="m 46.530432,47.572255 c 3.279102,1.133862 5.627665,3.892978 7.520367,6.683205 0.696553,1.026862 1.297679,2.115317 1.946517,3.172974 0.570932,1.137323 1.167586,2.262095 1.712798,3.411971 0.811598,1.711699 1.591972,3.513334 2.192599,5.318507 0.14985,0.450368 0.288787,0.90737 0.370073,1.375001 0.02792,0.160602 0.07953,0.383371 -0.04644,0.486822 -0.09,0.07391 -0.168767,-0.160529 -0.25315,-0.240793 -0.553135,-0.697369 -0.955211,-1.493755 -1.423592,-2.24663 -0.129257,-0.20777 -0.335693,-0.572381 -0.40823,-0.491754 -0.06472,0.07194 -0.03712,0.189926 -0.05569,0.284892 0.0627,0.505734 0.131593,1.010088 0.185361,1.516864 5.37e-4,0.0086 0.122455,1.5e-4 0.121856,-0.0084 v 0 c -0.03056,-0.510214 -0.07655,-1.018242 -0.21705,-1.512699 -0.02853,-0.08061 -0.05702,-0.161235 -0.08561,-0.24183 -0.01182,-0.03332 0.02213,0.06722 0.03533,0.100024 0.06177,0.153729 0.118493,0.309784 0.189462,0.459484 0.399477,0.842652 0.869474,1.654944 1.54209,2.312279 0.2025,0.0434 0.424946,0.227986 0.607502,0.130193 0.559012,-0.29946 0.2085,-2.094163 0.203125,-2.123465 -0.58958,-3.212641 -2.053157,-6.206483 -3.463962,-9.114938 -0.644617,-1.114348 -1.214892,-2.27515 -1.933853,-3.343042 -1.849441,-2.747024 -4.327283,-5.306128 -7.509533,-6.435437 -0.301141,-0.106868 -0.623587,-0.139891 -0.935378,-0.209836 -0.05068,-0.02082 -0.345262,0.695843 -0.294587,0.716675 z" /><path
       style="opacity:1;fill:#00ffcc;stroke:#000000;stroke-width:1.01536;stroke-linecap:round;stroke-linejoin:round;stroke-dasharray:none;paint-order:stroke fill markers;stop-color:#000000"
       id="path25907"
       d="m 56.824587,61.86867 c 0.229803,0.553825 0.446251,1.11338 0.68941,1.661469 2.259034,5.092012 -0.188527,-0.709085 2.391564,5.233142 1.182772,2.72405 2.236199,5.482036 3.206454,8.28719 0.20183,0.679675 0.580456,1.726661 0.641809,2.517316 0.0049,0.06306 -0.01435,0.198646 -0.07305,0.17511 -0.184521,-0.07402 -0.377204,-1.155365 -0.402779,-1.324667 -0.04651,-0.394632 0.14082,-0.779344 0.1285,-1.170372 -8.06e-4,-0.02152 -0.02625,-0.07352 -0.03536,-0.05402 -0.04862,0.103893 -0.07709,0.217553 -0.09424,0.330969 -0.01915,0.126819 -0.0092,0.256339 -0.01391,0.384519 -0.147769,0.941569 -0.76763,0.432171 -1.285042,0.111548 -0.0093,-0.0071 -0.116685,0.12419 -0.107366,0.131784 v 0 c 0.621707,0.321526 1.320944,0.756011 1.504961,-0.240966 0.0019,-0.127083 0.01352,-0.25441 0.0053,-0.38125 -0.06838,-1.056069 -0.304775,0.871935 -0.308981,0.912916 0.0476,0.338716 0.170658,1.42999 0.750595,1.389579 0.855758,-0.0596 -0.09629,-3.016858 0.08045,-2.982903 -0.213673,-0.808551 -0.401553,-1.624359 -0.641021,-2.425648 -1.343754,-4.49635 -3.223255,-8.853905 -5.717214,-12.833509 -0.01964,-0.05092 -0.739739,0.226852 -0.720097,0.277769 z" /><path
       style="opacity:1;fill:#00ffcc;stroke:#000000;stroke-width:1.01536;stroke-linecap:round;stroke-linejoin:round;stroke-dasharray:none;paint-order:stroke fill markers;stop-color:#000000"
       id="path25909"
       d="m 59.053468,75.427643 c 1.168115,1.994158 2.448265,3.914093 4.043336,5.598331 0.590049,0.623028 1.179639,1.261744 1.877006,1.761741 1.747965,1.253265 2.253661,1.151393 4.223389,1.542616 0.589307,-0.07937 1.201834,-0.05605 1.767915,-0.238105 1.123481,-0.361258 1.758828,-1.414363 1.430216,-2.552731 -0.25884,-0.896659 -0.739343,-1.266963 -1.344883,-1.942344 -1.326602,-1.155355 -2.899291,-2.009003 -4.203253,-3.191688 -0.541584,-0.491208 -1.01231,-1.055282 -1.518466,-1.582922 -0.02362,-0.03094 -0.461068,0.303055 -0.437452,0.333987 v 0 c 0.53391,0.531564 1.033568,1.099915 1.601736,1.594698 1.327421,1.15597 2.909873,1.959013 4.293418,3.03789 0.557271,0.578363 1.08219,0.980813 1.347937,1.767752 0.356409,1.055412 -0.329432,1.837284 -1.325209,2.109783 -0.444042,0.121515 -0.916161,0.09168 -1.374242,0.137495 -0.626988,-0.13807 -1.284039,-0.17785 -1.880964,-0.414197 -1.685076,-0.667187 -2.519752,-1.518866 -3.738116,-2.841299 -1.554896,-1.6877 -2.774235,-3.609084 -4.084091,-5.48128 -0.02547,-0.04796 -0.703753,0.312311 -0.678277,0.360273 z" /><path
       style="opacity:1;fill:#00ffcc;stroke:#000000;stroke-width:1.01536;stroke-linecap:round;stroke-linejoin:round;stroke-dasharray:none;paint-order:stroke fill markers;stop-color:#000000"
       id="path25911"
       d="m 61.038031,69.868359 c 0.464873,2.448797 1.562412,4.599748 2.977125,6.635317 1.336764,1.923418 2.235205,2.968128 4.052268,4.422112 0.601542,0.481354 1.280665,0.856796 1.920995,1.285189 0.485481,0.185568 0.946878,0.454356 1.456437,0.556715 2.970822,0.596761 -0.705574,-4.15704 -0.979134,-4.543539 -1.497616,-2.045349 -3.316235,-3.800897 -5.137354,-5.548641 -0.02909,-0.03607 -0.539127,0.375289 -0.510041,0.411355 v 0 c 1.812962,1.725809 3.650576,3.437976 5.218006,5.398641 0.657187,0.802403 2.148874,2.390253 2.366226,3.51474 0.02967,0.153473 0.02864,0.378113 -0.106478,0.456711 -0.572967,0.333274 -1.604517,-0.898497 -1.859435,-0.704815 -0.578283,-0.445046 -1.191748,-0.847791 -1.734848,-1.335146 -3.211706,-2.882096 -5.434625,-6.613349 -6.894042,-10.643458 -0.0067,-0.05442 -0.776427,0.04039 -0.769725,0.09482 z" /><path
       style="opacity:1;fill:#00ffcc;stroke:#000000;stroke-width:1.01536;stroke-linecap:round;stroke-linejoin:round;stroke-dasharray:none;paint-order:stroke fill markers;stop-color:#000000"
       id="path25913"
       d="m 61.568505,71.752955 c 2.298531,4.053244 5.094721,7.88012 8.300685,11.268569 0.616643,0.651741 1.290705,1.246657 1.936059,1.86998 0.320043,0.238627 2.415024,2.219851 3.185211,1.483246 0.414735,-0.396654 -0.203352,-1.686556 -0.355253,-2.060825 -0.0048,-0.01358 -0.197678,0.05309 -0.192954,0.06684 v 0 c 0.12209,0.282553 0.76908,1.54128 0.492766,1.862754 -0.48143,0.560094 -2.498763,-1.91091 -2.562225,-1.782875 -0.590762,-0.643541 -1.20075,-1.269948 -1.772288,-1.930616 -3.057343,-3.534185 -5.694588,-7.389095 -8.587548,-11.05116 -0.01939,-0.03143 -0.463838,0.242732 -0.444453,0.274161 z" /><path
       style="opacity:1;fill:#00ffcc;stroke:#000000;stroke-width:1.01536;stroke-linecap:round;stroke-linejoin:round;stroke-dasharray:none;paint-order:stroke fill markers;stop-color:#000000"
       id="path25915"
       d="m 63.863727,87.633833 c 0.229777,0.308672 0.427205,0.644298 0.689337,0.926016 1.093288,1.174957 2.660421,2.421169 3.904703,3.339299 2.136119,1.576198 3.554972,2.509194 5.963689,3.646692 0.912407,0.430884 1.874095,0.748555 2.811142,1.122833 0.981969,0.126886 3.764053,1.241711 4.455876,-0.334643 0.425496,-0.969524 -0.662784,-1.8799 -1.226622,-2.433362 -0.289434,-0.171794 -0.578868,-0.343589 -0.868302,-0.515384 -0.01324,-0.01114 -0.171479,0.176225 -0.158227,0.187417 v 0 c 0.275277,0.163257 0.550556,0.326523 0.825833,0.489771 0.406968,0.378621 1.624487,1.383802 1.258069,2.119311 -0.549328,1.10265 -3.356593,-0.07154 -3.833051,-0.194441 -0.889252,-0.397925 -1.797538,-0.755779 -2.66775,-1.193765 -2.380931,-1.198352 -3.684106,-2.051434 -5.876738,-3.563897 -1.686471,-1.163303 -3.353599,-2.352856 -4.700002,-3.913579 -0.02246,-0.0409 -0.600424,0.276861 -0.577957,0.317732 z" /><path
       style="opacity:1;fill:#00ffcc;stroke:#000000;stroke-width:1.01536;stroke-linecap:round;stroke-linejoin:round;stroke-dasharray:none;paint-order:stroke fill markers;stop-color:#000000"
       id="path25917"
       d="m 64.003853,90.096455 c 5.119584,-0.132786 10.271733,-0.186007 15.361826,0.453156 0.152163,0.03264 0.611147,0.08059 0.456488,0.09778 -0.229574,0.02559 -0.459809,-0.04508 -0.689237,-0.07189 -0.487153,-0.05692 -0.975126,-0.1084 -1.460424,-0.179419 -1.370655,-0.200586 -3.210994,-0.513453 -4.536714,-0.847417 -0.777865,-0.195946 -1.537983,-0.456611 -2.306971,-0.684907 -0.03742,-0.02028 -0.3244,0.508839 -0.286986,0.529135 v 0 c 0.782534,0.238785 1.552636,0.522974 2.347607,0.716371 1.423982,0.346409 3.195424,0.586821 4.669516,0.660147 0.544412,0.02707 1.092614,0.03516 1.635164,-0.01732 0.246674,-0.02385 0.587219,0.0035 0.713244,-0.209846 0.08866,-0.150106 -0.248296,-0.244789 -0.372443,-0.367193 -0.498656,-0.147243 -0.98635,-0.338637 -1.495967,-0.44172 -1.850845,-0.374373 -3.789667,-0.497682 -5.668341,-0.550424 -2.859416,-0.08033 -5.720624,0.01819 -8.561043,0.363686 -0.03889,0.01366 0.155398,0.563636 0.194281,0.549902 z" /><path
       style="opacity:1;fill:#00ffcc;stroke:#000000;stroke-width:1.01536;stroke-linecap:round;stroke-linejoin:round;stroke-dasharray:none;paint-order:stroke fill markers;stop-color:#000000"
       id="path25919"
       d="m 59.320471,81.239475 c 3.187288,1.574934 6.572694,2.670059 9.983675,3.639844 0.547882,0.153857 0.560709,0.196765 0.119367,-0.06162 -0.0059,-0.0035 -0.04822,0.08103 -0.04228,0.08399 v 0 c 0.574142,0.01323 0.532099,0.100619 0.07838,-0.280195 -3.236639,-1.437119 -6.698288,-2.273293 -9.953678,-3.663177 -0.01988,-0.0131 -0.205353,0.268068 -0.185469,0.281186 z" /><path
       style="opacity:1;fill:#00ffcc;stroke:#000000;stroke-width:1.01536;stroke-linecap:round;stroke-linejoin:round;stroke-dasharray:none;paint-order:stroke fill markers;stop-color:#000000"
       id="path25921"
       d="m 52.185341,67.193248 c 4.21592,2.951911 8.417812,5.927923 12.502836,9.059668 0.119547,0.131568 0.239093,0.263136 0.358639,0.394704 0.0039,0.009 0.132175,-0.04748 0.128175,-0.05654 v 0 c -0.05984,-0.201009 -0.119661,-0.40202 -0.179492,-0.603028 -0.380483,-0.386978 -0.738914,-0.79695 -1.141447,-1.160937 -3.443205,-3.113504 -7.381082,-5.653179 -11.415926,-7.920474 -0.02025,-0.01787 -0.273052,0.268741 -0.252785,0.286613 z" /><path
       style="opacity:1;fill:#00ffcc;stroke:#000000;stroke-width:1.01536;stroke-linecap:round;stroke-linejoin:round;stroke-dasharray:none;paint-order:stroke fill markers;stop-color:#000000"
       id="path25923"
       d="m 48.053424,52.580878 c 0.442674,0.151434 0.899366,0.26683 1.328025,0.454302 3.071729,1.343405 5.887476,3.394724 8.372253,5.622203 0.456921,0.409607 0.876311,0.859241 1.314464,1.288861 0.175071,0.260512 0.482477,0.470587 0.525209,0.781538 0.01877,0.136705 -0.277332,0.102999 -0.40923,0.06245 -0.40472,-0.124405 -0.775297,-0.342495 -1.149053,-0.541451 -2.699257,-1.436852 -5.26904,-3.120926 -7.851961,-4.751163 -0.05008,-0.04273 -0.654506,0.665522 -0.604423,0.70826 v 0 c 2.677871,1.536321 5.364477,3.264359 8.276122,4.344849 0.824513,0.305972 1.899336,0.615345 1.991077,0.07068 0.05732,-0.340285 -0.248388,-0.643909 -0.372581,-0.965863 -0.39875,-0.48526 -0.756763,-1.007081 -1.196248,-1.455778 -2.771237,-2.829309 -6.244429,-4.915685 -9.966399,-6.218892 -0.04242,-0.01818 -0.299683,0.581812 -0.257255,0.600002 z" /><path
       style="opacity:1;fill:#00ffcc;stroke:#000000;stroke-width:1.01536;stroke-linecap:round;stroke-linejoin:round;stroke-dasharray:none;paint-order:stroke fill markers;stop-color:#000000"
       id="path25925"
       d="m 38.748277,46.714122 c 2.570559,0.321883 5.294264,-0.148879 7.759392,0.842038 0.284075,0.114192 0.520669,0.322264 0.781002,0.483396 0.03034,0.157565 0.206208,0.360983 0.09102,0.472698 -0.407614,0.395331 -2.465577,0.584304 -2.660357,0.601017 -1.285542,0.110291 -3.669117,0.138125 -4.921244,0.07817 -0.832723,-0.03987 -1.660873,-0.146841 -2.491311,-0.220259 -2.030498,-0.310801 -2.450457,-0.281534 -4.3208,-0.896883 -0.464146,-0.152706 -0.932899,-0.311383 -1.357431,-0.553298 -0.262057,-0.149334 -0.860254,-0.580717 -0.726808,-1.036614 0.03534,-0.120769 0.186173,-0.169343 0.279259,-0.254015 2.949255,-0.786665 6.706993,-0.597551 9.571144,0.420848 0.669973,0.238222 1.280314,0.619069 1.92047,0.928604 0.820954,0.73433 1.570417,1.102645 1.760536,2.262526 0.216711,1.322097 -0.789169,2.595796 -1.400273,3.646609 -0.211295,0.363326 -0.415559,0.730695 -0.623338,1.096043 -0.525705,0.836133 -0.561067,1.640962 -0.5032,2.584852 5.37e-4,0.01352 0.191439,0.0057 0.190893,-0.0077 v 0 c -0.03154,-0.919633 0.03006,-1.658034 0.60284,-2.437204 0.857828,-1.394395 2.318918,-3.259923 2.080998,-5.00043 -0.18417,-1.347293 -0.830601,-1.675679 -1.743011,-2.623058 -0.653082,-0.35949 -1.269656,-0.795251 -1.959248,-1.078471 -2.043734,-0.83937 -3.167053,-0.905635 -5.389543,-0.97514 -1.234998,-0.03863 -2.892496,-0.02868 -4.124415,0.383768 -0.330948,0.110799 -0.59897,0.358396 -0.898455,0.537592 -0.09496,0.215847 -0.278977,0.411805 -0.28486,0.647541 -0.01505,0.602918 0.629464,0.959499 1.033795,1.204186 1.735016,1.049967 3.680613,1.536751 5.678515,1.794662 0.956616,0.07117 1.91107,0.183057 2.869848,0.213484 1.515928,0.04811 3.431733,-0.03693 4.942594,-0.292094 0.53054,-0.08961 2.217025,-0.395324 2.670936,-1.047402 0.128093,-0.184015 -0.0436,-0.446288 -0.0654,-0.669434 -0.255509,-0.227632 -0.467019,-0.51738 -0.766531,-0.682892 -0.441562,-0.244014 -0.932426,-0.393597 -1.419481,-0.525123 -2.187136,-0.590619 -4.49009,-0.573065 -6.733679,-0.50616 -0.043,0.01103 0.113145,0.619203 0.156148,0.608161 z" /><path
       style="opacity:1;fill:#00ffcc;stroke:#000000;stroke-width:1.01536;stroke-linecap:round;stroke-linejoin:round;stroke-dasharray:none;paint-order:stroke fill markers;stop-color:#000000"
       id="path25927"
       d="m 35.953316,44.939903 c -0.05634,0.393792 -0.0972,0.790107 -0.169002,1.181374 -0.489857,2.669421 -0.408169,1.538977 -0.900024,4.508721 -0.356997,2.155493 -0.642717,4.33794 -0.809083,6.516136 0.03546,0.264986 -0.02765,0.563619 0.106359,0.794957 0.07098,0.122556 0.290771,0.173199 0.412685,0.101111 0.22542,-0.133293 0.333959,-0.405145 0.474835,-0.625906 0.571259,-0.895227 0.954259,-1.885961 1.342854,-2.868078 0.07109,-0.227741 0.151029,-0.452899 0.213242,-0.683219 0.286423,-1.060387 -0.261455,-0.152362 -0.538871,-0.370307 -0.109043,-0.08567 -0.130214,-0.244867 -0.195321,-0.367299 -0.05616,-0.202886 -0.112315,-0.405773 -0.168473,-0.608659 -0.003,-0.01102 -0.158573,0.03 -0.155671,0.04101 v 0 c 0.07395,0.20796 0.147891,0.415918 0.221836,0.623873 0.107105,0.13022 0.176336,0.304581 0.321318,0.390662 0.394613,0.234294 0.727071,-0.73954 0.308261,0.226176 -0.0943,0.217446 -0.192293,0.433274 -0.28844,0.649909 -0.422964,0.951577 -0.853143,1.900756 -1.306655,2.838287 -0.09042,0.186913 -0.200543,0.364398 -0.282197,0.5553 -0.01397,0.03268 -0.0095,0.141135 -8.05e-4,0.106643 0.0595,-0.238566 0.102822,-0.480877 0.154236,-0.721314 0.641396,-2.599448 0.166226,-0.59915 0.857906,-3.796837 0.518081,-2.395115 1.083115,-4.795418 1.290574,-7.244601 0.03582,-0.42291 0.0099,-0.848788 0.01488,-1.273184 -0.0019,-0.06395 -0.906111,-0.0387 -0.904324,0.02522 z" /><path
       style="opacity:1;fill:#00ffcc;stroke:#000000;stroke-width:1.01536;stroke-linecap:round;stroke-linejoin:round;stroke-dasharray:none;paint-order:stroke fill markers;stop-color:#000000"
       id="path25929"
       d="m 38.640552,52.392512 c 0.490764,2.356501 1.086754,4.731737 1.157435,7.150859 0.01577,0.539932 0.02074,1.087292 -0.07609,1.618703 -0.05677,0.311513 -0.251821,0.581063 -0.377731,0.871597 -0.199987,0.02862 -0.414308,0.165535 -0.599957,0.08587 -0.829185,-0.355848 -1.508646,-2.255892 -1.807773,-2.990668 -0.008,-0.02329 -0.337303,0.09006 -0.329286,0.113351 v 0 c 0.415277,0.975521 1.01172,2.709211 2.207153,3.046273 0.253504,0.07148 0.517349,-0.09922 0.776024,-0.148833 0.192973,-0.316021 0.475882,-0.592408 0.578923,-0.948062 0.157089,-0.542227 0.175466,-1.119135 0.183507,-1.683601 0.03498,-2.456047 -0.619901,-4.889256 -1.286798,-7.229272 -0.008,-0.03009 -0.433449,0.08371 -0.425403,0.113787 z" /><path
       style="opacity:1;fill:#00ffcc;stroke:#000000;stroke-width:1.01536;stroke-linecap:round;stroke-linejoin:round;stroke-dasharray:none;paint-order:stroke fill markers;stop-color:#000000"
       id="path25931"
       d="m 32.686094,39.482954 c -2.705274,1.645735 -4.974266,3.854663 -7.075016,6.200986 -0.498184,0.556421 -0.994975,1.11571 -1.451999,1.706404 -0.323876,0.418601 -0.591415,0.877901 -0.887123,1.316852 -0.118017,0.263997 -0.320452,0.50477 -0.354051,0.791986 -0.06872,0.587449 0.813974,0.305053 0.938714,0.269769 1.420328,-0.401767 2.715713,-1.296776 3.961131,-2.04873 0.454459,-0.295325 0.90892,-0.590651 1.36338,-0.885975 0.02119,-0.01891 -0.24624,-0.318587 -0.267431,-0.299677 v 0 c -0.458664,0.28762 -0.917328,0.575238 -1.375992,0.86286 -0.990535,0.620936 -1.747481,1.117039 -2.764937,1.675168 -0.329606,0.180809 -0.667965,0.345471 -1.007317,0.507249 -0.165146,0.07873 -0.323483,0.194946 -0.505448,0.213923 -0.305756,0.03189 0.650586,-2.328724 0.458045,-0.800453 1.009889,-1.049885 1.557889,-1.640217 2.676626,-2.694805 2.253738,-2.124506 4.667527,-4.072788 6.888422,-6.23242 0.04124,-0.04221 -0.555771,-0.625349 -0.597004,-0.583137 z" /><path
       style="opacity:1;fill:#00ffcc;stroke:#000000;stroke-width:1.01536;stroke-linecap:round;stroke-linejoin:round;stroke-dasharray:none;paint-order:stroke fill markers;stop-color:#000000"
       id="path25933"
       d="m 36.586094,41.909323 c -0.299538,-0.07683 -0.593034,-0.183092 -0.898611,-0.2305 -3.673512,-0.569915 -7.463912,0.258757 -10.992031,1.230245 1.147781,0.77001 -2.204274,0.0632 -1.931638,0.69024 0.09331,0.214616 0.470289,-0.0183 0.698602,-0.06968 0.350369,-0.07884 0.681158,-0.229966 1.029056,-0.319079 1.346459,-0.344899 1.582614,-0.326616 3.002971,-0.504711 0.52132,-0.02735 1.042641,-0.05468 1.563961,-0.08204 0.0267,-0.008 -0.08744,-0.385732 -0.114148,-0.377659 v 0 c -0.532377,0.02563 -1.064754,0.05125 -1.59713,0.07689 -0.538236,0.08209 -1.081585,0.13575 -1.614709,0.246273 -0.495981,0.102823 -1.882891,0.467877 -2.394815,0.792426 -0.188719,0.119645 -0.558766,0.307057 -0.446331,0.500163 0.356296,0.611921 2.108914,-1.321864 2.110336,-0.24301 2.325538,-0.243703 4.64147,-0.555555 6.965298,-0.813585 1.050564,-0.116649 2.280964,-0.250956 3.34813,-0.239546 0.308284,0.0033 0.61371,0.05964 0.920564,0.08945 0.05273,0.0248 0.403236,-0.721091 0.350495,-0.745875 z" /><path
       style="opacity:1;fill:#00ffcc;stroke:#000000;stroke-width:1.01536;stroke-linecap:round;stroke-linejoin:round;stroke-dasharray:none;paint-order:stroke fill markers;stop-color:#000000"
       id="path25935"
       d="m 39.661778,44.273246 c -2.340615,-1.553995 -4.789814,-2.934559 -7.223178,-4.335209 -0.85186,-0.490333 -1.685888,-1.012312 -2.550523,-1.479752 -0.773959,-0.418419 -1.57518,-0.784319 -2.362769,-1.176477 -0.208345,-0.100419 -3.040471,-1.651824 -3.367596,-0.478648 -0.224931,0.806678 1.109314,2.069176 1.552914,2.521732 1.06118,0.891654 2.303913,1.262885 3.609418,1.613314 0.02012,0.01024 0.164751,-0.274402 0.144626,-0.284631 v 0 c -1.260059,-0.333364 -2.464217,-0.695647 -3.509666,-1.521372 -0.664896,-0.626659 -0.99656,-0.837594 -1.442948,-1.616621 -0.604988,-1.05582 0.127143,-0.893921 0.89346,-0.523492 0.556174,0.268851 1.07517,0.608642 1.612756,0.912963 3.930379,2.503762 7.806896,5.135052 12.066034,7.060948 0.04898,0.04084 0.626457,-0.651923 0.577472,-0.692755 z" /><path
       style="opacity:1;fill:#00ffcc;stroke:#000000;stroke-width:1.01536;stroke-linecap:round;stroke-linejoin:round;stroke-dasharray:none;paint-order:stroke fill markers;stop-color:#000000"
       id="path25937"
       d="m 40.97034,44.859679 c -4.78547,-0.402129 -9.724898,-0.399125 -14.401405,0.835241 -0.847072,0.223586 -1.662135,0.554435 -2.493202,0.831651 -0.651402,0.325245 -3.12422,1.501611 -2.875614,2.717037 0.201366,0.984458 2.290541,1.026366 2.925052,1.095787 0.02333,0.0076 0.130957,-0.322424 0.10762,-0.330035 v 0 c -0.37245,-0.01588 -2.715446,0.04867 -2.829532,-0.706384 -0.151552,-1.003005 2.581785,-1.969097 3.015548,-2.136773 0.830994,-0.213134 1.649674,-0.481892 2.49298,-0.639402 4.567561,-0.853097 9.239692,-0.497168 13.848109,-0.84749 0.05795,0.01488 0.268402,-0.804751 0.210444,-0.819632 z" /><path
       style="opacity:1;fill:#00ffcc;stroke:#000000;stroke-width:1.01536;stroke-linecap:round;stroke-linejoin:round;stroke-dasharray:none;paint-order:stroke fill markers;stop-color:#000000"
       id="path25939"
       d="m 43.965523,42.523267 c 1.407897,-0.8934 2.915162,-1.853059 4.640253,-1.96672 1.601908,-0.105541 3.367877,0.501687 4.753124,1.201503 0.803946,0.40615 1.512414,0.978648 2.26862,1.467973 0.602859,0.585037 1.258782,1.119946 1.808577,1.75511 1.499996,1.732896 2.836771,4.110957 2.591242,6.489266 -0.03716,0.36 -0.171537,0.703207 -0.257309,1.054809 -0.449175,0.937768 -0.60464,1.191635 -1.482147,1.678196 -0.009,0.0071 0.09117,0.13469 0.100186,0.127606 v 0 c 0.923741,-0.482327 1.183937,-0.768951 1.666283,-1.741858 0.109059,-0.371025 0.266554,-0.731136 0.327175,-1.113077 0.397776,-2.506144 -0.847349,-5.033387 -2.378171,-6.931493 -0.553978,-0.68689 -1.218723,-1.276543 -1.828083,-1.914812 -1.878469,-1.273691 -2.810562,-2.150483 -5.090723,-2.692404 -1.739848,-0.413508 -3.479295,-0.365116 -5.152491,0.255412 -0.581787,0.215765 -1.101187,0.579803 -1.608195,0.937536 -0.379569,0.267816 -0.692125,0.6198 -1.038186,0.929703 -0.03275,0.04807 0.647081,0.511322 0.679841,0.46325 z" /><path
       style="opacity:1;fill:#00ffcc;stroke:#000000;stroke-width:1.01536;stroke-linecap:round;stroke-linejoin:round;stroke-dasharray:none;paint-order:stroke fill markers;stop-color:#000000"
       id="path25941"
       d="m 48.335341,49.544992 c 2.76055,1.150024 5.476043,2.464359 8.02594,4.032938 0.916104,0.563543 1.832162,1.135638 2.677629,1.800475 0.740633,0.582401 1.377097,1.286283 2.065644,1.929422 0.666228,0.931277 2.313078,2.868601 1.063887,4.126408 -0.797521,0.80302 -2.191728,0.392222 -3.112969,0.201798 0.122451,0.182974 -1.423203,-0.431369 -1.395862,-0.368605 0.03803,0.08731 0.11344,0.153001 0.170162,0.229501 0.0032,0.0038 0.0574,-0.04176 0.05417,-0.0456 v 0 c -0.639887,-0.393165 0.09445,0.115159 0.186998,0.155658 0.279086,0.122122 0.570554,0.213721 0.855829,0.320585 1.131418,0.216366 2.604874,0.607712 3.558745,-0.365485 1.418498,-1.447235 0.107295,-3.501032 -0.651117,-4.826658 -0.679389,-0.707504 -1.308202,-1.467313 -2.038167,-2.12251 -3.135148,-2.814024 -7.051603,-4.740898 -11.145302,-5.681972 -0.04343,-0.02233 -0.359007,0.591726 -0.315587,0.614042 z" /><path
       style="opacity:1;fill:#00ffcc;stroke:#000000;stroke-width:1.01536;stroke-linecap:round;stroke-linejoin:round;stroke-dasharray:none;paint-order:stroke fill markers;stop-color:#000000"
       id="path25943"
       d="m 54.228361,66.202105 c -0.225226,-0.06178 -0.451326,-0.120451 -0.675678,-0.185332 -0.203101,-0.05874 -0.403857,-0.125341 -0.606548,-0.18549 -0.08498,-0.02522 -0.271593,-0.157892 -0.256365,-0.07057 0.05356,0.307141 0.126716,0.685589 0.392141,0.849155 0.460845,0.283997 1.059049,0.227076 1.581888,0.367338 0.743478,0.199456 1.477015,0.434268 2.215523,0.651403 2.463275,0.860413 4.516545,2.265329 6.086048,4.364087 1.175677,1.572128 1.982908,3.458835 2.825596,5.220799 0.419299,-0.671531 0.269266,1.216003 0.684579,1.098799 0.386875,-0.109192 -0.133986,-0.629638 -0.149103,-0.649062 -0.0032,-0.005 -0.07507,0.04112 -0.0718,0.0462 v 0 c 0.0687,0.08123 0.153571,0.151157 0.206094,0.243668 0.05492,0.09676 -1.63e-4,0.319809 0.110955,0.314722 0.417406,-0.01909 -1.741325,-1.873902 -0.373293,-1.19666 -0.697222,-1.882625 -1.443096,-3.855636 -2.603817,-5.512198 -1.690973,-2.413324 -3.548992,-3.691719 -6.279829,-4.715634 -0.461177,-0.153113 -3.169504,-1.165609 -3.945416,-1.063331 -3.11338,0.410388 0.102159,1.279089 0.543534,1.163464 0.05242,0.0223 0.36792,-0.719022 0.3155,-0.741331 z" /><path
       style="opacity:1;fill:#00ffcc;stroke:#000000;stroke-width:1.01536;stroke-linecap:round;stroke-linejoin:round;stroke-dasharray:none;paint-order:stroke fill markers;stop-color:#000000"
       id="path25947"
       d="m 60.365523,74.05681 c 0.93713,3.734381 2.920119,7.096156 4.598191,10.525839 1.570248,3.209315 2.025372,4.298031 3.454842,7.495265 0.49175,1.205028 1.366848,3.143779 1.697724,4.53732 0.05464,0.230099 0.136062,0.501181 0.02339,0.709121 -0.05692,0.10504 -0.233098,-0.0859 -0.312904,-0.174824 -0.20791,-0.231656 -0.383039,-0.49407 -0.5325,-0.767102 -0.19671,-0.359369 -0.334392,-0.748015 -0.501588,-1.122023 -0.262062,-1.064443 -0.84369,-2.852166 0.217705,-3.72624 0.126319,-0.104022 0.304156,-0.12082 0.456236,-0.181229 0.0079,-0.0052 -0.06243,-0.116608 -0.07032,-0.111629 v 0 c -0.176657,0.0671 -0.379435,0.08703 -0.529967,0.201299 -1.203789,0.913492 -0.722069,2.760067 -0.391881,3.943013 0.194543,0.38205 0.346439,0.788991 0.583626,1.146132 0.06122,0.09219 0.826991,1.272974 1.335656,0.82491 0.220445,-0.19418 0.259152,-0.548675 0.258851,-0.842447 -0.0017,-1.619575 -0.706189,-3.331388 -1.16445,-4.808542 -0.487922,-1.231781 -0.94075,-2.478053 -1.463761,-3.69536 -0.88335,-2.055994 -2.5686,-5.524842 -3.593783,-7.556213 -0.882399,-1.748451 -1.849447,-3.453811 -2.71222,-5.21203 -0.219745,-0.447811 -0.404038,-0.912162 -0.606059,-1.368243 -0.01295,-0.05281 -0.759723,0.130179 -0.746786,0.182983 z" /><path
       style="opacity:1;fill:#00ffcc;stroke:#000000;stroke-width:1.01536;stroke-linecap:round;stroke-linejoin:round;stroke-dasharray:none;paint-order:stroke fill markers;stop-color:#000000"
       id="path25949"
       d="m 67.420489,90.138214 c 0.465658,0.358298 0.919935,0.731897 1.396968,1.074895 2.431221,1.748158 4.958724,3.368986 7.438861,5.045742 1.556608,1.052371 3.102271,2.12085 4.654903,3.179086 1.14524,0.620673 2.448587,1.888983 3.837601,2.032503 0.279471,0.0288 0.676166,-0.0468 0.72492,-0.3984 0.01676,-0.12092 -0.06965,-0.23399 -0.104477,-0.351 -0.578047,-0.58674 -1.39134,-0.57467 -2.158766,-0.666 -0.01728,-0.006 -0.09905,0.23868 -0.08176,0.24446 v 0 c 0.731992,0.0376 1.545641,-0.0403 2.151487,0.44637 0.03551,0.0927 0.116823,0.17944 0.106533,0.27822 -0.02603,0.24975 -0.332187,0.29008 -0.50794,0.2369 -1.2937,-0.39138 -2.336227,-1.690962 -3.449997,-2.350909 -4.343043,-3.302535 -8.829259,-6.352909 -13.371715,-9.37224 -0.04246,-0.045 -0.679072,0.555359 -0.63662,0.600373 z" /><path
       style="opacity:1;fill:#00ffcc;stroke:#000000;stroke-width:1.01536;stroke-linecap:round;stroke-linejoin:round;stroke-dasharray:none;paint-order:stroke fill markers;stop-color:#000000"
       id="path25959"
       d="m 103.15434,109.79071 c 0.99685,-2.22553 2.12056,-4.41738 3.45392,-6.46265 1.2172,-1.86708 2.27267,-3.411866 4.13187,-4.694832 0.69412,-0.478987 1.52384,-0.723035 2.28576,-1.084562 0.67708,-0.0356 1.36114,-0.210255 2.03126,-0.107025 0.52445,0.08085 1.02101,0.339899 1.45573,0.644174 1.19303,0.835041 1.77677,2.253535 1.56505,3.680805 -0.056,0.37708 -0.24122,0.72324 -0.36182,1.08486 -0.53791,1.02104 -1.37594,1.62127 -2.31991,2.21705 -0.0138,0.0121 0.15711,0.20729 0.1709,0.1952 v 0 c 1.04173,-0.6403 1.84978,-1.21037 2.45212,-2.32545 0.13846,-0.38983 0.34356,-0.76209 0.41536,-1.16949 0.26575,-1.50754 -0.29997,-3.252151 -1.59735,-4.161299 -1.64187,-1.150553 -2.43347,-0.84719 -4.35642,-0.860793 -0.87972,0.354834 -1.81794,0.589746 -2.63917,1.064503 -3.77795,2.184088 -6.08476,6.094919 -7.40061,10.143339 -0.16792,0.51664 -0.22929,1.06202 -0.34394,1.59302 -0.0172,0.0748 1.04006,0.3179 1.05725,0.24315 z" /><path
       style="opacity:1;fill:#00ffcc;stroke:#000000;stroke-width:1.01536;stroke-linecap:round;stroke-linejoin:round;stroke-dasharray:none;paint-order:stroke fill markers;stop-color:#000000"
       id="path25961"
       d="m 103.43977,112.79513 c 0.67632,-1.60366 1.14108,-3.28846 1.80307,-4.89706 0.77567,-1.88485 2.40717,-5.29907 3.40201,-7.04034 1.68142,-2.942994 2.23359,-3.495481 4.21704,-6.084571 0.63865,-0.654124 1.16382,-1.442654 1.9159,-1.962347 2.1159,-1.462131 3.49536,-0.108269 4.10527,1.97025 0.25899,0.882647 0.353,1.813206 0.38579,2.732477 0.0379,1.063666 -0.11639,2.125506 -0.17459,3.188261 -0.41829,2.55126 -0.86763,5.21584 -2.24625,7.46281 -0.48886,0.79677 -0.94915,1.31704 -1.83459,1.58446 -0.27982,0.0845 -0.58232,0.0516 -0.87346,0.0774 -0.23287,-0.0469 -0.46574,-0.0939 -0.69862,-0.14083 -0.0127,-0.006 -0.0932,0.1737 -0.0805,0.17938 v 0 c 0.28339,0.0593 0.56678,0.11861 0.85017,0.17791 0.32143,-0.0224 0.65265,0.0147 0.9643,-0.0671 0.97788,-0.25673 1.56723,-0.76222 2.17173,-1.59474 1.61983,-2.23078 2.18456,-4.98684 2.60763,-7.64645 0.0405,-1.110657 0.19579,-2.223072 0.12151,-3.331986 -0.0993,-1.483194 -0.55474,-3.97351 -1.79103,-5.099267 -1.28255,-1.167882 -3.00096,-0.998123 -4.42666,-0.312746 -0.93156,0.447839 -1.68174,1.202147 -2.52262,1.803224 -0.78887,0.93035 -1.64574,1.807062 -2.36661,2.79106 -3.44875,4.707705 -5.69314,10.283785 -6.63474,16.025415 -0.013,0.0782 1.09216,0.26298 1.10523,0.18482 z" /><path
       style="opacity:1;fill:#00ffcc;stroke:#000000;stroke-width:1.01536;stroke-linecap:round;stroke-linejoin:round;stroke-dasharray:none;paint-order:stroke fill markers;stop-color:#000000"
       id="path25963"
       d="m 102.96114,115.6083 c 1.87963,-2.35289 0.25749,-0.2601 2.49545,-3.40993 0.69443,-0.97739 1.40104,-1.94613 2.11149,-2.91196 1.55432,-2.11299 3.29448,-4.56953 5.18104,-6.40792 0.90467,-0.88157 1.959,-1.59521 2.93849,-2.39281 1.55896,-0.857349 4.17635,-2.490386 5.78222,-0.604413 0.68809,0.808133 0.73217,1.871433 0.43124,2.833363 -0.16266,0.51993 -0.51328,0.96108 -0.76992,1.44163 -1.27544,1.63137 -3.03692,2.73195 -4.68982,3.93221 -0.0175,0.017 0.22283,0.26436 0.24031,0.24737 v 0 c 1.72896,-1.20604 3.57782,-2.28322 4.86418,-4.00477 0.26189,-0.52787 0.62544,-1.01655 0.78569,-1.58361 0.29239,-1.03465 0.25327,-2.38406 -0.53177,-3.242011 -0.45354,-0.495663 -1.06874,-0.881333 -1.71803,-1.053972 -2.06861,-0.54997 -3.4523,0.401736 -5.33829,1.124391 -2.61889,1.924582 -4.29468,2.950392 -6.48972,5.460072 -0.90003,1.02905 -1.61662,2.20653 -2.36847,3.34834 -1.42528,2.16455 -2.70363,4.4485 -3.78487,6.80407 -0.0297,0.0608 0.83107,0.48082 0.86078,0.41995 z" /><path
       style="opacity:1;fill:#1c241c;stroke:#000000;stroke-width:1.01536;stroke-linecap:round;stroke-linejoin:round;stroke-dasharray:none;paint-order:stroke fill markers;stop-color:#000000"
       id="path26050"
       d="m 27.059597,76.83707 c 0.170881,1.063466 0.01249,2.519571 -0.638376,3.410291 -0.0379,-1.73e-4 -0.08821,0.02752 -0.113711,-5.39e-4 -0.235757,-0.259172 0.130494,-1.452612 0.2085,-1.753353 0.06212,-0.218893 0.120601,-0.439197 0.205481,-0.650566 5.65e-4,-0.001 -0.01803,-0.0091 -0.01862,-0.0081 v 0 c -0.130943,0.1943 -0.196327,0.418757 -0.267479,0.640564 -0.09478,0.338319 -0.486703,1.562577 -0.112831,1.827567 0.04759,0.03371 0.116617,-0.003 0.174927,-0.0041 0.86499,-0.895289 0.86938,-2.307084 0.887941,-3.47401 -8.7e-4,-0.02305 -0.326729,-0.01051 -0.325844,0.01251 z" /><path
       style="opacity:1;fill:#1c241c;stroke:#000000;stroke-width:1.01536;stroke-linecap:round;stroke-linejoin:round;stroke-dasharray:none;paint-order:stroke fill markers;stop-color:#000000"
       id="path26054"
       d="m 27.579187,84.953672 c 1.580314,-0.272606 3.011907,-1.018245 4.203373,-2.086697 0.330344,-0.296234 0.623138,-0.631842 0.934708,-0.947774 0.606327,-0.722514 1.279709,-1.457872 1.62759,-2.354389 0.05386,-0.138822 0.157281,-0.463434 0.0048,-0.618186 -0.04588,-0.0465 -0.125736,-0.03564 -0.188606,-0.0534 -0.347441,0.104795 -0.826868,0.419701 -0.822025,0.835219 -3.2e-5,0.001 0.02027,0.002 0.0203,5.38e-4 v 0 c 0.02608,-0.376975 0.476908,-0.657165 0.781476,-0.792381 0.05147,0.0081 0.118536,-0.01391 0.1544,0.02387 0.128132,0.134901 -0.05266,0.472581 -0.08873,0.540652 -0.443465,0.836681 -1.151685,1.496974 -1.771919,2.195687 -0.683165,0.651521 -1.120213,1.114111 -1.881459,1.666308 -0.918576,0.666311 -1.984078,1.087465 -3.073898,1.377503 -0.01507,0.007 0.085,0.220238 0.100064,0.213162 z" /></g></svg>
