<svg xmlns="http://www.w3.org/2000/svg" xmlns:xlink="http://www.w3.org/1999/xlink" width="1200" height="1600" viewBox="0 0 1200 1600" id="character">
  <defs>
    <path id="path-1" d="M59.497,36.41 C39.097,36.01 32.33,22.91 31.497,16.41 L20.998,16.41 C19.998,17.91 16.748,21.41 14.498,31.91 C11.498,45.91 6.498,48.41 3.498,61.41 C1.421,70.41 0.998,83.91 5.998,91.41 C13.763,103.06 23.498,101.91 39.998,101.91 C49.498,101.91 65.498,99.41 79.998,103.41 C100.242,109 155.997,111.91 169.999,107.41 C193.857,99.74 186.498,77.41 176.499,68.91 C158.951,53.99 125.053,55.02 116.498,43.41 C109.499,33.91 105.515,10.99 100.498,5.41 C91.498,-4.59 85.384,4.22 86.998,13.91 C88.997,25.91 84.997,36.91 59.497,36.41 Z"></path>
    <path id="path-3" d="M59.497,36.41 C39.097,36.01 32.33,22.91 31.497,16.41 L20.998,16.41 C19.998,17.91 16.748,21.41 14.498,31.91 C11.498,45.91 6.498,48.41 3.498,61.41 C1.421,70.41 0.998,83.91 5.998,91.41 C13.763,103.06 23.498,101.91 39.998,101.91 C49.498,101.91 65.498,99.41 79.998,103.41 C100.242,109 155.997,111.91 169.999,107.41 C193.857,99.74 186.498,77.41 176.499,68.91 C158.951,53.99 125.053,55.02 116.498,43.41 C109.499,33.91 105.515,10.99 100.498,5.41 C91.498,-4.59 85.384,4.22 86.998,13.91 C88.997,25.91 84.997,36.91 59.497,36.41 Z"></path>
  </defs>
  <g id="gee_me_014" fill="none" fill-rule="evenodd" stroke="none" stroke-width="1">
    <g transform="translate(333 127)">
      <g id="body" transform="translate(0 371.367)">
        <path id="Path" fill="#3A4136" fill-rule="nonzero" d="M383.999998,708.632712 C323.199998,699.832712 214.666998,704.962712 167.999998,708.632712 L108.999998,612.632712 L137.999998,425.632712 L387.999998,472.632712 C413.332998,549.299712 444.799998,717.432712 383.999998,708.632712 Z"></path>
        <path id="Path" fill="#F6DDD6" fill-rule="nonzero" d="M311.317525 494.309686C316.232138 518.076673 319.834857 583.225057 321.907773 675.000146 323.397868 740.971732 323.999998 814.0108 323.999998 880.882712 323.999998 897.451254 337.431456 910.882712 353.999998 910.882712 370.568541 910.882712 383.999998 897.451254 383.999998 880.882712 383.999998 813.597557 383.394437 740.142311 381.892474 673.645277 379.717466 577.350267 376.051982 511.066878 370.074472 482.159737 366.719356 465.934455 350.846307 455.501123 334.621024 458.856238 318.395742 462.211354 307.96241 478.084403 311.317525 494.309686ZM193.621505 466.557837C187.086988 498.159189 181.239577 574.068691 178.901748 655.031184 176.284971 745.654027 178.39613 825.707872 185.908304 872.625702 188.527785 888.985865 203.913826 900.124888 220.273989 897.505406 236.634151 894.885925 247.773174 879.499884 245.153693 863.139721 238.39349 820.918375 236.361544 743.868266 238.876749 656.76299 241.117612 579.158608 246.763888 505.86018 252.378492 478.707587 255.733553 462.482293 245.300168 446.609279 229.074873 443.254218 212.849579 439.899157 196.976566 450.332543 193.621505 466.557837Z"></path>
        <ellipse id="Oval" cx="267" cy="456.878" fill="#2A2A2A" fill-rule="nonzero" rx="124" ry="68"></ellipse>
        <path id="Path" fill="#2B2B2B" fill-rule="nonzero" d="M133.999998,422.049712 L261.999998,431.632712 L246.999998,857.632712 C246.999998,857.632712 230.499998,864.132712 212.999998,864.632712 C195.499998,865.132712 180.999998,857.632712 180.999998,857.632712 L133.999998,422.049712 Z"></path>
        <path id="Path" fill="#3F3F40" fill-rule="nonzero" d="M180.999998,858.632712 L179.499998,843.132712 C200.699998,852.332712 233.999998,846.962712 247.499998,843.132712 L247.499998,858.632712 C241.666998,860.632712 225.699998,864.632712 212.499998,864.632712 C199.299998,864.632712 185.999998,860.632712 180.999998,858.632712 Z"></path>
        <ellipse id="Oval" cx="257.636" cy="455.558" fill="#2B2B2B" fill-rule="nonzero" rx="118.297" ry="60.925"></ellipse>
        <path id="Path" fill="#2B2B2B" fill-rule="nonzero" d="M284.282998,434.234712 L410.194998,434.234712 L384.999998,860.632712 C384.999998,860.632712 372.999998,866.632712 353.999998,866.632712 C334.999998,866.632712 322.999998,860.632712 322.999998,860.632712 L284.282998,434.234712 Z"></path>
        <path id="Path" fill="#3F3F40" fill-rule="nonzero" d="M323.499998,861.132712 L321.999998,845.632712 C343.199998,854.832712 372.499998,849.462712 385.999998,845.632712 L385.999998,861.132712 C380.166998,863.132712 368.199998,867.132712 354.999998,867.132712 C341.799998,867.132712 328.499998,863.132712 323.499998,861.132712 Z"></path>
        <path id="Path" stroke="#F6DDD6" stroke-linecap="round" stroke-linejoin="bevel" stroke-width="74" d="M165.407998,132.288712 C165.407998,200.103712 112.407998,289.356712 87.4076985,388.288712"></path>
        <rect id="Rectangle" width="270" height="258" x="131.407" y="30.289" fill="#E1E8EE" fill-rule="nonzero" rx="112"></rect>
        <path id="Path" fill="#414A3B" fill-rule="nonzero" d="M418.814998,48.9777116 C438.014998,59.3777116 453.999998,104.632712 445.999998,124.632712 L126.407848,90.3229564 C100.740848,63.9899564 156.177998,23.6903116 242.110998,1.7923116 C269.62542,-5.2190903 328.073998,10.0883116 365.999998,17.6327116 C380.234721,20.4643427 394.814998,35.9777116 418.814998,48.9777116 Z"></path>
        <polygon id="Path" fill="#A97219" fill-rule="nonzero" points="111.408 284.163 25 211.633 129.408 74.163 162.408 56.163 213.408 40.163 200.408 175.163"></polygon>
        <polygon id="Path" fill="#A97219" fill-rule="nonzero" points="393.408 262.163 509.408 206.163 407.408 70.163 343.408 40.163 308.408 51.918 343.408 183.289"></polygon>
        <path id="Path" fill="#B97D1B" fill-rule="nonzero" d="M142.650998,182.014712 L162.308998,114.088712 L195.259998,45.1627116 L244.580998,55.1517116 L336.646998,45.1627116 C397.820998,138.062712 385.063998,169.028712 407.143998,261.928712 C429.222998,354.827712 409.105998,431.241712 407.143998,438.234712 C405.180998,445.226712 394.386998,442.729712 394.386998,442.729712 L336.646998,407.770712 C336.646998,407.770712 306.559998,414.263712 261.910998,412.764712 C217.261998,411.266712 190.275998,403.275712 190.275998,403.275712 C190.275998,403.275712 155.929998,419.254712 142.650998,434.737712 C129.370998,450.221712 126.490998,431.741712 126.490998,431.741712 C117.939998,395.964712 116.126998,361.925712 118.175998,325.858712 C121.143998,273.601712 132.218998,223.386712 142.650998,182.014712 Z"></path>
        <ellipse id="Oval" cx="279" cy="84.633" fill="#A66C0F" fill-rule="nonzero" rx="87" ry="67"></ellipse>
        <path id="Path" fill="#4F5D46" fill-rule="nonzero" d="M364.999998,233.632712 C371.707998,208.032712 387.999998,122.632712 404.999998,65.6327116 C404.999998,65.6327116 437.999998,81.6327116 451.999998,98.6327116 C465.999998,115.632712 508.999998,196.877712 508.999998,196.877712 C496.421998,222.877712 493.219998,224.309712 467.071998,278.877712 C433.529998,348.877712 467.071998,546.632712 467.071998,696.632712 C467.071998,696.632712 435.999998,708.632712 404.999998,718.632712 C373.999998,728.632712 334.999998,718.632712 334.999998,718.632712 L334.999998,426.877712 C341.999998,336.632712 358.291998,259.232712 364.999998,233.632712 Z"></path>
        <path id="Path" fill="#4F5D46" fill-rule="nonzero" d="M490.999998,466.632712 C471.666998,455.299712 447.199998,437.832712 443.999998,434.632712 L428.999998,534.632712 L458.999998,595.632712 C459.999998,579.632712 467.999998,537.432712 479.999998,520.632712 C491.999998,503.832712 490.999998,484.632712 490.999998,466.632712 Z"></path>
        <path id="Path" fill="#424B3C" fill-rule="nonzero" d="M528.499998,283.632712 C528.499998,283.632712 521.999998,217.612712 514.999998,203.122712 C507.999998,188.632712 498.999998,179.632712 498.999998,179.632712 L482.999998,162.632712 L450.999998,290.632712 L450.999998,404.632712 L439.999998,464.632712 L491.999998,481.122712 L521.999998,440.632712 L534.999998,375.122712 L521.999998,347.132712 L531.999998,317.122712 L523.499998,290.632712 L528.499998,283.632712 Z"></path>
        <polygon id="Path" fill="#393F35" fill-rule="nonzero" points="492 278.633 450 297.64 492 297.64"></polygon>
        <polygon id="Path" fill="#393F35" fill-rule="nonzero" points="483.107 312.371 450.188 303.633 479.317 330.996"></polygon>
        <polygon id="Path" fill="#5D6856" fill-rule="nonzero" points="438.997 440.12 499.514 462.328 492.067 484.326 431.374 463.191"></polygon>
        <g id="Group-2" transform="translate(297 853.633)">
          <g id="Clipped">
            <path id="Path" fill="#C9D1DC" fill-rule="nonzero" d="M184.997,104.18 C186.784,100.16 185.498,91.18 184.497,89.68 C183.497,88.18 61.993,78.68 61.993,78.68 C41.827,77.18 4.256,77.32 1.493,88.18 C-5.507,115.68 13.498,115.68 29.498,115.68 C51.498,115.68 54.109,109.85 68.493,111.68 C75.993,112.63 86.994,117.68 137.494,117.68 C177.996,117.68 180.997,113.18 184.997,104.18 Z"></path>
            <mask id="mask-2" fill="#fff">
              <use xlink:href="#path-1"></use>
            </mask>
            <use xlink:href="#path-1" id="Path" fill="#3B434E" fill-rule="nonzero"></use>
            <path id="Path" fill="#32373F" fill-rule="nonzero" d="M142.889,70 C136.089,68.4 104.722,52 89.889,44 C64.389,51.5 45.389,78 30.889,104.5 C31.389,110.5 89.027,116.36 95.389,108.5 C103.889,98 119.389,76.5 142.889,70 Z" mask="url(#mask-2)"></path>
            <path id="Path" fill="#32373F" fill-rule="nonzero" d="M165.894,84.58 C173.708,84.58 175.662,78.86 175.662,76 C176.228,84.91 176.087,104.05 170.99,109.29 C164.62,115.85 112.289,112.32 105.918,109.29 C99.548,106.26 124.605,85.17 130.126,89.2 C135.647,93.24 139.987,97.19 146.783,91.13 C153.578,85.08 156.126,84.58 165.894,84.58 Z" mask="url(#mask-2)"></path>
            <path id="Path" fill="#C8D1DC" fill-rule="nonzero" d="M170.389 81.5C170.789 75.5 179.222 71.85 180.389 72.01L196.889 73.01 194.889 103.01 173.889 115.01C169.889 114.85 144.389 110.5 160.389 110.5 167.889 110.5 169.389 107.51 173.889 103.01 178.389 98.51 169.889 89 170.389 81.5ZM92.999 15.91C91.799 8.71 89.499 4.24 88.499 2.91L90.498-2.09 101.999-2.09C107.333 2.58 116.299 14.01 109.499 22.41 100.999 32.91 94.499 24.91 92.999 15.91Z" mask="url(#mask-2)"></path>
          </g>
          <path id="Path" fill="#272F39" fill-rule="nonzero" d="M107.397402,59.7756302 C107.234004,61.9542715 109.379657,63.5713309 111.42895,62.8139835 L131.205847,55.5051302 L134.460439,70.1507914 C134.903551,72.1447976 137.166497,73.1225546 138.922226,72.0786077 L157.422226,61.0786077 C158.846352,60.2318302 159.314385,58.3908995 158.467608,56.9667738 C157.62083,55.5426481 155.7799,55.0746149 154.355774,55.9213923 L139.418418,64.8030635 L136.317561,50.8492086 C135.923243,49.0747767 134.054058,48.0559046 132.34905,48.6860165 L113.7299,55.5670065 L114.880598,40.2243698 C115.011125,38.4840042 113.634254,37 111.889,37 L90.889,37 C89.2321458,37 87.889,38.3431458 87.889,40 C87.889,41.6568542 89.2321458,43 90.889,43 L108.655574,43 L107.397402,59.7756302 Z"></path>
        </g>
        <g id="Group-2" transform="matrix(-1 0 0 1 273 853.633)">
          <g id="Clipped">
            <path id="Path" fill="#C9D1DC" fill-rule="nonzero" d="M184.997,104.18 C186.784,100.16 185.498,91.18 184.497,89.68 C183.497,88.18 61.993,78.68 61.993,78.68 C41.827,77.18 4.256,77.32 1.493,88.18 C-5.507,115.68 13.498,115.68 29.498,115.68 C51.498,115.68 54.109,109.85 68.493,111.68 C75.993,112.63 86.994,117.68 137.494,117.68 C177.996,117.68 180.997,113.18 184.997,104.18 Z"></path>
            <mask id="mask-4" fill="#fff">
              <use xlink:href="#path-3"></use>
            </mask>
            <use xlink:href="#path-3" id="Path" fill="#3B434E" fill-rule="nonzero"></use>
            <path id="Path" fill="#32373F" fill-rule="nonzero" d="M142.889,70 C136.089,68.4 104.722,52 89.889,44 C64.389,51.5 45.389,78 30.889,104.5 C31.389,110.5 89.027,116.36 95.389,108.5 C103.889,98 119.389,76.5 142.889,70 Z" mask="url(#mask-4)"></path>
            <path id="Path" fill="#32373F" fill-rule="nonzero" d="M165.894,84.58 C173.708,84.58 175.662,78.86 175.662,76 C176.228,84.91 176.087,104.05 170.99,109.29 C164.62,115.85 112.289,112.32 105.918,109.29 C99.548,106.26 124.605,85.17 130.126,89.2 C135.647,93.24 139.987,97.19 146.783,91.13 C153.578,85.08 156.126,84.58 165.894,84.58 Z" mask="url(#mask-4)"></path>
            <path id="Path" fill="#C8D1DC" fill-rule="nonzero" d="M170.389 81.5C170.789 75.5 179.222 71.85 180.389 72.01L196.889 73.01 194.889 103.01 173.889 115.01C169.889 114.85 144.389 110.5 160.389 110.5 167.889 110.5 169.389 107.51 173.889 103.01 178.389 98.51 169.889 89 170.389 81.5ZM92.999 15.91C91.799 8.71 89.499 4.24 88.499 2.91L90.498-2.09 101.999-2.09C107.333 2.58 116.299 14.01 109.499 22.41 100.999 32.91 94.499 24.91 92.999 15.91Z" mask="url(#mask-4)"></path>
          </g>
          <path id="Path" fill="#272F39" fill-rule="nonzero" d="M107.397402,59.7756302 C107.234004,61.9542715 109.379657,63.5713309 111.42895,62.8139835 L131.205847,55.5051302 L134.460439,70.1507914 C134.903551,72.1447976 137.166497,73.1225546 138.922226,72.0786077 L157.422226,61.0786077 C158.846352,60.2318302 159.314385,58.3908995 158.467608,56.9667738 C157.62083,55.5426481 155.7799,55.0746149 154.355774,55.9213923 L139.418418,64.8030635 L136.317561,50.8492086 C135.923243,49.0747767 134.054058,48.0559046 132.34905,48.6860165 L113.7299,55.5670065 L114.880598,40.2243698 C115.011125,38.4840042 113.634254,37 111.889,37 L90.889,37 C89.2321458,37 87.889,38.3431458 87.889,40 C87.889,41.6568542 89.2321458,43 90.889,43 L108.655574,43 L107.397402,59.7756302 Z"></path>
        </g>
        <path id="Path" fill="#D8DEE4" fill-rule="nonzero" d="M191.604998 523.908712C184.351998 454.323712 188.140998 212.637712 204.059998 111.381712L233.255998 112.560712C236.903998 249.931712 230.778998 465.709712 228.975998 525.417712 220.431998 537.300712 195.928998 532.234712 191.604998 523.908712ZM327.762998 498.742712C316.012998 430.085712 307.862998 189.885712 320.600998 88.3957116L371.286998 71.8397116C382.456998 208.018712 388.956998 414.282712 393.134998 495.262712 384.116998 507.572712 333.064998 506.751712 327.762998 498.742712Z"></path>
        <path id="Path" fill="#EAF0F5" fill-rule="nonzero" d="M224.713998,535.910712 C211.641998,466.577712 206.739998,224.592712 224.713998,122.632712 L265.561998,122.632712 C276.454998,259.938712 286.499998,476.093712 286.499998,535.910712 C275.061998,548.145712 231.106998,544.067712 224.713998,535.910712 Z"></path>
        <path id="Path" fill="#D8DEE4" fill-rule="nonzero" d="M249.499998,75.1327116 C288.189998,81.2417116 345.999998,58.1327116 365.999998,30.1327116 C373.999998,35.1327116 382.499998,56.6327116 382.499998,75.1327116 C382.499998,93.6327116 329.499998,144.632712 258.007998,133.632712 C235.274998,130.134712 225.829998,117.632712 224.499998,103.132712 C223.169998,88.6327116 220.999998,70.6327116 249.499998,75.1327116 Z"></path>
        <path id="Path" fill="#EAF0F5" fill-rule="nonzero" d="M289.883998,78.1937116 C250.878998,81.7717116 200.371998,50.4657116 192.425998,38.7457116 C183.807998,42.5837116 182.179998,54.1697116 178.171998,82.6897116 C173.160998,118.339712 248.274998,144.188712 300.139998,141.739712 C383.499998,137.802712 384.585998,86.9587116 379.107998,72.0517116 C373.628998,57.1437116 350.753998,72.6107116 289.883998,78.1937116 Z"></path>
        <path id="Path" fill="#4F5E46" fill-rule="nonzero" d="M192.999998,215.632712 C173.864998,104.647712 163.425998,83.3727116 151.610998,61.1587116 C150.758998,59.5567116 148.688998,59.0717116 147.213998,60.1277116 L112.999998,84.6327116 L62.9999985,147.877712 C74.9999985,173.877712 102.999998,169.877712 102.999998,229.877712 C102.999998,259.938712 69.3332985,632.962712 79.9999985,685.632712 C79.9999985,685.632712 96.9999985,706.842712 138.999998,712.632712 C180.999998,718.422712 213.999998,717.632712 213.999998,717.632712 L204.999998,369.632712 C192.999998,293.632712 197.482998,241.636712 192.999998,215.632712 Z"></path>
        <path id="Path" fill="#EBBAAA" fill-rule="nonzero" d="M70.350141,358.533388 C61.4587299,378.22226 70.2118019,401.391158 89.9006745,410.282569 C102.902959,416.154345 115.280306,416.070549 128.732279,412.799147 C132.365696,411.915532 135.837297,410.863072 140.339326,409.360364 C141.147397,409.090642 147.921053,406.784376 149.864721,406.147553 C160.060274,402.807081 167.293757,401.308988 175.119691,401.237765 C185.27747,401.14532 196.156467,403.634877 208.934506,409.83029 C228.373592,419.255301 251.772566,411.13729 261.197577,391.698204 C270.622588,372.259118 257.883647,352.363755 247.952147,340.236227 C242.790951,333.933801 229.74088,324.325853 207.84499,324.632712 C207.320442,324.640063 173.091624,326.627958 172.569334,326.632712 C155.386693,326.78909 142.677913,326.17718 125.506534,331.803212 C123.042728,332.610454 115.980487,335.014976 115.569734,335.152079 C114.44219,335.528436 113.494127,335.835442 112.694578,336.083748 C95.5266734,333.089802 77.8539533,341.917172 70.350141,358.533388 Z"></path>
        <path id="Path" fill="#424B3C" fill-rule="nonzero" d="M8.03655849,247.543712 C22.5914985,205.334712 54,146.632712 101.282998,105.632712 L106.282998,264.632712 C114.772998,270.697712 111.012998,297.394712 129.934998,300.305712 C153.585998,303.944712 169.960998,309.402712 189.973998,329.415712 C169.960998,333.054712 168.140998,374.899712 179.057998,411.287712 C179.057998,421.293712 165.411998,430.390712 151.766998,430.390712 L70.8048985,444.035712 L8.03655849,374.899712 C1.97197849,350.034712 -6.51842151,289.752712 8.03655849,247.543712 Z"></path>
        <polygon id="Path" fill="#393F35" fill-rule="nonzero" points="56 272.633 101.484 279.91 56 291.736"></polygon>
        <polygon id="Path" fill="#393F35" fill-rule="nonzero" points="73 308.014 105.749 281.633 90.284 318.02"></polygon>
        <path id="Path" fill="#515E4A" fill-rule="nonzero" d="M212.670998,324.632712 L186.290998,324.632712 C165.367998,324.632712 158.999998,351.013712 158.999998,363.749712 C158.999998,394.678712 160.212998,396.194712 165.367998,412.872712 C178.709998,413.175712 192.657998,414.691712 201.754998,407.413712 C195.386998,361.019712 202.664998,340.097712 212.670998,324.632712 Z"></path>
      </g>
      <g id="head" fill-rule="nonzero" transform="translate(74)">
        <rect id="Rectangle" width="346" height="146.058" x="32" y="240" fill="#2D2622" rx="73.029" transform="rotate(-.496 205 313.029)"></rect>
        <ellipse id="Oval" cx="58.409" cy="263.739" fill="#EFC8BD" rx="58.409" ry="55.739"></ellipse>
        <ellipse id="Oval" cx="344.174" cy="264.319" fill="#EFC8BD" rx="58.409" ry="55.739"></ellipse>
        <path id="Path" fill="#F6DDD6" d="M46.5054,154.894014 C46.5054,73.5073142 116.2524,7.53028419 202.2884,7.53028419 C288.3254,7.53028419 358.0714,73.5073142 358.0714,154.894014 L348.0714,301.466014 C335.5084,396.539014 270.1294,448.829014 202.2884,448.829014 C134.4474,448.829014 65.7184,385.447014 56.5054,301.466014 L46.5054,154.894014 Z"></path>
        <circle id="Oval" cx="116" cy="315" r="37" fill="#F2CACA" fill-opacity=".36"></circle>
        <ellipse id="Oval" cx="295.5" cy="313" fill="#F2CACA" fill-opacity=".36" rx="36.5" ry="37"></ellipse>
        <path id="Path" fill="#EC908B" d="M225.648926,346.011404 C225.697666,345.933448 225.699476,345.930477 225.652303,345.99288 C225.493727,346.20265 225.275199,346.463878 224.994259,346.765784 C224.094158,347.733056 222.911002,348.739998 221.418967,349.707805 C216.85226,352.669993 210.675937,354.500014 202.5004,354.500014 C194.324863,354.500014 188.14854,352.669993 183.581833,349.707805 C182.089798,348.739998 180.906642,347.733056 180.006541,346.765784 C179.725601,346.463878 179.507073,346.20265 179.348497,345.99288 C179.298716,345.927027 179.303484,345.933977 179.360387,346.025022 C177.16506,342.512498 172.537932,341.444699 169.025408,343.640027 C165.512884,345.835354 164.445085,350.462482 166.640413,353.975006 C167.119576,354.741667 167.902832,355.777786 169.025509,356.984244 C170.742596,358.829472 172.864127,360.63503 175.418967,362.292224 C182.41476,366.830036 191.425937,369.500014 202.5004,369.500014 C213.574863,369.500014 222.58604,366.830036 229.581833,362.292224 C232.136673,360.63503 234.258204,358.829472 235.975291,356.984244 C237.097968,355.777786 237.881224,354.741667 238.360387,353.975006 C240.555715,350.462482 239.487916,345.835354 235.975392,343.640027 C232.464655,341.445816 227.840448,342.511413 225.643765,346.019663 L225.648926,346.011404 Z"></path>
        <path id="Path" fill="#513F32" d="M123.341778 209.888607C123.549781 209.801953 124.033002 209.615924 124.756643 209.362943 126.01143 208.924276 127.439873 208.481831 129.006182 208.067529 133.461985 206.888934 138.0729 206.184014 142.5344 206.184014 146.978169 206.184014 151.436541 206.883057 155.658203 208.050107 157.135854 208.458594 158.470781 208.894092 159.632696 209.324872 160.296154 209.57085 160.730382 209.749227 160.905905 209.827684 163.931139 211.179951 167.479804 209.823743 168.83207 206.798509 170.184337 203.773276 168.828129 200.22461 165.802895 198.872344 165.395918 198.690427 164.720928 198.413147 163.804229 198.073281 162.33255 197.527655 160.674509 196.986747 158.855597 196.483921 153.658509 195.047221 148.153131 194.184014 142.5344 194.184014 136.9334 194.184014 131.325565 195.041344 125.937618 196.466499 124.058614 196.96351 122.334714 197.497471 120.796532 198.035211 119.844392 198.368073 119.144019 198.637701 118.727022 198.811422 115.668142 200.085751 114.221478 203.598512 115.495807 206.657392 116.770137 209.716272 120.282897 211.162936 123.341778 209.888607ZM241.341778 209.888607C241.549781 209.801953 242.033002 209.615924 242.756643 209.362943 244.01143 208.924276 245.439873 208.481831 247.006182 208.067529 251.461985 206.888934 256.0729 206.184014 260.5344 206.184014 264.978169 206.184014 269.436541 206.883057 273.658203 208.050107 275.135854 208.458594 276.470781 208.894092 277.632696 209.324872 278.296154 209.57085 278.730382 209.749227 278.905905 209.827684 281.931139 211.179951 285.479804 209.823743 286.83207 206.798509 288.184337 203.773276 286.828129 200.22461 283.802895 198.872344 283.395918 198.690427 282.720928 198.413147 281.804229 198.073281 280.33255 197.527655 278.674509 196.986747 276.855597 196.483921 271.658509 195.047221 266.153131 194.184014 260.5344 194.184014 254.9334 194.184014 249.325565 195.041344 243.937618 196.466499 242.058614 196.96351 240.334714 197.497471 238.796532 198.035211 237.844392 198.368073 237.144019 198.637701 236.727022 198.811422 233.668142 200.085751 232.221478 203.598512 233.495807 206.657392 234.770137 209.716272 238.282897 211.162936 241.341778 209.888607Z"></path>
        <path id="Path" fill="#000" d="M122.435098 247.502689 149.371098 243.244689C152.098653 242.813522 153.960243 240.252871 153.529075 237.525316 153.097907 234.797761 150.537257 232.936172 147.809702 233.367339L120.873702 237.625339C118.146147 238.056507 116.284557 240.617157 116.715725 243.344712 117.146893 246.072267 119.707543 247.933857 122.435098 247.502689ZM250.340523 240.635661 277.276523 244.894661C280.004063 245.325927 282.56478 243.46443 282.996047 240.736891 283.427313 238.009352 281.565816 235.448634 278.838277 235.017367L251.902277 230.758367C249.174737 230.327101 246.61402 232.188598 246.182753 234.916137 245.751487 237.643677 247.612984 240.204395 250.340523 240.635661Z"></path>
        <path id="Path" fill="#000" d="M131.4894 238.304597 131.4884 267.082597C131.4884 273.710014 136.860566 279.083014 143.487983 279.083014 150.1154 279.083014 155.48817 273.710848 155.4884 267.083431L155.4894 238.305431C155.4894 231.678014 150.117234 226.305014 143.489817 226.305014 136.8624 226.305014 131.48963 231.67718 131.4894 238.304597ZM245.3154 235.696014 245.3154 264.475014C245.3154 271.102431 250.687983 276.475014 257.3154 276.475014 263.942817 276.475014 269.3154 271.102431 269.3154 264.475014L269.3154 235.696014C269.3154 229.068597 263.942817 223.696014 257.3154 223.696014 250.687983 223.696014 245.3154 229.068597 245.3154 235.696014Z"></path>
        <path id="Path" fill="#EBBAAA" d="M191.026303,275.268535 C190.695479,277.67957 190.322139,279.303883 188.550756,286.41833 C188.121672,288.141669 187.817155,289.392295 187.525057,290.646938 C185.364952,299.925476 184.697577,306.266835 186.106913,312.143348 C188.314944,321.350177 195.6236,326.655014 206.3984,326.655014 L206.3984,309.655014 C205.272403,309.655014 204.389967,309.549701 203.739443,309.374117 C203.347195,309.268245 203.122463,309.163772 203.003873,309.077696 C202.974456,309.056344 202.964901,309.045923 202.932911,308.993698 C202.838153,308.839001 202.733339,308.575638 202.638152,308.178738 C202.038509,305.678403 202.499039,301.302069 204.082261,294.501675 C204.350784,293.348293 204.637187,292.17206 205.047114,290.52566 C207.013446,282.628238 207.416154,280.876152 207.868497,277.579493 L191.026303,275.268535 Z"></path>
        <path id="Path" fill="#2D2622" d="M58.0004 249.000014C65.0004 211.000014 82.9874 82.0000142 155.9874 82.0000142 168.6964 82.0000142 193.4874 33.5000142 155.9874 24.0000142 73.9874 24.0000142 38.0004 62.0000142 38.0004 142.000014 38.0004 206.000014 51.0004 287.000014 58.0004 249.000014ZM345.8514 243.000014C338.8514 205.000014 320.8644 76.0002142 247.8644 76.0002142 235.1554 76.0002142 186.5004 27.5000142 224.0004 18.0000142 306.0004 18.0000142 345.8514 46.0000142 365.8514 136.000014 379.7354 198.476014 352.8514 281.000014 345.8514 243.000014Z"></path>
        <path id="Path" fill="#2D2622" d="M66.5104 149.699014C63.7054 126.706014 69.4464 90.0002142 91.3824 71.0004142 101.8764 106.088014 85.5394 135.718014 91.3824 152.899014 107.0774 199.050014 69.9494 214.891014 66.9974 236.075014 61.4604 217.565014 62.0934 207.154014 69.4464 186.950014 79.2704 159.959014 69.9424 177.831014 66.5104 149.699014ZM138.5924 89.2449142C117.7854 98.7897142 112.2594 63.3782142 111.5924 48.4645142 120.5924-13.7549858 266.5924-13.7545858 295.5924 35.2453142 295.5924 61.9565142 316.3414 106.904014 281.5924 89.2449142 220.5924 58.2449142 164.6014 77.3140142 138.5924 89.2449142Z"></path>
        <path id="Path" fill="#60432F" d="M67.1784 132.254014C62.1444 99.6523142 73.1224 73.2484142 82.9114 62.2114142 82.9114 62.2114142 94.8094 48.2451142 116.1304 48.2451142 137.4514 48.2451142 151.5924 53.0524142 151.5924 53.0524142 150.1944 66.6365142 114.3764 98.9981142 137.4514 148.665014 158.9514 194.943014 81.1634 255.359014 54.5924 267.245014 58.7874 259.604014 90.2534 218.579014 90.2534 188.288014 90.2534 165.365014 73.4714 173.006014 67.1784 132.254014ZM330.5924 132.245014C335.4194 101.728014 322.5924 81.2451142 298.5924 66.2451142 274.5924 51.2451142 239.0924 60.2451142 239.0924 60.2451142 240.4334 72.9607142 278.3224 94.2740142 285.5924 145.245014 290.4414 179.245014 302.9754 191.745014 335.5924 249.745014 335.5924 233.745014 335.5924 219.245014 342.0924 201.245014 349.3804 181.063014 324.5584 170.392014 330.5924 132.245014Z"></path>
        <path id="Path" fill="#47372B" d="M146.372177 55.372318C130.59112 76.7894667 131.139768 118.661727 148.911232 144.511129 150.162773 146.331553 152.653092 146.792723 154.473515 145.541182 156.293938 144.289641 156.755109 141.799322 155.503568 139.978899 139.612132 116.864083 139.112219 78.7113157 152.812623 60.1179103 154.123082 58.3394301 153.743676 55.83535 151.965196 54.5248908 150.186716 53.2144317 147.682636 53.5938378 146.372177 55.372318ZM235.005412 66.9168264C245.449897 71.431142 254.390138 83.2975072 260.911468 99.9533998 266.348607 113.840201 269.5924 130.136173 269.5924 141.245014 269.5924 143.454153 271.383261 145.245014 273.5924 145.245014 275.801539 145.245014 277.5924 143.454153 277.5924 141.245014 277.5924 129.10993 274.152602 111.829279 268.360832 97.0367286 261.136802 78.5860948 250.981221 65.106611 238.179388 59.573402 236.151557 58.696933 233.797157 59.630296 232.920688 61.6581266 232.044219 63.6859572 232.977582 66.0403573 235.005412 66.9168264Z"></path>
      </g>
    </g>
  </g>
</svg>
